<svg xmlns="http://www.w3.org/2000/svg" width="240" height="240"><g fill="none" fill-rule="evenodd"><g stroke="#0E718C" stroke-linecap="round" stroke-linejoin="round" stroke-width="2"><path d="M81.587 109.85855339c13.8205341-4.83676169 22.2816777-2.48429416 25.3834308 7.05740259 4.6526297 14.31254512-11.2161531 27.51557432-6.6836103 31.67238872 3.0216953 2.7712096 7.2907519 2.7712096 12.8071701 0m-2.1598306 1.6147308c3.9604404 3.9045757 6.6977567 5.2061009 8.2119488 3.9045757m6.8188389-26.4424823c3.3004924-2.7003107 7.0730038-3.6004143 11.3175344-2.7003107 4.2445305.9001036 7.6382849 2.9390811 10.1812632 6.1169326m-21.4987976-11.8784301c7.2028371-1.98082054 15.2991186-.1728343 24.2888445 5.4239587"/><path fill="#0E718C" d="M134.7991879 127.0652594c.8674113-.526197 2.2128898-.526197 4.0364354 0 1.8235457.5261971 3.0989676 1.0101408 3.8262657 1.4518309-1.1165271 2.5793228-2.7835976 3.6516036-5.0012116 3.2168424-2.2176141-.4347613-3.1714439-1.9909857-2.8614895-4.6686733zm-42.1383692-7.4300048c.8674113-.5261971 2.2128898-.5261971 4.0364355 0 1.8235456.526197 3.0989675 1.0101407 3.8262656 1.4518308-1.1165271 2.5793228-2.7835976 3.6516036-5.0012116 3.2168424-2.217614-.4347613-3.1714439-1.9909857-2.8614895-4.6686732z"/><path d="M104.047682 121.8193008c-4.9158338-5.7487989-9.8882392-7.61578096-14.91721633-5.6009462-1.34239989.53782586-2.36971172 1.19130666-3.08193548 1.9604424m1.96091465 40.97227c4.83920576 3.0089771 10.78399216 5.3045982 17.83435936 6.8868634 7.0503672 1.5822651 15.4034645 2.1790137 25.0592919 1.7902457-8.6492247 5.3888274-17.3680451 6.818996-26.1564612 4.2905058-4.1242077-1.186564-7.6855919-3.358057-10.6841528-6.514479"/></g><path stroke="#0E718C" stroke-linecap="round" stroke-linejoin="round" stroke-width="2" d="M157.107176 109.1213021c-1.794165 11.6332259-1.794165 18.9535319 0 21.9609199 2.691249 4.511081 6.221031 11.817424 4.45614 21.317608-1.764891 9.500185-11.30985 34.044462-11.30985 38.515112 0 4.470649-7.630715 16.907364-1.15894 23.649231 6.471776 6.741868 18.084976 4.771544 26.174759 5.756706 8.089783.985162 26.50391-16.768372 26.50391-12.254956 0 4.513416 14.836997-18.311792 7.418498-20.83121-7.418498-2.519418 2.407156-18.474459-2.505671-29.475433-4.912827-11.000975-8.625131-7.995146-8.625131-23.256694s-5.686446-26.6115908-5.686446-33.7039928m-66.409823 91.2809778c-9.490896 7.366567-17.9713715 10.494902-25.4414279 9.385004-7.0042816-1.040694-12.7026741-10.287123-18.9365198-20.777263-3.7387358-6.29144-10.1855287-11.282876-10.1855287-20.107764 0-23.539216 4.2896546-34.489875 5.5550912-39.052123 1.2654367-4.562249 4.4836555-21.2741075 7.7682689-23.3146909 3.2846134-2.0405834 7.878973-12.2404457 7.878973-13.9816621M50.8868672 193.574879c-10.3587101-4.138444-4.902135-1.105825-4.902135-9.958536 0-8.852711-13.5784331-17.789049-10.8841298-33.412837 2.6943032-15.623787 11.1162919-25.806849 21.358921-38.9988538 10.242629-13.1920052-.0343661-19.8842329 10.9986835-26.9735802 7.3553664-4.7262315 12.8147417-9.6988807 16.3781257-14.9179478"/><path fill="#D04D0B" d="M86.0482045 65.4770706c6.3033724-17.1850718 10.5149322-26.2880081 12.6346793-27.308809 2.119747-1.0208008 6.2033972-3.1497178 12.2509505-6.3867511 22.7276407-13.72202673 37.8064187-19.92492909 45.2363337-18.6087071 24.311387 4.30680284 32.623665 32.8340793 34.21868 35.4564871 2.326204 3.8245771 3.218704 7.8133426 2.677502 11.9662964 1.826749 1.6196198 2.283437 4.5254656 1.370062 8.7175373-1.370062 6.2881077-1.370062 7.6338616-1.370062 10.001305 0 2.3674433 3.621745 4.8453142 1.370062 15.903663-2.251683 11.0583487-4.912242 20.1891538-40.101435 10.7201441-35.189194-9.4690096-42.4493779-12.6574212-53.8117829-22.9985664-7.5749367-6.8940969-11.746295-11.4362787-12.514075-13.6265457l-1.9609146-3.8360536z"/><path stroke="#FFF" stroke-linecap="round" stroke-linejoin="round" stroke-width="2" d="M100.5231941 41.0412687c10.8234073 13.7969254 25.7766709 23.6257802 44.8597919 29.4865642 19.083121 5.860784 32.910517 8.7896495 41.482189 8.7865963"/><path stroke="#0E718C" stroke-linecap="round" stroke-linejoin="round" stroke-width="2" d="M86.0482045 226.408965c1.9609146-7.900593 2.6145528-14.615694 1.9609146-20.145301m-72.0091191 0c7.22928498-4.923348 12.74112-8.268983 16.535505-10.036904 3.794385-1.767921 6.7607427-2.651881 8.8990729-2.651881m164.7770461 15.794494c8.054889 3.295113 13.419295 6.958823 16.093218 10.99113"/></g></svg>