<svg xmlns="http://www.w3.org/2000/svg" width="240" height="240"><g fill="none" fill-rule="evenodd"><path fill="#D04D0B" d="M86.0482 65.47707c6.30338-17.18507 10.51494-26.288 12.63468-27.3088 2.11975-1.0208 6.2034-3.14973 12.25095-6.38676 22.72764-13.72203 37.80642-19.92493 45.23634-18.6087 24.31138 4.3068 32.62366 32.83407 34.21868 35.45648 2.3262 3.82458 3.2187 7.81334 2.6775 11.9663 1.82675 1.61962 2.28344 4.52546 1.37006 8.71753-1.37006 6.28811-1.37006 7.63387-1.37006 10.0013 0 2.36745 3.62175 4.84532 1.37006 15.90367-2.25168 11.05835-4.91224 20.18916-40.10143 10.72015-35.1892-9.46901-42.44938-12.65742-53.81179-22.99857-7.57493-6.8941-11.7463-11.43628-12.51407-13.62655l-1.96092-3.83605z"/><path stroke="#FFF" stroke-linecap="round" stroke-linejoin="round" stroke-width="2" d="M100.5232 41.04127c10.8234 13.79692 25.77666 23.62578 44.85979 29.48656 19.08312 5.86079 32.91051 8.78965 41.48218 8.7866"/></g></svg>