<svg xmlns="http://www.w3.org/2000/svg" width="240" height="240"><g fill="none" fill-rule="evenodd"><g stroke="#0E718C" stroke-linecap="round" stroke-linejoin="round" stroke-width="2"><path d="M81.587 109.85855c13.82053-4.83676 22.28168-2.4843 25.38343 7.0574 4.65263 14.31255-11.21615 27.51558-6.6836 31.6724 3.02169 2.7712 7.29074 2.7712 12.80716 0m-2.15983 1.61473c3.96044 3.90457 6.69776 5.2061 8.21195 3.90457m6.81884-26.44248c3.30049-2.70031 7.073-3.60042 11.31753-2.70031 4.24453.9001 7.63829 2.93908 10.18127 6.11693m-21.4988-11.87843c7.20283-1.98082 15.29912-.17283 24.28884 5.42396"/><path fill="#0E718C" d="M134.79919 127.06526c.8674-.5262 2.21289-.5262 4.03643 0 1.82355.5262 3.09897 1.01014 3.82627 1.45183-1.11653 2.57932-2.7836 3.6516-5.00121 3.21684-2.21762-.43476-3.17145-1.99098-2.8615-4.66867zm-42.13837-7.43c.86741-.5262 2.21289-.5262 4.03643 0 1.82355.5262 3.09897 1.01014 3.82627 1.45183-1.11653 2.57932-2.7836 3.6516-5.00121 3.21684-2.21762-.43476-3.17145-1.99099-2.8615-4.66868z"/><path d="M104.04768 121.8193c-4.91583-5.7488-9.88824-7.61578-14.91721-5.60095-1.3424.53783-2.36972 1.19131-3.08194 1.96045m1.96091 40.97227c4.83921 3.00897 10.784 5.3046 17.83436 6.88686 7.05037 1.58227 15.40347 2.17901 25.0593 1.79025-8.64923 5.38882-17.36805 6.819-26.15647 4.2905-4.1242-1.18656-7.68559-3.35806-10.68415-6.51448"/></g><path stroke="#0E718C" stroke-linecap="round" stroke-linejoin="round" stroke-width="2" d="M157.10718 109.1213c-1.79417 11.63323-1.79417 18.95353 0 21.96092 2.69125 4.51108 6.22103 11.81743 4.45614 21.31761-1.7649 9.50018-11.30985 34.04446-11.30985 38.51511 0 4.47065-7.63072 16.90737-1.15894 23.64923 6.47177 6.74187 18.08497 4.77155 26.17476 5.7567 8.08978.98517 26.5039-16.76836 26.5039-12.25495 0 4.51342 14.837-18.31179 7.4185-20.8312-7.4185-2.51943 2.40716-18.47447-2.50567-29.47544-4.91283-11.00097-8.62513-7.99515-8.62513-23.2567 0-15.26154-5.68644-26.61158-5.68644-33.70399m-66.40983 91.28098c-9.4909 7.36657-17.97137 10.4949-25.44143 9.385-7.00428-1.04069-12.70267-10.28712-18.93652-20.77726-3.73873-6.29144-10.18552-11.28287-10.18552-20.10776 0-23.53922 4.28965-34.48988 5.55509-39.05213 1.26543-4.56224 4.48365-21.2741 7.76827-23.31469 3.2846-2.04058 7.87897-12.24044 7.87897-13.98166m-41.71661 109.3438c-10.35871-4.13844-4.90214-1.10582-4.90214-9.95853 0-8.8527-13.57843-17.78905-10.88413-33.41283 2.6943-15.6238 11.1163-25.80685 21.35892-38.99886 10.24263-13.192-.03436-19.88423 10.99869-26.97358 7.35536-4.72623 12.81474-9.69888 16.37812-14.91795"/><path fill="#D04D0B" d="M86.0482 65.47707c6.30338-17.18507 10.51494-26.288 12.63468-27.3088 2.11975-1.0208 6.2034-3.14973 12.25095-6.38676 22.72764-13.72203 37.80642-19.92493 45.23634-18.6087 24.31138 4.3068 32.62366 32.83407 34.21868 35.45648 2.3262 3.82458 3.2187 7.81334 2.6775 11.9663 1.82675 1.61962 2.28344 4.52546 1.37006 8.71753-1.37006 6.28811-1.37006 7.63387-1.37006 10.0013 0 2.36745 3.62175 4.84532 1.37006 15.90367-2.25168 11.05835-4.91224 20.18916-40.10143 10.72015-35.1892-9.46901-42.44938-12.65742-53.81179-22.99857-7.57493-6.8941-11.7463-11.43628-12.51407-13.62655l-1.96092-3.83605z"/><path stroke="#FFF" stroke-linecap="round" stroke-linejoin="round" stroke-width="2" d="M100.5232 41.04127c10.8234 13.79692 25.77666 23.62578 44.85979 29.48656 19.08312 5.86079 32.91051 8.78965 41.48218 8.7866"/><path stroke="#0E718C" stroke-linecap="round" stroke-linejoin="round" stroke-width="2" d="M86.0482 226.40896c1.96092-7.90059 2.61456-14.61569 1.96092-20.1453m-72.00912 0c7.22928-4.92334 12.74112-8.26898 16.5355-10.0369 3.79439-1.76792 6.76075-2.65188 8.89908-2.65188m164.77704 15.7945c8.0549 3.2951 13.4193 6.95882 16.09322 10.99112"/></g></svg>