<svg xmlns="http://www.w3.org/2000/svg" width="240" height="240"><g fill="none" fill-rule="evenodd"><path stroke="#0E718C" stroke-linecap="round" stroke-linejoin="round" stroke-width="2" d="M181.609656 112.086451c0 5.345857 4.326028 9.299685 4.326028 13.326889 0 2.684803-.721005 9.430841-2.163014 20.238112 2.884018 4.525953 3.605023 7.433013 2.163014 8.721179-2.163014 1.93225 0 2.329973 0 7.080309s-3.605024 7.240886-1.802512 10.000484c1.802512 2.759597 1.802512 9.692089 1.802512 9.692089s4.326028 15.791917 0 15.791917-5.49261 2.164077-8.759463 2.164077h-6.623034c-3.385957 0-6.91016 6.72406-9.424105 4.980037-2.513946-1.744023-13.955375 3.341293-13.955375 0s-14.478583-7.144114-15.984398-7.144114c-1.505815 0-18.539816-9.66125-18.539816-11.526504 0-1.865254-10.770406-11.369117-10.770406-11.369117s-6.9229213-4.553602-6.9229213-8.571235v-19.819122c0-1.543035 2.237454-12.934483 2.237454-15.078356 0-1.429248.8918623-5.573075 2.6755867-12.431481 2.6798406-4.036776 3.3498006-6.055164 2.0098806-6.055164-1.33992 0-2.0098806-2.347341-2.0098806-7.042025"/><path stroke="#0E718C" stroke-linecap="round" stroke-linejoin="round" stroke-width="2" d="M107.208991 115.945634c6.431617 4.67696 9.647426 8.22314 9.647426 10.638541 0 3.623102 8.88601 6.820832 8.88601 9.072111 0 2.251278 8.043775 6.53796 8.043775 8.956197 0 2.418236 4.653033 13.830881 6.137047 10.533225 1.484015-3.297656 1.491991-6.582588 3.063739-10.533225 1.571747-3.950638 7.123078-8.956197 8.568045-8.956197.963311 0 4.255687-.580987 9.877126-1.74296m-14.385 15.467571c-1.365443 2.983981-1.120854 12.839838 1.558986 12.839838s12.826014 1.196358 12.826014 2.875512 4.265413 5.521322 4.265413 0c0-3.680882-2.417883-7.498945-7.253648-11.454191h10.306751l-3.053103 3.52952m3.053103 10.795927c3.145623-1.931185 5.530893-1.411132 5.530893-7.116464v-11.470142"/><path stroke="#0E718C" stroke-linecap="round" stroke-linejoin="round" stroke-width="2" d="M149.410097 144.54655c6.745329-2.220439 12.115998-2.960586 16.112009-2.220439 3.996011.740146 5.994016 1.480293 5.994016 2.220439m-16.63043 1.883332c4.032521.63401 7.351482.951015 9.956883.951015m3.9081-39.116408c5.39532 10.581627 7.814572 16.615212 7.257757 18.100753-.835224 2.228313-5.5594 5.843061-6.666027 5.843061-1.106627 0-5.025626 1.35842-7.910246 0s-6.546467-1.277874-6.546467-3.560467m5.577418.984407c2.129829-1.101724 3.96394-1.479121 5.502332-1.132191"/><path stroke="#0E718C" stroke-linecap="round" stroke-linejoin="round" stroke-width="2" d="M176.982777 126.461849c5.1931.950099 8.818296.556492 10.875586-1.180822 2.05729-1.737315 4.4121-7.409494 7.064431-17.016538-2.197559-3.815348-6.187153-5.723022-11.968782-5.723022-5.781629 0-9.594259.83432-11.43789 2.502959-.616419-.844193-1.775522-1.26629-3.477311-1.26629h-4.824535c-2.298252-4.7426216-5.70301-7.1139323-10.214276-7.1139323s-9.581053.9151956-15.209362 2.7455869c-1.495015 6.4742084-1.085835 11.3856204 1.22754 14.7342374 3.470063 5.022926 7.440048 9.13378 14.927014 6.394239 4.991311-1.826361 8.081006-6.70175 9.269084-14.626166"/><path stroke="#0E718C" stroke-linecap="round" stroke-linejoin="round" stroke-width="2" d="M171.516122 99.3018573c1.895682-.6923483 3.419163-.6923483 4.570444 0 1.151281.6923482 2.28574 1.4127987 3.403378 2.1613507m-18.057785-4.7990043c-5.010833-2.04232-9.526255-2.450784-13.546267-1.225392m-10.975575 4.6840903c.221616-.3626414-.641631-.8094101-2.589742-1.3403059-1.94811-.5308958-11.934149-1.2370266-29.958115-2.1183924m65.741902 37.5458263c1.970494 1.37814 3.362897 2.746589 4.177206 4.105349m-22.623908-31.918746c-1.279156-1.410982-3.087342-2.116473-5.424559-2.116473-2.337217 0-5.157807.705491-8.461771 2.116473"/><path fill="#0E718C" d="M142.403539 105.338397l.900489 2.926092h3.588906c.264964-.365162.59595-.852844.992958-1.463046.397009-.610203.690379-1.45063.880112-2.521283h-4.051509c-.940312 0-1.71063.352746-2.310956 1.058237z"/><path stroke="#0E718C" stroke-linecap="round" stroke-linejoin="round" stroke-width="2" d="M177.752934 110.681163c-1.601562-1.611116-2.928613-2.416674-3.981156-2.416674-1.052542 0-1.578813.123796-1.578813.371387l.549773 2.562585c.791944.03883 1.304888-.133603 1.53883-.517298.233943-.383694.064013-.812223-.50979-1.285584m12.340352-9.272677c-1.681174-1.0293488-2.521761-2.1822483-2.521761-3.4586983 0-1.914675-4.171068-19.6478811-5.837435-23.3209566-1.110912-2.448717-2.492376-5.0251162-4.144391-7.7291977.774899-8.2521868-2.689857-14.007289-10.394267-17.2653064-11.556616-4.8870262-27.607422-7.9855016-40.605904-6.9268047-12.998483 1.0586968-34.8267002 4.0986204-44.9003195 22.1924638-10.0736193 18.0938434-11.0213401 29.6419247-11.0213401 38.9212349 0 9.279311-1.3480513 21.262002 1.5080472 26.468198 1.9040656 3.470797 4.1871288 6.574645 6.8491896 9.311544-.6649478 7.950417-.1670312 12.743076 1.4937497 14.377977m-1.9512701-1.572726c-2.7315058 2.864572-4.4946389 5.382429-5.289399 7.55357-.7947602 2.171141-2.1466695 4.191042-4.055728 6.059705"/><path stroke="#0E718C" stroke-linecap="round" stroke-linejoin="round" stroke-width="2" d="M170.104362 62.7943756c-.902458-2.0991116-5.106616-4.6095824-12.612474-7.5314126-11.258787-4.3827453-29.122912-2.67002-31.251402 0-2.12849 2.67002-14.541065 10.817431-13.131136 14.9525283 1.409928 4.1350972 5.072621 8.3513564 5.072621 11.8517256 0 2.3335795-2.820204 5.2148287-8.460612 8.6437476m-16.9948941 9.4119375c-4.8706107-3.7754147-8.7160462-5.2474267-11.5363063-4.4160358-4.2303902 1.2470864-8.9770693 9.5129398-6.6037298 18.9957328 2.3733396 9.482793 9.1544899 16.502128 11.3949456 16.502128h5.0815925"/><path stroke="#0E718C" stroke-linecap="round" stroke-linejoin="round" stroke-width="2" d="M80.0536482 102.39198c.9966501-3.6350322 2.3523674-4.3913915 4.0671518-2.269078 2.5721766 3.183471 9.7123907 10.163728 8.6056649 11.692046-.7378172 1.018878-.7378172 3.00108 0 5.946606-1.2613998-2.500884-2.885678-3.428759-4.8728346-2.783623m-6.2000514 19.232099c-1.4898555 2.7369-2.6006767 4.105349-3.3324637 4.105349m6.752581 14.377977l4.7577969 5.980844m59.5786039 46.572789c2.638765 4.926387 2.130697 7.389581-1.524205 7.389581-5.482353 0-36.604939-20.022889-43.523432-23.420403-6.9184919-3.397514-17.6340948-16.616648-26.0413448-18.932656-8.4072499-2.316008-9.783386-4.632016-15.5046025-2.316008-5.7212165 2.316008-39.5467345 16.679651-43.477961 21.854873-2.6208178 3.450147-6.0463099 7.434452-10.27647631 11.952915m154.15220061 5.960247c14.56752 10.365884 22.782215 16.564857 24.644087 18.596918 1.861871 2.032062 4.216682 5.098096 7.064431 9.198103"/><path fill="#D04D0B" d="M59.69214519 71.64586913c0-2.13037849 2.0773179-2.64870522 2.3431719-4.9480527.5790905-5.00849958 1.28678603-17.32749024 6.44446247-25.48301181C75.89348172 29.4919663 88.9824693 26.94926149 94.95599353 24.0707377c22.36885205-10.77910933 64.24560438 10.15078513 65.50694399 11.95216478 1.2613396 1.80137965 7.02052904.20595636 11.05301166 9.92207444.91582778 2.20665306 5.81486812 15.71066477 4.5704439 17.48976392-4.2348996 6.05445431-26.2108663 1.44863044-52.56722092 11.60470881C89.41801424 88.1798869 98.12440113 83.1988849 83.33902154 92.06590708c-5.3795549 3.2262028-15.09677577 5.8057414-18.09789212 4.888301-2.4978074-.76357903-5.54898422-15.15210111-5.54898423-25.30833896z"/><path stroke="#FFF" stroke-linecap="round" stroke-linejoin="round" stroke-width="2" d="M78.71150763 57.42622447c11.1241889-6.30416422 23.50845594-11.24131329 37.15280183-14.81144712 18.92185922-4.9510304 31.2427857-6.32199859 36.96278043-4.1129047"/></g></svg>