<svg xmlns="http://www.w3.org/2000/svg" width="240" height="241"><g fill="none" fill-rule="evenodd"><path stroke="#0E718C" stroke-linecap="round" stroke-linejoin="round" stroke-width="2" d="M128.87383 206.08443c-4.76835 7.57072-13.85321 11.35608-27.25458 11.35608-20.10206 0-30.89394-16.1725-36.91807-20.4851-4.01608-2.87507-11.61113-9.10289-22.78515-18.68345 9.59017-6.37983 15.547-11.83375 17.8705-16.36176 2.32349-4.52801 3.9617-14.60638 4.91465-30.2351m11.0127-6.07821c-1.24377 1.02986-3.01267 1.54479-5.30672 1.54479-3.44107 0-12.39344-9.99786-13.95986-16.1022-1.56642-6.10434-4.90204-15.55963 3.03009-17.665 5.28808-1.4036 10.12896.22651 14.52261 4.89032"/><path stroke="#0E718C" stroke-linecap="round" stroke-linejoin="round" stroke-width="2" d="M74 117.40339c-2.55006-2.91316-3.40008-5.3761-2.55006-7.38884.85002-2.01273 1.2219-3.519 1.11565-4.51882-4.18664-6.67184-7.82775-9.52228-10.92334-8.5513-3.09558.97097-4.1642 2.85674-3.20584 5.6573m7.61188 12.97657c-.41519-4.54843.10795-7.38074 1.56942-8.49691"/><path stroke="#0E718C" stroke-linecap="round" stroke-linejoin="round" stroke-width="2" d="M128.87383 206.08443c-1.35432-4.79659-1.35432-9.10559 0-12.927 1.35432-3.8214 2.70864-8.4735 4.06295-13.95625 6.25606-6.31134 10.11442-10.84926 11.57509-13.61378 2.191-4.14677 9.26061-12.73863 12.03564-21.9641 2.77503-9.22545 3.65107-21.43684 3.65107-25.02482V107.0814c0-3.5216 4.17831-2.9382 4.17831-6.6301 0-3.6919-1.45285-7.93573 0-24.27767 1.45286-16.34193-2.50735-17.47033-2.50735-19.69468 0-2.22435-10.92398-20.1336-15.59188-22.23898-4.6679-2.10538-10.7416-10.92978-13.34088-10.92978-2.59928 0-21.70813-6.63429-24.63818-4.77135-2.93004 1.86294-18.8921 5.80512-20.89788 9.22997-2.0058 3.42484-13.46506 7.93213-16.62404 12.65751-3.15897 4.7254-14.28342 16.0977-14.28342 20.03537 0 3.93767-2.09379 9.36425-2.09379 11.88512 0 2.52087-2.2882 19.02162-2.2882 20.54063 0 1.519.19441 20.91935 2.2882 24.51596 1.39586 2.39774 3.59202 7.15497 6.58846 14.2717"/><path stroke="#0E718C" stroke-linecap="round" stroke-linejoin="round" stroke-width="2" d="M113.96312 145.42856c8.77422-.51793 14.42883-.0751 16.96382 1.32848 2.53499 1.4036 5.5101 1.81427 8.92533 1.23205l1.49522 1.49522m-1.42041 5.03993c-.87364 4.13025-3.13734 6.19537-6.79111 6.19537m-14.66106-13.36788c3.78536 3.12993 6.8455 4.6949 9.1804 4.6949s5.29364-.16242 8.87621-.48726m-12.13623-23.18741c2.3016 1.82239 4.49525 2.73358 6.58093 2.73358 3.12852 0 2.88237 3.09908 7.04536 3.09908 2.77532 0 4.90746-.84318 6.39641-2.52953m-1.24882-27.28624c.27403 11.62422.6903 17.76886 1.24882 18.4339.83778.99756 3.5325 5.80733 2.18514 7.13644"/><path stroke="#0E718C" stroke-linecap="round" stroke-linejoin="round" stroke-width="2" d="M71.63833 95.0708l36.24085 1.6886c6.42062-3.37657 11.92599-4.66723 16.51611-3.87197 4.59012.79525 8.8489 3.17623 12.77634 7.14292h5.99754c3.1619-2.45677 6.20627-3.68516 9.13314-3.68516 2.92686 0 8.24602 1.22839 15.95746 3.68516-.74774 10.6484-3.50789 16.4394-8.28043 17.37304-4.77255.93363-9.95966-.27144-15.56135-3.61524"/><path stroke="#0E718C" stroke-linecap="round" stroke-linejoin="round" stroke-width="2" d="M106.34141 96.7594c-1.01784 12.54593 3.51804 18.8189 13.60764 18.8189s15.41328-4.40938 15.97101-13.22816"/><path stroke="#0E718C" stroke-linecap="round" stroke-linejoin="round" stroke-width="2" d="M111.29036 100.5203c2.3397-3.24355 5.24291-4.86533 8.70964-4.86533s6.1898 1.18758 8.16923 3.56273l-1.54051 1.3026m20.34526 2.56398c2.41215-2.0849 4.67506-3.12734 6.78875-3.12734s3.34994.18778 3.70876.56336"/><path fill="#0E718C" d="M115.28807 97.475c.6072 2.69707 2.08777 4.04561 4.44172 4.04561s3.5516-1.95521 3.59296-5.86564h-4.01734c-1.07307 0-2.41218.60668-4.01734 1.82004zm32.7158 5.60928c2.02932 1.30457 3.4356 1.73942 4.21887 1.30457.78326-.43486 1.2835-1.72437 1.50073-3.86855-1.49968-.66687-2.65676-.66687-3.47125 0-.81449.66687-1.56393 1.52153-2.24834 2.56398z"/><path stroke="#0E718C" stroke-linecap="round" stroke-linejoin="round" stroke-width="2" d="M159.77182 68.08943c-2.1257-8.17847-4.14182-10.90463-6.04835-8.17847-2.8598 4.08923-29.92218 2.81765-39.76035 0-9.83816-2.81765-20.68167-3.31948-20.68167 3.57808 0 4.59837.96276 10.2801 2.88826 17.0452-7.18319 1.53332-10.77478 4.84221-10.77478 9.92669 0 7.6267-1.47071 28.10231 3.2079 30.53907 4.67862 2.43676 6.19109 4.71376 9.85039 8.95919 2.43953 2.83028 5.75654 7.91694 9.95103 15.25996 4.98985-6.60083 8.34674-10.27234 10.07066-11.01453 1.72392-.7422 3.69738-1.58537 5.92038-2.52953m21.8495 3.59275c2.17322 3.73385 3.71284 5.96096 4.61888 6.68134.90605.72038 1.85931 1.46383 2.8598 2.23036m-78.7051-12.89125c1.24109 11.88199 1.24109 19.6273 0 23.23595-1.24108 3.60864 2.21777 8.72543 10.37656 15.35035m-2.6085-10.52254c16.31131 14.10904 27.14519 21.38887 32.50164 21.83949 5.35645.45061 10.31955.22582 14.8893-.6744m-14.8893 4.26873c2.08715 3.90325 2.60893 6.51388 1.56536 7.83188M41.29248 178c-3.39694.9067-5.84637 1.56385-7.34828 1.97144-.554.15034-2.0961 1.29791-2.62633 1.44272C21.31529 184.1459 15.54267 185.8927 14 186.65455m117.49443 20.87247c16.64008 6.38941 27.70768 12.33238 33.2028 17.8289 5.49512 5.49652 9.41419 9.11591 11.75722 10.85818"/><path fill="#D04D0B" d="M45.02099 62.18562c0-5.04703 1.52727-5.25985 1.53234-7.52754.01106-4.93955 3.42968-11.84989 7.84614-20.2908 6.34827-12.13305 21.94322-19.79977 28.38696-21.29022 50.91246-11.77617 71.7307 17.4286 73.2604 19.06652 1.52972 1.63793 3.72499 2.2237 6.49545 5.07031 1.88674 1.9386 5.8398 23.47822 3.77834 24.97173-6.95965 5.04225-25.34461-5.59134-52.3575 0-47.50896 9.8338-59.51091 25.55881-63.13098 25.55881-5.23107 0-5.81115-15.6243-5.81115-25.5588z"/><path stroke="#FFF" stroke-linecap="round" stroke-linejoin="round" stroke-width="2" d="M75.7977 45.40774c4.28254-2.04616 8.7366-3.94147 13.36217-5.68592 18.30068-6.90178 30.4108-9.55313 36.33038-7.95404"/></g></svg>