<svg xmlns="http://www.w3.org/2000/svg" width="240" height="241"><g fill="none" fill-rule="evenodd"><path stroke="#0E718C" stroke-linecap="round" stroke-linejoin="round" stroke-width="2" d="M88.435523 181.65741v-24.738945l-5.8869961-16.528272c-1.035643 1.846423-2.5838917 2.769635-4.644746 2.769635-3.0912815 0-4.8472962-5.440168-4.8472962-6.678072 0-1.237903-6.5520215-14.734876-6.5520215-20.604486 0-5.86961-.1779537-6.800499.5487551-7.753685.4844725-.635458 1.7981737-1.792677 3.9411035-3.471657-1.2346354-3.967214-1.8519531-7.4647979-1.8519531-10.4927513 0-4.54193 2.1240566-17.2186561.3562083-18.2861814-1.7678484-1.0675253-.0346314-6.0613121 1.4957448-8.1556847 1.0202508-1.3962484 3.3234038-4.9526927 6.9094591-10.6693329C90.512115 46.2496486 99.4572634 39.8361863 104.739226 37.8075906c5.281963-2.0285957 9.650514-5.0478313 13.105653-9.0577069.831109 1.056175 3.064739 1.056175 6.700892 0 5.454229-1.5842626 9.066681-2.4334991 10.956048 0 1.889368 2.433499 23.338096 8.2231546 23.338096 11.576048 0 3.3528934 9.915101 8.1954178 9.915101 10.7692325 0 2.5738148.62 9.0642333 2.473473 10.6134169 1.853473 1.5491836 6.465945 6.6388921 6.465945 10.9584956 0 4.3196035 1.063789 8.4279177 0 11.7808111-1.063789 3.3528934-2.218946 11.8884952-2.218946 11.8884952m2.218946 21.933307c0 2.73031-2.218946 7.940892-2.218946 10.586496 0 2.645604 1.269367 20.578177-2.139815 28.062279-3.409183 7.484101-12.407338 22.076296-16.996967 24.738945-4.58963 2.662648-6.088235 5.41349-11.120022 6.536015-5.031788 1.122526-10.200849 1.3175-16.546652 0-6.345802-1.317499-15.189178-5.426629-17.306966-7.633339m52.873742-7.444076c-1.711526 14.325258-1.711526 23.135781 0 26.431569"/><path stroke="#0E718C" stroke-linecap="round" stroke-linejoin="round" stroke-width="2" d="M126.360902 127.744265c-1.474947 1.72621-1.474947 3.26642 0 4.62063 2.21242 2.031315 7.488128.87371 9.635285 3.015157 2.147157 2.141446 5.317314 4.574129 8.320234 1.562236 2.001947-2.007929 3.910893-3.306007 5.72684-3.894235 2.127183-.963758 2.875276-2.209319 2.244278-3.736681-.630999-1.527361-1.832234-2.448603-3.603707-2.763725m-33.325359 20.652547c3.43394 1.775021 6.73268 2.366695 9.896219 1.775021 4.745308-.88751 10.573535 0 13.62469 0 3.051155 0 11.571515-.776572 13.62469-.776572 1.368783 0 3.416128-.758558 6.142034-2.275675m-23.802242 7.910282h7.555673m-32.435156-8.610824c3.651517-6.113172 6.237-9.525551 7.756447-10.237137m44.705679 10.937679c.573529-2.326724.291366-4.453462-.846488-6.380214-1.137854-1.926753-2.115825-3.445908-2.933913-4.557465m-81.8963117-30.931516l16.1436185-2.922868c8.9061352-2.8899967 16.8579662-4.1371133 23.8554932-3.7413494 10.49629.5936459 16.023706 2.5496691 16.023706 6.6642174 0 4.114549-1.877972 13.743492-5.165311 15.344859C124.319962 121 106.573302 125.297427 101.403652 121c-3.4464331-2.864952-5.2342079-8.513694-5.3633242-16.946227l-1.8290605-1.844838m38.5613447 1.252376c.858847-.681345 2.302465-1.022018 4.330854-1.022018s3.793745.539475 5.296071 1.618425m35.162376-5.6066998c-.79968-1.3871461-2.600208-2.2847807-5.401586-2.6929041-4.202066-.612185-26.189054.798365-27.317178 3.2179158-1.128125 2.4195511-2.443612 3.3977851-2.443612 5.0816881s.281309 10.714122 5.192922 13.828202c4.911613 3.11408 16.353071 1.879156 20.46047 1.879156 4.107398 0 8.261736-3.361496 8.88536-6.018505.623624-2.657009 1.22894-11.489513 1.22894-13.1300273 0-1.0936758.480757-2.0132682 1.44227-2.758777"/><path stroke="#0E718C" stroke-linecap="round" stroke-linejoin="round" stroke-width="2" d="M102.616189 110.086778c4.401526-5.098323 8.648954-7.647485 12.742284-7.647485s7.392069 1.053837 9.896219 3.16151m40.602733.662233c-3.981043-4.520619-7.747112-6.4829873-11.298206-5.8871062-3.551094.5958811-5.896094 1.5597162-7.035 2.8915042m17.270955-1.471487c-2.379843-2.9852634-5.511901-4.477895-9.396173-4.477895"/><path fill="#0E718C" d="M110.522132 104.442081l.842934 3.368971 5.757383.35727c.39892-1.105806.598379-2.067358.598379-2.884656 0-.817299-.199459-1.765423-.598379-2.844373-1.633542-.539475-3.001492-.539475-4.103848 0-1.102357.539475-1.934513 1.207071-2.496469 2.002788zM151 101.795947v3.374301c.944379.355941 1.84872.575748 2.713021.659423.864301.083676 2.23041.083676 4.098326 0V101h-4.098326c-.611967 0-1.516307.265316-2.713021.795947z"/><path stroke="#0E718C" stroke-linecap="round" stroke-linejoin="round" stroke-width="2" d="M167.813304 93.0369204c-1.663394-2.2376761-3.932989-3.3565141-6.808786-3.3565141-2.875797 0-7.36923 1.118838-13.480299 3.3565141m-26.440993 0c-4.648878-1.7190034-8.888936-1.7190034-12.720177 0-3.83124 1.7190034-6.427595 3.1460473-7.789064 4.2811316m-22.0981861 33.930331v-4.700736c0-2.461428-.5753349-5.220747-1.7260046-8.277957l-1.2180291 4.585814"/><path stroke="#0E718C" stroke-linecap="round" stroke-linejoin="round" stroke-width="2" d="M82.9729108 116.620754c1.8952576-12.415277 2.8428863-20.7063056 2.8428863-24.8730862 0-6.2501709-4.7374265-16.2587377 0-20.4961663 4.7374265-4.2374286 6.761091-10.3500287 9.7452967-10.3500287 2.9842057 0 9.0091962 1.0050173 14.4032872-1.8357169 5.394092-2.8407343 38.94955-3.2984081 40.744621 0 1.79507 3.2984081 7.853514 13.2244788 12.005811 13.2244788 2.768198 0 5.279504.4662821 7.533919 1.3988464m0 4.9476121c.139645 3.3760278.5373 6.0606535 1.192965 8.0538774M82.9729108 186.331795c-5.9691287 2.800417-7.9588383 6.022806-5.9691287 9.667165C79.9883464 201.465499 99.9029126 227.365847 130 227.365847c20.064725 0 34.545993-6.073355 43.443806-18.220066 1.098543-3.844171 1.647814-6.404914 1.647814-7.682229 0-1.277316-3.078065-3.765371-9.234195-7.464165M3.326261 220.416989c13.465481-10.081075 25.3441536-16.079578 35.6360178-17.995511 10.2918642-1.915933 18.873177-5.122 25.7439384-9.618201 2.7729667-1.563986 4.9696201-2.795115 6.5899602-3.693386 2.4305103-1.347408 15.2009108-5.192092 15.2009108-5.192092m78.2980858 6.305698c4.813891.925908 8.24604 2.250953 10.296446 3.975133 2.050406 1.724181 4.415367 3.507163 7.094883 5.348949 21.454689 8.257109 34.622494 13.379285 39.503417 15.366527 4.880924 1.987242 9.462657 5.543337 13.745201 10.668285"/><path fill="#D04D0B" d="M179.44412093 52.24533961c-1.50481224-1.78892047-4.33768866-5.37079408-8.49862924-10.74562085-8.21590504-13.78839053-15.95756723-21.77472161-23.22498486-23.95899242-23.77967946-7.14714165-53.10820767 1.43040633-55.62111452 2.91497874-5.49731623 3.24770029-10.77021333 9.62467227-12.08943452 15.4798618-1.31922204 5.85518901-5.36328655 14.33325408-6.32729907 16.30977265-.96401257 1.97651866-3.7093055 1.97651854-4.22109033 5.31763067-.63886035 4.17069848-2.4646943 14.51069396-2.97648015 18.78048476-.21817193 1.82019421 25.44300375.5036114 63.00284219-3.34039654 37.55983826-3.84400803 43.70850747 5.51468779 50.12142576 5.51468784 2.91074148-3e-8 2.09198314-23.5890258-.16523526-26.27240665z"/><path stroke="#FFF" stroke-linecap="round" stroke-linejoin="round" stroke-width="2" d="M173.75875245 53.28153558c-1.59469897-3.9819504-13.84691252-6.76969684-36.75664048-8.36323902-9.51226938-.66164917-45.84501798 2.73471515-55.59295504 6.07703775"/></g></svg>