<svg xmlns="http://www.w3.org/2000/svg" width="240" height="240"><g fill="none" fill-rule="evenodd"><path stroke="#0E718C" stroke-linecap="round" stroke-linejoin="round" stroke-width="2" d="M90.7104 120c7.14092-6.42553 14.30822-8.56737 21.50193-6.42553 7.19371 2.14184 9.7896 3.0789 7.78767 2.81117M145.89864 120c7.04492-4.81915 12.27125-7.22872 15.679-7.22872s6.24097 1.20479 8.49969 3.61436m-48.56747 12.16846c-2.67678-3.31375-4.83033-5.24122-6.46064-5.78241-2.44547-.81179-4.37506-1.85627-7.95441 0-3.57936 1.85626-7.45948 4.81948-9.07408 4.81948"/><path fill="#0E718C" stroke="#0E718C" stroke-linecap="round" stroke-linejoin="round" stroke-width="2" d="M108.23318 128.5541h4.53667c1.14224-.87474 1.71336-1.8212 1.71336-2.8394v-3.08741c-1.85514-.59462-3.10525-.89193-3.75032-.89193-.6366 0-3.11641.36567-4.13488 1.52116-.52955.60079-.1807 1.76624 0 2.45819.35215 1.34849.8972 2.29495 1.63517 2.83939z"/><path stroke="#0E718C" stroke-linecap="round" stroke-linejoin="round" stroke-width="2" d="M65.24255 230.9558c-10.301-37.3038-14.59236-66.49427-12.87408-87.57143 2.5774-31.61574 15.4587-79.97168 33.39112-88.57936 17.93244-8.60769 41.79867-15.25711 48.65112-11.9324 6.85245 3.32471 16.06345 11.9324 19.33633 11.9324 3.27288 0 11.05694 12.03175 15.29167 15.17791 4.23472 3.14617 17.68909 33.45737 14.67683 47.9283-3.01226 14.47092-11.71353 49.92398-17.77404 60.76638-4.04034 7.22826-10.15413 13.1203-18.34136 17.67613 16.39942 2.71948 26.11726 5.0449 29.15352 6.97628 4.55438 2.89707 17.71357 20.34137 17.71357 27.6258"/><path stroke="#0E718C" stroke-linecap="round" stroke-linejoin="round" stroke-width="2" d="M144.97121 128.5541c2.74222-4.85971 5.87966-7.28956 9.41232-7.28956 3.53266 0 6.85026 1.62696 9.95278 4.88088"/><path fill="#0E718C" d="M147.7064 125.14473l1.0336 2.71296h5.91376c.7461-.79562 1.11916-1.69994 1.11916-2.71296 0-1.01303-.52883-2.14948-1.58647-3.40937-1.75056-.13017-2.97826.14504-3.6831.82565-.70483.6806-1.63715 1.54184-2.79694 2.58372z"/><path stroke="#0E718C" stroke-linecap="round" stroke-linejoin="round" stroke-width="2" d="M162.09656 124.28857l-2.37046 2.18666m-41.98451 2.46886l3.36568-1.0864m23.44166 16.14598c2.3454 3.13482 3.1272 5.42151 2.3454 6.8601-.7818 1.43858-2.35024 2.66215-4.70531 3.6707"/><path stroke="#0E718C" stroke-linecap="round" stroke-linejoin="round" stroke-width="2" d="M143.4198 151.59902c-1.57308 3.33665-3.70706 5.00498-6.40196 5.00498-4.04235 0-5.39237-4.06892-7.42452-4.06892-1.35476 0-2.25045.18474-2.68707.55422m-5.39639-6.28055c-1.59964 3.19351-1.2764 5.62443.96974 7.29276 2.24612 1.66832 3.72167 2.3021 4.42665 1.9013m-11.4854 13.64359c2.27565.96221 5.03838.59737 8.28818-1.09454 3.2498-1.6919 6.24873-2.96985 8.99676-3.83382l3.73744 1.29843c1.37062-1.64103 2.87603-2.46155 4.51624-2.46155 2.46032 0 5.61226 2.46155 8.19622 2.46155 1.72265 0 2.80473-.16888 3.24624-.50664-3.71375 7.35315-7.82005 11.46727-12.31889 12.34237-6.74827 1.31264-7.5765 1.5465-10.37665.53074-2.80014-1.01576-6.42435-3.81343-9.19458-5.11712"/><path stroke="#0E718C" stroke-linecap="round" stroke-linejoin="round" stroke-width="2" d="M126.90625 170.22008c2.44858.70964 5.20084 1.06446 8.25677 1.06446 3.05594 0 5.8082-.79515 8.25677-2.38544m3.76771 30.97645c-1.82942 11.54096-2.34711 19.2648-1.55306 23.17153m-15.74182-9.22581c-1.09417 3.25474.24543 6.33 4.01877 9.2258 3.77335 2.8958 5.4169 4.87635 4.93064 5.94165m-42.23161-43.08577c.40201 13.5564 3.6376 22.8625 9.70673 27.91832 6.06914 5.05581 11.70796 10.76733 16.91646 17.13454m-42.4874-76.42134c.02304 1.37968-1.02242 2.06952-3.13637 2.06952m95.14012-47.3262c-.66945-19.05816-5.01074-29.49802-13.02386-31.31957-3.6837-.83738-7.75216-7.99418-16.3063-8.40045-19.35752-.91934-43.2872 8.40045-51.44676 10.59533-9.06689 2.43896-3.81604 18.36994-8.30543 25.49406-4.4894 7.12412-9.21142 9.11448-6.05777 36.76023m-4.11337 6.86168c2.05891-.29504 3.08837.4366 3.08837 2.19494 0 2.6375-2.6229 5.57295-4.34656 4.10522-1.14911-.97848-.72971-3.07853 1.2582-6.30016z"/><path stroke="#0E718C" stroke-linecap="round" stroke-linejoin="round" stroke-width="2" d="M80.74658 163.55492c5.08372 11.92923 11.39689 19.37857 18.9395 22.34803 11.31392 4.4542 16.67014 8.99308 20.82573 11.04034 4.1556 2.04726 15.32856 2.04726 21.6772 0 6.34865-2.04726 6.8787-4.15154 12.46475-11.04033 5.58606-6.8888 11.75363-14.75462 13.5886-22.34804 1.83497-7.59343 4.5076-20.93682 4.5076-29.55492 0-5.7454.50283-11.61685 1.50847-17.61436"/><path fill="#D04D0B" d="M170 66.7611c-6.81597-14.36663-11.37001-21.97664-13.66214-22.83002-2.29212-.85339-6.70786-2.63315-13.2472-5.3393C118.5148 27.12025 102.20981 21.93466 94.17569 23.035c-26.2884 3.60047-35.27664 27.44913-37.00136 29.64145-2.51537 3.19732-3.48045 6.53191-2.89524 10.00376-1.9753 1.354-2.46912 3.78327-1.48147 7.28782 1.48147 5.25682 1.48147 6.38187 1.48147 8.36104 0 1.97917-3.91626 4.05065-1.48147 13.29538 2.43479 9.24472 5.3117 16.87803 43.3625 8.96198 38.0508-7.91604 45.90138-10.58154 58.18778-19.22668 8.19093-5.76343 12.7015-9.56067 13.53172-11.39172L170 66.7611z"/><path stroke="#FFF" stroke-linecap="round" stroke-linejoin="round" stroke-width="2" d="M149.342 48c-10.8234 10.0936-25.77667 17.28422-44.8598 21.57187C85.3991 73.85953 71.5717 76.00223 63.00003 76"/><path stroke="#0E718C" stroke-linecap="round" stroke-linejoin="round" stroke-width="2" d="M56.96508 215.94536c-7.97862 5.7923-12.86433 10.14008-14.65713 13.04336"/></g></svg>