<svg xmlns="http://www.w3.org/2000/svg" width="240" height="241"><g fill="none" fill-rule="evenodd"><path stroke="#0E718C" stroke-linecap="round" stroke-linejoin="round" stroke-width="2" d="M140.7399 145.99833c-2.14369.50868-4.0685.50868-5.77442 0-2.5589-.76304-11.52156-1.84832-12.94516-1.30568-1.4236.54265-5.00441-.75454-6.7166-.75454-1.7122 0-6.86304-.46632-9.10697.75455-1.49595.8139-2.78727 1.24913-3.87396 1.30567M115.649 140.921l4.351 1.231 3.817-1.231m-12.58855-14.64992c1.41228-1.95876 2.8859-2.71047 4.42085-2.25514m10.91526.8555c1.29304 0 2.16743.52222 2.62316 1.56667m2.63995-24.25954c2.10023-3.37081 5.07098-4.80796 8.91223-4.31143 3.84125.49652 6.32768 1.93366 7.45928 4.31143"/><path stroke="#0E718C" stroke-linecap="round" stroke-linejoin="round" stroke-width="2" d="M150.43626 101.5801c-1.51417-3.52092-4.98845-5.28138-10.42283-5.28138-5.43438 0-8.79198 1.22544-10.07278 3.67632m22.21763-3.67632c-6.7869-1.86454-10.83518-3.25337-12.14485-4.1665-1.96451-1.36968-5.51476-3.79728-6.85026-2.58348-.89033.8092-1.65046 1.34629-2.28038 1.61126M85.1184 99.97504c7.15444-4.65028 12.88923-6.5971 17.20439-5.84047 2.03903.35753 3.6209.2257 4.74563-.39549m1.56027 8.14484c-2.34235-2.47992-5.02383-3.71987-8.04445-3.71987-3.02063 0-6.09 2-9.20813 6"/><path stroke="#0E718C" stroke-linecap="round" stroke-linejoin="round" stroke-width="2" d="M88.4681 104.16405c3.19274-3.65206 7.35102-5.7829 12.47485-6.39254 5.12383-.60963 8.18925.12488 9.19627 2.20353"/><path fill="#0E718C" d="M95.29877 99.6328c.20077 1.26131.406 2.18772.61572 2.77923.2097.5915.53996 1.1755.99075 1.75202h5.27465c.49872-.78214.86308-1.55118 1.09308-2.30712.23-.75595.44712-1.89806.65137-3.42634-2.22945-.3554-3.76968-.44424-4.62068-.26654-.851.1777-2.18597.66728-4.00489 1.46876zm41.49057-1.21562c-.087 1.30767-.087 2.28886 0 2.94357.087.65471.32698 1.47924.7199 2.47359l4.89728.28055c.7353-.7112 1.24286-1.44978 1.52271-2.21576.27985-.76598.46617-1.92663.55895-3.48195-1.96866-.43044-3.3229-.64567-4.06276-.64567-.73985 0-1.95188.21523-3.63608.64567z"/><path stroke="#0E718C" stroke-linecap="round" stroke-linejoin="round" stroke-width="2" d="M73.80235 107.42982c-3.11074.2122-4.66611 3.00812-4.66611 8.3878 0 8.0695 4.66611 13.23835 4.66611 14.61365 0 1.3753 1.4151 6.41379 3.38391 6.41379m52.9156 51.18828c1.18079 3.15394.87607 5.46116-.91414 6.92166-1.7902 1.4605-2.6853 2.57629-2.6853 3.34737m-50.02979-74.41525c2.71753 12.66488 4.37265 20.64816 4.96534 23.94984.88903 4.9525 11.81493 23.72886 13.8608 23.72886 2.04587 0 13.5795 6.52668 20.35053 6.52668s12.82664 2.08503 16.95072 1.04252m13.80881-7.08222c5.45512-4.20338 9.12508-8.14404 11.0099-11.82197 1.88481-3.67793 4.2171-15.4644 6.99684-35.3594"/><path stroke="#0E718C" stroke-linecap="round" stroke-linejoin="round" stroke-width="2" d="M163.07362 136.84506c2.949-2.31337 4.63566-4.51439 5.05998-6.60306.63648-3.13301 2.10406-12.11434 2.10406-15.25295 0-3.1386 2.99043-12.81048-.62808-13.40895-2.41234-.39898-4.14367 1.55093-5.194 5.84972m0-3.26577c-1.87951-6.48561-3.09217-11.4673-3.63798-14.94504-.8187-5.21663-3.27528-12.98398-3.27528-15.7798 0-2.79582-6.18831-14.01272-8.6409-15.08973m-74.03505 49.7418l2.3599 1.6728c-.95152-.42278-1.1894-2.95129-.71364-7.5855.47576-4.63423 2.52998-8.95409 6.16266-12.95957l.8311-4.26346-2.16687-2.1014 2.16686-4.87555-3.07314-2.07132m66.01559-20.21562l-5.8027-3.47211c-.61888 2.89976-1.42061 4.34964-2.40519 4.34964-1.47685 0-2.18632-2.17482-3.89362-2.17482h-7.8049c-4.06926 0-10.33498-1.65953-10.33498-.82977 0 .82977-2.95741 4.78488-6.02822 4.78488h-14.0458c-2.71588.67761-4.66574 1.65585-5.84957 2.9347-1.77576 1.91829-8.70283 6.38647-8.70283 7.67181v5.6801"/><path stroke="#0E718C" stroke-linecap="round" stroke-linejoin="round" stroke-width="2" d="M111.22845 53.80434c-5.57555.77403-8.84044 1.94025-9.79469 3.49864-.95424 1.5584-2.73435 3.0929-5.34035 4.60353m-15.88244-4.9207c-4.09282 7.15562-6.13924 12.32371-6.13924 15.50428 0 3.18056-.80147 4.97906-2.4044 5.39551l.64174 3.37116-2.35747 3.56984.87386 1.59753-.87386 4.61681-.81536 4.29508 1.68922 1.52104-.87386 3.11798 1.71572.88905v3.2508l.64175 1.7075"/><path stroke="#0E718C" stroke-linecap="round" stroke-linejoin="round" stroke-width="2" d="M167.23606 101.11962l1.21692-2.95557-.60846-1.86533.60846-2.55964-.60846-3.8037.60846-2.96764-1.21692-2.1693 1.87275-2.12322-2.80422-3.49034v-3.2776c-2.15398-3.98717-3.23097-6.32325-3.23097-7.00823 0-1.02748-1.07307-9.97051-2.75936-9.97051-1.68628 0-4.34972-3.8167-4.90206-4.47045-.36823-.43584-2.23507-1.436-5.60053-3.0005-5.46078-7.49811-9.8233-11.89147-13.08758-13.18008-4.89642-1.93292-5.12832-3.35679-9.40335-3.35679-4.27502 0-5.72876-1.15761-10.07334-1.15761s-9.19265.6123-10.80384 0c-1.61119-.6123-3.31386 3.69173-6.832 3.69173-3.51815 0-10.30908 2.2683-11.14347 5.12073-.83438 2.85244-4.53242 5.98734-6.92707 7.43468-1.59643.9649-2.03978 3.29008-1.33005 6.97556m35.55154-13.97757c3.5763 4.87965 6.48748 7.31947 8.73356 7.31947m-12.10963 112.1418c4.27543-4.04 8.71322-5.22004 13.31336-3.5401m-20.39355-13.81417c5.76019 2.1806 9.20787 3.2709 10.34305 3.2709m5.88204-15.85325c1.0209 3.91516 1.0209 5.87274 0 5.87274m-14.46292-11.29664c.0631 2.594 1.0867 3.89101 3.0708 3.89101m19.80143.85293c1.6708.04308 2.78618-.6071 3.34616-1.9505m-17.6375-28.73838c.2281 6.7525-.11708 11.04006-1.03557 12.8627-.91849 1.82263-1.66092 3.14215-2.2273 3.95857"/><path stroke="#0E718C" stroke-linecap="round" stroke-linejoin="round" stroke-width="2" d="M98.62483 77.36832c4.64932-3.20616 10.32414-4.1169 17.02447-2.73223 10.0505 2.077 13-2.73222 17.63751 0m-25.38644-4.0885c4.24585-1.193 7.9601-1.193 11.14275 0 4.77398 1.78947 6.04551-1.50984 10.1446-1.50984M115.71738 121c1.25313 4 3.15206 6 5.6968 6 2.54473 0 4.2408-1.4124 5.08823-4.23718M84.2308 155.85854c1.51144 14.30841 2.26717 22.83841 2.26717 25.59v6.5848m71.68107-29.84402c-.68344 12.14384-1.60572 19.62767-2.76684 22.45148"/><path stroke="#0E718C" stroke-linecap="round" stroke-linejoin="round" stroke-width="2" d="M156.79562 172.0528c6.19794 4.91257 9.2969 8.80413 9.2969 11.6747 0 4.30584-9.9187 37.04765-37.43842 36.21914-18.34648-.55233-32.77639-10.47029-43.28972-29.75386m0-20.77772c-10.30986 4.78468-16.54572 8.12197-18.70757 10.01186-3.24277 2.83484-31.37289 9.42785-34.11704 12.411-2.74415 2.98314-17.11569 6.36776-20.43755 10.37997-2.21458 2.6748-4.89225 6.6827-8.033 12.0237m154.10982-44.82653c14.09167 7.34971 25.01158 12.29018 32.75974 14.82142 11.62223 3.79686 36.8354 9.47605 36.8354 11.77097"/><path fill="#D04D0B" d="M67.777 64.0075c.3133-2.98087 3.52203-7.00348 3.66694-8.34239.31565-2.91644 7.89465-17.35503 12.0224-21.96162 5.9333-6.62156 27.01625-11.89898 32.48945-11.89898 34.78695 0 45.22838 26.47039 46.37492 27.56897 1.14655 1.09858.9306 2.51202 3.01455 4.43088 1.41922 1.30678 4.59532 25.34116 2.8205 26.04646-.71759.28516-2.44183 1.0715-2.8205.41968-7.15853-12.32249-11.0133-33.14937-45.6121-33.14937-34.49214 0-42.54693 20.29044-46.57194 35.54724-.57696 2.18695-2.43571 1.2808-4.02502 1.2808-4.24978 0-1.9759-14.07416-1.3592-19.94167z"/><path stroke="#FFF" stroke-linecap="round" stroke-linejoin="round" stroke-width="2" d="M91.3839 34.81068c7.45626-2.87451 14.14126-7.29573 20.49843-8.29655 8.0548-1.26807 18.22588 1.0417 30.51325 6.92929"/><path stroke="#0E718C" stroke-linecap="round" stroke-linejoin="round" stroke-width="2" d="M135.31274 146.75069l-4.42995 1.63544"/></g></svg>