<svg xmlns="http://www.w3.org/2000/svg" width="240" height="240"><g fill="none" fill-rule="evenodd"><path stroke="#0E718C" stroke-linecap="round" stroke-linejoin="round" stroke-width="2" d="M90.7104041 120c7.1409113-6.425529 14.3082209-8.567372 21.5019279-6.425529 7.193708 2.141843 9.789597 3.078899 7.787668 2.811169M145.898638 120c7.044919-4.819146 12.271252-7.22872 15.678999-7.22872 3.407748 0 6.240978 1.204787 8.499691 3.61436m-48.567466 12.168456c-2.676784-3.313745-4.830332-5.241214-6.460644-5.782407-2.445468-.811789-4.375057-1.856266-7.954411 0-3.579354 1.856266-7.4594809 4.819483-9.0740807 4.819483"/><path fill="#0E718C" stroke="#0E718C" stroke-linecap="round" stroke-linejoin="round" stroke-width="2" d="M108.233183 128.554096h4.536666c1.142241-.874734 1.713361-1.821197 1.713361-2.839391v-3.087417c-1.855143-.59462-3.105249-.89193-3.750316-.89193-.636601 0-3.116416.365677-4.134887 1.52116-.529549.600788-.180695 1.766245 0 2.458187.35215 1.348493.897208 2.294957 1.635176 2.839391z"/><path stroke="#0E718C" stroke-linecap="round" stroke-linejoin="round" stroke-width="2" d="M65.2425528 230.955806c-10.3009973-37.303798-14.5923596-66.494277-12.8740868-87.571437 2.5774091-31.615739 15.4586955-79.9716787 33.3911278-88.5793614 17.9324322-8.6076827 41.7986652-15.2571104 48.6511182-11.9323966 6.852453 3.3247139 16.063451 11.9323966 19.336328 11.9323966 3.272878 0 11.056942 12.0317492 15.291668 15.1779163 4.234727 3.146167 17.68909 33.4573631 14.676833 47.9282911-3.012256 14.470929-11.713532 49.923984-17.774044 60.766381-4.04034 7.228265-10.154128 13.120309-18.341362 17.676132 16.399426 2.719478 26.117267 5.044906 29.153522 6.976283 4.554383 2.897066 17.713568 20.341374 17.713568 27.625795"/><path stroke="#0E718C" stroke-linecap="round" stroke-linejoin="round" stroke-width="2" d="M144.971211 128.554096c2.742219-4.859707 5.879659-7.28956 9.412321-7.28956 3.532663 0 6.850256 1.62696 9.952782 4.880879"/><path fill="#0E718C" d="M147.706408 125.144727l1.033598 2.712964h5.913757c.746102-.795618 1.119154-1.699939 1.119154-2.712964 0-1.013024-.528822-2.149481-1.586467-3.409369-1.750556-.130169-2.978255.145047-3.683094.825648-.70484.680601-1.637156 1.541841-2.796948 2.583721z"/><path stroke="#0E718C" stroke-linecap="round" stroke-linejoin="round" stroke-width="2" d="M162.096563 124.288575l-2.370466 2.186657m-41.984509 2.468862l3.365686-1.086403m23.441657 16.145979c2.345396 3.134815 3.127195 5.421514 2.345396 6.860098-.781798 1.438584-2.350236 2.662152-4.705311 3.670705"/><path stroke="#0E718C" stroke-linecap="round" stroke-linejoin="round" stroke-width="2" d="M143.419792 151.599021c-1.573071 3.336649-3.707056 5.004974-6.401955 5.004974-4.042348 0-5.392371-4.068916-7.424512-4.068916-1.354761 0-2.250452.18474-2.687073.55422m-5.39639-6.280545c-1.599638 3.193511-1.276393 5.624429.969733 7.292754 2.246127 1.668325 3.721679 2.302094 4.426657 1.901309m-11.485397 13.643582c2.275646.962213 5.038371.597367 8.288177-1.094539 3.249806-1.691906 6.248727-2.969846 8.996762-3.833821l3.737434 1.298433c1.370619-1.641036 2.876034-2.461554 4.516246-2.461554 2.460318 0 5.612252 2.461554 8.19622 2.461554 1.722646 0 2.804724-.168882 3.246236-.506645-3.71375 7.35315-7.820046 11.467273-12.31889 12.342368-6.748265 1.312644-7.576506 1.546504-10.376647.530742s-6.424355-3.813431-9.19458-5.117115"/><path stroke="#0E718C" stroke-linecap="round" stroke-linejoin="round" stroke-width="2" d="M126.906252 170.220081c2.448579.70964 5.200835 1.06446 8.25677 1.06446s5.808192-.795148 8.25677-2.385444m3.76771 30.976451c-1.829427 11.540962-2.347113 19.264805-1.553058 23.171528m-15.741826-9.225808c-1.094165 3.254738.245427 6.330007 4.018775 9.225808 3.773347 2.895801 5.416892 4.876348 4.930633 5.941639m-42.2316084-43.08576c.4020162 13.556393 3.6375934 22.862498 9.7067314 27.918313 6.069137 5.055816 11.707959 10.767329 16.916464 17.134538m-42.4874005-76.421333c.0230333 1.379681-1.0224238 2.069522-3.1363716 2.069522m95.1401231-47.326206c-.669452-19.0581604-5.010741-29.4980166-13.023867-31.319569-3.683701-.8373828-7.752156-7.9941841-16.306305-8.4004468-19.357512-.9193476-43.287195 8.4004468-51.4467512 10.5953311-9.0668905 2.438953-3.816041 18.3699358-8.3054344 25.4940557-4.4893935 7.12412-9.211412 9.11448-6.0577655 36.760233m-4.1133686 6.861679c2.0589102-.295041 3.0883653.436605 3.0883653 2.194937 0 2.637499-2.6229001 5.572951-4.3465608 4.105225-1.1491072-.978484-.7297087-3.078538 1.2581955-6.300162z"/><path stroke="#0E718C" stroke-linecap="round" stroke-linejoin="round" stroke-width="2" d="M80.7465849 163.554918c5.0837197 11.929227 11.3968854 19.378572 18.9394973 22.348037C111 190.357151 116.356225 194.896028 120.511813 196.943288c4.155588 2.04726 15.328556 2.04726 21.677203 0 6.348646-2.04726 6.878693-4.151542 12.464747-11.040333 5.586053-6.888792 11.753631-14.75461 13.588598-22.348037 1.834967-7.593426 4.507603-20.936821 4.507603-29.554918 0-5.745398.502823-11.616851 1.508469-17.61436"/><path fill="#D04D0B" d="M170 66.7611046c-6.8159654-14.3666329-11.3700109-21.9766415-13.6621367-22.8300258-2.2921259-.8533844-6.7078602-2.6331482-13.247203-5.3392916C118.514798 27.1202424 102.209808 21.9346475 94.175688 23.0350024 67.88729 26.6354677 58.899053 50.4841263 57.174332 52.6764459c-2.515372 3.1973271-3.480451 6.5319148-2.895238 10.0037631-1.975302 1.3539939-2.469127 3.7832663-1.481476 7.287817 1.481476 5.2568262 1.481476 6.3818696 1.481476 8.3610403 0 1.9791706-3.916267 4.0506581-1.481476 13.2953816 2.43479 9.2447231 5.311707 16.8780301 43.362501 8.9619861 38.0507934-7.916044 45.9013785-10.5815399 58.1877791-19.2266849 8.1909338-5.76343 12.7015087-9.560671 13.5317248-11.3917231L170 66.7611046z"/><path stroke="#FFF" stroke-linecap="round" stroke-linejoin="round" stroke-width="2" d="M149.342 48c-10.8234074 10.0935984-25.7766714 17.2842231-44.859792 21.5718741C85.399087 73.859525 71.571691 76.0022337 63.000019 76"/><path stroke="#0E718C" stroke-linecap="round" stroke-linejoin="round" stroke-width="2" d="M56.9650817 215.945362c-7.9786223 5.792289-12.8643316 10.140074-14.6571278 13.043353"/></g></svg>