<svg xmlns="http://www.w3.org/2000/svg" width="240" height="240"><g fill="none" fill-rule="evenodd"><path stroke="#0E718C" stroke-linecap="round" stroke-linejoin="round" stroke-width="2" d="M131.80619 207.70364c-4.04538 2.2972-22.29496-.54246-26.52042-4.09809-2.81698-2.37041-5.53268-6.7623-8.14712-13.17565m-17.63099-36.90546c-1.27672 6.80671-1.27672 11.6803 0 14.62075 1.91508 4.41067 7.61491 16.46335 9.86308 19.37403m-7.78036-13.05487c0 8.05025-1.01342 13.3721-3.04026 15.96555-3.04025 3.89017 7.65664 33.62874 9.23863 35.69901"/><path stroke="#0E718C" stroke-linecap="round" stroke-linejoin="round" stroke-width="2" d="M128.88965 222.62233c.73597-8.82476 2.38214-14.37623 4.9385-16.65441 3.83454-3.41727 8.54902-10.18958 12.23569-12.8638 3.68666-2.67422 14.54973-11.26644 16.896-15.59512 2.34625-4.32869 8.16322-20.06803 8.16322-23.98456 0-3.91653-1.37774-7.11272 0-10.51388s6.00364-6.66323 7.96118-8.91066c1.95753-2.24743-.4634-8.78255 2.5344-12.39967 2.9978-3.61712 9.68006-14.33598 9.68006-19.72322 0-5.38725 1.265-15.88795 0-22.7298-.84334-4.56124-4.07003-9.83477-9.68006-15.8206m-41.7744-13.06146c1.61102-2.83405.93728-5.74937-2.02123-8.74595m8.66396 8.74595c1.53684.52953 3.06783-1.51854 4.59296-6.1442m-16.28473 6.1442c-7.6237-.1064-14.39796.78404-20.32278 2.6713-8.88724 2.83088-14.52558 4.57685-17.33377 9.8704-2.8082 5.29354-20.18515 22.6317-20.18515 28.06067 0 3.61932.5322 12.13394 1.59662 25.54385-2.09662-.31724-3.59296.84563-4.489 3.48863-1.34407 3.9645-2.418 19.61965-2.418 24.13135 0 4.5117.47218 7.3521 2.418 8.3726 1.29721.68033 3.13298.20473 5.5073-1.4268"/><path stroke="#0E718C" stroke-linecap="round" stroke-linejoin="round" stroke-width="2" d="M178.21381 118.3386c1.45095-16.48653-.58857-27.20783-6.11857-32.16389-8.295-7.4341-20.2591-14.02924-26.29714-14.02924-6.03805 0-36.70853 6.13541-37.64777 12.49996-.93924 6.36455-8.21081 19.2159-11.01168 21.4831-1.86725 1.51147-6.25999 5.58149-13.17822 12.21007l-1.06144 5.69325L80.99594 120m-2.98671 11.85979l-1.28707 5.76499c2.10542-2.16276 3.15812-1.58565 3.15812 1.73133"/><path stroke="#0E718C" stroke-linecap="round" stroke-linejoin="round" stroke-width="2" d="M87.78875 117.4938c8.5051-.7472 15.78058-.7472 21.82644 0 6.04586.7472 13.86428 4.08076 23.45527 10.0007 2.57686 2.9102 4.66617 4.36529 6.26792 4.36529 2.40263 0 23.52262-2.52086 29.74222 0 4.1464 1.68057 9.8272 4.6403 17.04242 8.87918-3.4324 9.32958-6.75474 14.62215-9.96703 15.8777-4.81844 1.88333-28.374-3.94289-30.8308-7.77596-.78346-1.22233-1.30103-2.96282-1.55272-5.22147-.183-1.64216-.66372-4.7217-1.44215-9.2386l-7.53512-1.26683-7.01462 10.50543c-7.84624 1.20276-13.90138 1.20276-18.1654 0-6.39602-1.80414-14.2408-6.71774-16.13245-9.2386-1.2611-1.68057-1.2611-6.47411 0-14.38064"/><path stroke="#0E718C" stroke-linecap="round" stroke-linejoin="round" stroke-width="2" d="M122.1989 130.98294c-1.92004-4.63406-4.49553-6.9511-7.72648-6.9511-4.84642 0-7.03319 3.47555-11.25326 3.47555"/><path fill="#0E718C" d="M110.72693 126.04912c-.24632 1.19041-.24632 2.00716 0 2.45023.24632.44307.56776 1.00832.96434 1.69576l4.37576.45536c.8853-.77278 1.50649-1.48982 1.86354-2.15112.35706-.6613.71153-1.47805 1.06341-2.45023-1.16027-1.34485-2.66746-2.01727-4.52156-2.01727-1.8541 0-3.1026.67242-3.7455 2.01727z"/><path stroke="#0E718C" stroke-linecap="round" stroke-linejoin="round" stroke-width="2" d="M151.07993 139.3561c4.03504-2.39848 7.1335-3.19798 9.29536-2.39848 3.24278 1.19924 5.23735 6.79784 6.64374 6.79784"/><path fill="#0E718C" d="M153.91683 138.13393v2.5148l5.64397 2.58629c.61066-.22448 1.20397-.78533 1.77994-1.68255.57596-.89722.9392-2.03674 1.0897-3.41854-1.18493-1.18396-2.60386-1.676-4.2568-1.47613-1.65295.19988-3.07189.69192-4.25681 1.47613z"/><path stroke="#0E718C" stroke-linecap="round" stroke-linejoin="round" stroke-width="2" d="M103.21916 166.95828h12.31329c4.46755 0 9.90252 2.92888 14.58264 4.50056 3.12007 1.04779 9.20509 2.61584 18.25504 4.70417m-41.61632-5.64118c7.89006 7.72392 14.53615 11.8768 19.93824 12.45865 5.4021.58185 10.2176-.6562 14.44652-3.71415m-24.659 3.85367c6.63407 4.06534 12.40242 5.22219 17.30506 3.47054m8.1272-32.3338c3.81138 4.3101 4.63535 7.04014 2.4719 8.19011-3.24516 1.72496-4.25907.3466-5.84346 1.03578-1.58439.68918-6.8463 1.83248-8.24845 0-.93478-1.22166-3.04999-2.18575-6.34563-2.89228-5.82165-1.58121-7.93476-3.69242-6.33933-6.33362"/><path stroke="#0E718C" stroke-linecap="round" stroke-linejoin="round" stroke-width="2" d="M111.46942 152.80426c-3.91864 4.2394-6.66873 6.93314-8.25026 8.0812-1.58154 1.14807-2.19443 5.38211-1.83868 12.70212m49.69945-5.68732c.60082 3.96263 2.07928 6.44006 4.43539 7.4323m-83.8722-4.81073c-6.0631 3.94252-2.5611 9.55001-10.05495 14.72904-1.76414 1.2192-4.10949 4.39034-7.89464 5.17903-4.62274.9632-15.09113.9632-31.4052 0m123.27046 9.05128c19.19137 6.03419 30.22716 9.05128 33.10738 9.05128 4.32033 0 7.66956.35784 10.61982 3.04826 2.95026 2.69043 13.26375 12.60686 13.26375 19.41928"/><path fill="#D04D0B" d="M194.97872 83.78254c-.80076-1.32899.7505-20.9923-5.20873-31.50747-7.5083-13.24854-24.3168-17.83766-30.03372-20.59254-22.36886-10.77911-44.43134 6.12128-47.14555 7.19447-3.95846 1.56516-6.82056 4.08418-8.58632 7.55706-2.37128.17619-4.29657 2.1232-5.77585 5.84101-2.21894 5.57673-2.93594 6.60071-4.19728 8.4021-1.26134 1.80137-5.57203 1.59279-9.60452 11.3089-4.03248 9.71612-6.70038 18.20198 27.40078 31.34242 34.10116 13.14044 41.79473 14.91201 56.68644 13.61288 5.26363-.45918 18.74787-.42054 23.34736-5.13853 1.21583-1.24716 4.2874-26.07845 3.11739-28.0203z"/><path stroke="#FFF" stroke-linecap="round" stroke-linejoin="round" stroke-width="2" d="M186.23824 90.72065c-14.65546 2.06014-31.02883-.62649-49.1201-8.05988-10.62499-4.36562-19.34066-8.2975-26.14702-11.79563"/><path stroke="#0E718C" stroke-linecap="round" stroke-linejoin="round" stroke-width="2" d="M106.37595 112.76143c4.31995-.18416 8.52596.46513 12.61803 1.94786 4.09208 1.48275 6.35897 3.81218 6.80066 6.98832m44.31038 7.92912c-4.17782-1.41289-7.42107-2.11934-9.72973-2.11934-2.30867 0-4.26199.35323-5.85997 1.05967"/></g></svg>