<svg xmlns="http://www.w3.org/2000/svg" width="240" height="240"><g fill="none" fill-rule="evenodd"><path stroke="#0E718C" stroke-linecap="round" stroke-linejoin="round" stroke-width="2" d="M131.80619 207.703637c-4.045376 2.297212-22.294956-.542458-26.52042-4.098084-2.816976-2.370418-5.5326826-6.762303-8.147121-13.175657M79.5076611 153.52444c-1.2767166 6.806715-1.2767166 11.680298 0 14.620748 1.915075 4.410675 7.6149118 16.463349 9.8630751 19.374028m-7.7803579-13.054866c0 8.050245-1.0134182 13.372093-3.0402546 15.965546-3.0402546 3.890179 7.6566393 33.628745 9.2386259 35.699017"/><path stroke="#0E718C" stroke-linecap="round" stroke-linejoin="round" stroke-width="2" d="M128.889654 222.622335c.735967-8.824767 2.382131-14.376239 4.938492-16.654417 3.834542-3.417267 8.549023-10.189575 12.235689-12.863799 3.686666-2.674223 14.549738-11.266438 16.895997-15.595122 2.34626-4.328684 8.163227-20.068023 8.163227-23.984557 0-3.916533-1.377741-7.112717 0-10.513878s6.003643-6.663231 7.961177-8.910662c1.957535-2.247431-.463395-8.782551 2.5344-12.399671s9.680059-14.335975 9.680059-19.723222c0-5.3872461 1.265004-15.8879474 0-22.7298014-.843335-4.561236-4.070022-9.8347687-9.680059-15.8205979m-41.774402-13.0614551c1.611025-2.8340571.937284-5.7493731-2.021224-8.745948m8.663957 8.745948c1.536843.529525 3.067829-1.5185412 4.592959-6.1441987M134.7952 50.3651526c-7.623696-.1063931-14.397956.7840387-20.32278 2.6712952-8.887236 2.8308849-14.5255801 4.5768534-17.333771 9.8703957-2.8081909 5.2935423-20.1851531 22.6317053-20.1851531 28.0606791 0 3.6193159.5322092 12.1339324 1.5966278 25.5438494-2.0966264-.317247-3.5929617.84563-4.4890059 3.488628-1.3440663 3.964498-2.4180017 19.619649-2.4180017 24.131349 0 4.5117.4721802 7.352102 2.4180017 8.372597 1.2972144.680329 3.1329825.204733 5.5073045-1.42679"/><path stroke="#0E718C" stroke-linecap="round" stroke-linejoin="round" stroke-width="2" d="M178.213814 118.338599c1.450948-16.48653-.588578-27.2078265-6.118576-32.1638881-8.294998-7.4340924-20.259092-14.0292415-26.297142-14.0292415-6.038049 0-36.70853 6.135414-37.647766 12.4999634-.939236 6.3645495-8.2108107 19.2159032-11.011681 21.4830992-1.8672468 1.511465-6.2599865 5.581487-13.1782191 12.210067l-1.0614401 5.693248L80.9959438 120M78.00923 131.859789l-1.2870658 5.764991c2.1054111-2.162756 3.1581166-1.585647 3.1581166 1.731327"/><path stroke="#0E718C" stroke-linecap="round" stroke-linejoin="round" stroke-width="2" d="M87.7887496 117.493799c8.5050996-.747191 15.7805784-.747191 21.8264364 0 6.045859.747192 13.864284 4.080759 23.455276 10.000703 2.576859 2.910192 4.666165 4.365287 6.267917 4.365287 2.402628 0 23.522625-2.520856 29.742226 0 4.146401 1.680571 9.827204 4.640299 17.04241 8.879184-3.432396 9.32958-6.754739 14.622146-9.967028 15.877698-4.818434 1.883329-28.374002-3.942887-30.830803-7.775965-.783449-1.22233-1.301021-2.962818-1.552717-5.221464-.182997-1.642165-.663714-4.721697-1.44215-9.238596l-7.535117-1.266834-7.01462 10.50543c-7.846244 1.202759-13.901375 1.202759-18.165394 0-6.396028-1.804138-14.2408071-6.71774-16.132456-9.238596-1.2610993-1.680571-1.2610993-6.47412 0-14.380646"/><path stroke="#0E718C" stroke-linecap="round" stroke-linejoin="round" stroke-width="2" d="M122.198892 130.982942c-1.920034-4.634063-4.495525-6.951095-7.726472-6.951095-4.846421 0-7.033187 3.475548-11.253262 3.475548"/><path fill="#0E718C" d="M110.726926 126.049119c-.246321 1.190414-.246321 2.007157 0 2.450228.246322.443072.567768 1.008326.96434 1.695764l4.375766.45536c.885305-.772781 1.506485-1.489822 1.863539-2.151124.357054-.661301.711525-1.478044 1.063413-2.450228-1.160274-1.344848-2.667462-2.017272-4.521564-2.017272-1.854103 0-3.1026.672424-3.745494 2.017272z"/><path stroke="#0E718C" stroke-linecap="round" stroke-linejoin="round" stroke-width="2" d="M151.079926 139.356107c4.035049-2.398491 7.133503-3.197988 9.295361-2.398491 3.242786 1.199245 5.237355 6.797846 6.643745 6.797846"/><path fill="#0E718C" d="M153.916829 138.133932v2.514806l5.643974 2.586282c.610659-.224478 1.20397-.785329 1.779933-1.682552s.939197-2.036735 1.089703-3.418536c-1.184926-1.183959-2.603861-1.676002-4.256805-1.476128-1.652944.199875-3.071879.691917-4.256805 1.476128z"/><path stroke="#0E718C" stroke-linecap="round" stroke-linejoin="round" stroke-width="2" d="M103.219158 166.958279h12.31329c4.467552 0 9.902527 2.928881 14.58264 4.50056 3.120075 1.047786 9.205088 2.615843 18.255038 4.70417m-41.616317-5.641181c7.890065 7.72392 14.536147 11.876804 19.938245 12.458653 5.402098.581849 10.217604-.656201 14.44652-3.71415M116.479573 183.12c6.634071 4.06534 12.402422 5.222186 17.305053 3.470538m8.127204-32.333804c3.811379 4.310106 4.635347 7.040145 2.471906 8.190117-3.245162 1.724958-4.259078.346593-5.843466 1.035775-1.584388.689183-6.846292 1.832482-8.248454 0-.934775-1.221654-3.049983-2.185747-6.345625-2.892278-5.82165-1.581211-7.934761-3.692416-6.339333-6.333614"/><path stroke="#0E718C" stroke-linecap="round" stroke-linejoin="round" stroke-width="2" d="M111.469417 152.804256c-3.918639 4.239409-6.668726 6.933146-8.250259 8.081211-1.581533 1.148065-2.194427 5.382104-1.838683 12.702116m49.699451-5.687327c.60082 3.962632 2.079283 6.440066 4.435391 7.432303m-83.8722009-4.810731c-6.0630997 3.942522-2.5610871 9.550015-10.0549487 14.729041-1.764141 1.219203-4.1094827 4.390346-7.8946369 5.179027-4.6227355.963201-15.0911343.963201-31.4051965 0m123.270453 9.051283c19.191369 6.034189 30.227164 9.051284 33.107383 9.051284 4.320329 0 7.669556.357835 10.619817 3.04826 2.950261 2.690425 13.263754 12.606858 13.263754 19.419277"/><path fill="#D04D0B" d="M194.9787157 83.782542c-.80075156-1.32899238.75050482-20.99229812-5.2087258-31.50746868-7.50830505-13.24854211-24.31679253-17.83766738-30.03372269-20.5925434-22.36885292-10.77910983-44.43133714 6.12127944-47.14554423 7.19446907-3.95845822 1.56516393-6.82056498 4.08418408-8.5863202 7.55706037-2.37128262.17618923-4.29656862 2.12319385-5.77585716 5.84101434-2.2189336 5.57673012-2.93593184 6.60070974-4.19727145 8.40208939-1.2613396 1.80137965-5.57203848 1.59279505-9.60452116 11.30891322-4.03248262 9.71611808-6.70038352 18.20197483 27.40077513 31.3424121 34.10115807 13.1404381 41.79473242 14.91201513 56.68644102 13.61288654 5.26363032-.45918995 18.74787537-.42054105 23.3473609-5.1385378 1.2158342-1.24716156 4.28739904-26.07844561 3.11738565-28.02029514z"/><path stroke="#FFF" stroke-linecap="round" stroke-linejoin="round" stroke-width="2" d="M186.23824213 90.7206459c-14.65546623 2.06014063-31.0288359-.62648432-49.120109-8.05987486-10.62498303-4.36562117-19.34065382-8.2974972-26.1470107-11.79562706"/><path stroke="#0E718C" stroke-linecap="round" stroke-linejoin="round" stroke-width="2" d="M106.375952 112.761431c4.319944-.184164 8.525955.465124 12.618032 1.947864 4.092077 1.48274 6.358963 3.81218 6.800658 6.988318m44.31038 7.92912c-4.177826-1.412892-7.421072-2.119338-9.729735-2.119338-2.308664 0-4.261987.353223-5.85997 1.059669"/></g></svg>