<svg xmlns="http://www.w3.org/2000/svg" width="240" height="241"><g fill="none" fill-rule="evenodd"><path stroke="#0E718C" stroke-linecap="round" stroke-linejoin="round" stroke-width="2" d="M88.43552 181.65741v-24.73895l-5.887-16.52827c-1.03564 1.84643-2.58388 2.76964-4.64474 2.76964-3.09128 0-4.8473-5.44017-4.8473-6.67807 0-1.2379-6.55202-14.73488-6.55202-20.60449 0-5.86961-.17795-6.8005.54876-7.75368.48447-.63546 1.79817-1.79268 3.9411-3.47166-1.23463-3.96722-1.85195-7.4648-1.85195-10.49275 0-4.54193 2.12406-17.21866.3562-18.28618-1.76784-1.06753-.03462-6.06132 1.49575-8.15569 1.02025-1.39625 3.3234-4.9527 6.90946-10.66933 12.60833-10.79833 21.55348-17.2118 26.83545-19.24039 5.28196-2.0286 9.65051-5.04783 13.10565-9.0577.8311 1.05617 3.06474 1.05617 6.7009 0 5.45422-1.58427 9.06667-2.4335 10.95604 0 1.88937 2.4335 23.3381 8.22315 23.3381 11.57604 0 3.3529 9.9151 8.19542 9.9151 10.76923 0 2.57382.62 9.06424 2.47347 10.61342 1.85347 1.54918 6.46594 6.6389 6.46594 10.9585 0 4.3196 1.0638 8.42791 0 11.7808-1.06379 3.3529-2.21894 11.8885-2.21894 11.8885m2.21894 21.93331c0 2.73031-2.21894 7.9409-2.21894 10.5865 0 2.6456 1.26936 20.57817-2.13982 28.06227-3.40918 7.4841-12.40733 22.0763-16.99696 24.73895-4.58963 2.66265-6.08824 5.41349-11.12003 6.53601-5.03178 1.12253-10.20085 1.3175-16.54665 0-6.3458-1.3175-15.18918-5.42662-17.30696-7.63333m52.87374-7.44408c-1.71153 14.32526-1.71153 23.13578 0 26.43157"/><path stroke="#0E718C" stroke-linecap="round" stroke-linejoin="round" stroke-width="2" d="M126.3609 127.74426c-1.47495 1.72621-1.47495 3.26642 0 4.62063 2.21242 2.03132 7.48813.87372 9.63529 3.01516 2.14715 2.14145 5.31731 4.57413 8.32023 1.56224 2.00195-2.00793 3.9109-3.306 5.72684-3.89424 2.12718-.96375 2.87528-2.20932 2.24428-3.73668-.631-1.52736-1.83223-2.4486-3.6037-2.76372m-33.32537 20.65254c3.43394 1.77502 6.73268 2.3667 9.89622 1.77502 4.74531-.8875 10.57354 0 13.6247 0 3.05115 0 11.5715-.77657 13.62468-.77657 1.36878 0 3.41613-.75856 6.14204-2.27567m-23.80225 7.91028h7.55568m-32.43516-8.61082c3.65152-6.11318 6.237-9.52555 7.75645-10.23714m44.70568 10.93768c.57353-2.32673.29136-4.45346-.8465-6.38022-1.13784-1.92675-2.11582-3.4459-2.9339-4.55746m-81.89632-30.93152l16.14362-2.92287c8.90614-2.89 16.85797-4.1371 23.8555-3.74134 10.49629.59364 16.0237 2.54966 16.0237 6.66421 0 4.11455-1.87797 13.7435-5.1653 15.34486-3.28735 1.60137-21.034 5.8988-26.20366 1.60137-3.44643-2.86495-5.2342-8.5137-5.36332-16.94623l-1.82906-1.84484m38.56134 1.25238c.85885-.68134 2.30247-1.02202 4.33086-1.02202 2.02839 0 3.79374.53948 5.29607 1.61843m35.16237-5.6067c-.79968-1.38715-2.6002-2.28478-5.40158-2.6929-4.20207-.6122-26.18906.79836-27.31718 3.21791-1.12813 2.41955-2.44361 3.39778-2.44361 5.08169 0 1.6839.2813 10.71412 5.19292 13.8282 4.91161 3.11408 16.35307 1.87916 20.46047 1.87916 4.1074 0 8.26173-3.3615 8.88536-6.0185.62362-2.65702 1.22894-11.48952 1.22894-13.13004 0-1.09367.48076-2.01326 1.44227-2.75877"/><path stroke="#0E718C" stroke-linecap="round" stroke-linejoin="round" stroke-width="2" d="M102.61619 110.08678c4.40152-5.09833 8.64895-7.64749 12.74228-7.64749s7.39207 1.05384 9.89622 3.16151m40.60274.66224c-3.98105-4.52062-7.74712-6.483-11.29821-5.88711-3.5511.59588-5.8961 1.55972-7.035 2.8915m17.27095-1.47148c-2.37984-2.98527-5.5119-4.4779-9.39617-4.4779"/><path fill="#0E718C" d="M110.52213 104.44208l.84294 3.36897 5.75738.35727c.39892-1.1058.59838-2.06736.59838-2.88465 0-.8173-.19946-1.76543-.59838-2.84438-1.63354-.53947-3.0015-.53947-4.10385 0-1.10236.53948-1.93451 1.20707-2.49647 2.0028zM151 101.79595v3.3743c.94438.35594 1.84872.57575 2.71302.65942.8643.08368 2.23041.08368 4.09833 0V101h-4.09833c-.61197 0-1.5163.26532-2.71302.79595z"/><path stroke="#0E718C" stroke-linecap="round" stroke-linejoin="round" stroke-width="2" d="M167.8133 93.03692c-1.66339-2.23768-3.93299-3.35651-6.80878-3.35651-2.8758 0-7.36923 1.11883-13.4803 3.35651m-26.441 0c-4.64887-1.719-8.88893-1.719-12.72017 0-3.83124 1.719-6.4276 3.14605-7.78907 4.28113M78.4758 131.24838v-4.70073c0-2.46143-.57534-5.22075-1.726-8.27796l-1.21803 4.58581"/><path stroke="#0E718C" stroke-linecap="round" stroke-linejoin="round" stroke-width="2" d="M82.97291 116.62075c1.89526-12.41527 2.84289-20.7063 2.84289-24.87308 0-6.25017-4.73743-16.25874 0-20.49617 4.73742-4.23743 6.76109-10.35003 9.7453-10.35003 2.9842 0 9.00919 1.00502 14.40328-1.83571 5.3941-2.84074 38.94955-3.29841 40.74462 0 1.79507 3.2984 7.85352 13.22447 12.00581 13.22447 2.7682 0 5.2795.46629 7.53392 1.39885m0 4.94761c.13965 3.37603.5373 6.06066 1.19297 8.05388M82.9729 186.3318c-5.96913 2.80041-7.95884 6.0228-5.96913 9.66716C79.98835 201.4655 99.90291 227.36585 130 227.36585c20.06473 0 34.546-6.07336 43.4438-18.22007 1.09855-3.84417 1.64782-6.40491 1.64782-7.68223 0-1.27731-3.07807-3.76537-9.2342-7.46416M3.32627 220.41699c13.46548-10.08108 25.34415-16.07958 35.63602-17.99551 10.29186-1.91593 18.87318-5.122 25.74394-9.6182 2.77296-1.56399 4.96962-2.79512 6.58996-3.69339 2.4305-1.3474 15.2009-5.1921 15.2009-5.1921m78.2981 6.3057c4.81388.92592 8.24603 2.25096 10.29644 3.97514 2.0504 1.72418 4.41537 3.50716 7.09488 5.34895 21.4547 8.2571 34.6225 13.37928 39.50342 15.36653 4.88092 1.98724 9.46266 5.54333 13.7452 10.66828"/><path fill="#D04D0B" d="M179.44412 52.24534c-1.50481-1.78892-4.33769-5.3708-8.49863-10.74562-8.2159-13.7884-15.95757-21.77472-23.22498-23.959-23.77968-7.14714-53.10821 1.43041-55.62112 2.91499-5.49731 3.2477-10.77021 9.62467-12.08943 15.47986-1.31922 5.85519-5.36329 14.33325-6.3273 16.30977-.96401 1.97652-3.7093 1.97652-4.2211 5.31763-.63885 4.1707-2.46469 14.5107-2.97647 18.78048-.21817 1.8202 25.443.50362 63.00284-3.3404 37.55984-3.844 43.7085 5.5147 50.12143 5.5147 2.91074 0 2.09198-23.58903-.16524-26.27241z"/><path stroke="#FFF" stroke-linecap="round" stroke-linejoin="round" stroke-width="2" d="M173.75875 53.28154c-1.5947-3.98195-13.84691-6.7697-36.75664-8.36324-9.51227-.66165-45.84502 2.73471-55.59295 6.07703"/></g></svg>