<svg xmlns="http://www.w3.org/2000/svg" width="240" height="241"><g fill="none" fill-rule="evenodd"><path stroke="#0E718C" stroke-linecap="round" stroke-linejoin="round" stroke-width="2" d="M127.298329 183.158937c-18.80797-1.441568-29.7841135-4.044935-32.9284306-7.810101-3.1443171-3.765167-6.114835-7.778963-8.9115538-12.041388m56.3420784 17.463198c12.181875-3.822616 20.118223-8.227219 23.809042-13.213808 3.690819-4.986588 6.115317-15.509164 7.273496-31.567727m1.782166 9.867449c1.608608.471672 3.350462-.279044 5.225562-2.252147 2.812651-2.959656 5.212528-11.658306 5.212528-14.61434 0-2.956035 2.284011-12.533819 1.142005-15.788209-.761337-2.169593-2.223664-2.607229-4.386981-1.312908"/><path stroke="#0E718C" stroke-linecap="round" stroke-linejoin="round" stroke-width="2" d="M177.849273 129.922795c-1.933999 4.044211-2.417499 6.066316-1.450499 6.066316.966999 0 2.688818-2.470276 5.165457-7.410829m-29.053432-76.4863876c-13.49068-12.3701578-26.577518-16.2125683-39.260515-11.5272317-19.0244941 7.028005-31.8885312 14.7635175-36.4493118 27.6927294-4.5607806 12.9292118-12.8560713 47.9174209-14.2580515 64.0263049-1.4019802 16.108883-.5308117 32.543046-4.9931061 38.84906-4.4622943 6.306014-6.664475 22.259332-6.664475 27.459549 0 3.466811-1.9248261 14.13953-5.7744782 32.018156m37.1618888 7.637751c-11.1308729-13.705515-15.905523-23.995393-14.3239504-30.869634 2.3723591-10.311361 12.3911585-18.414749 12.3911585-25.47679"/><path stroke="#0E718C" stroke-linecap="round" stroke-linejoin="round" stroke-width="2" d="M101.534046 58.2834907c-5.7937892 11.7536534-8.6906839 22.4898573-8.6906839 32.2086118 0 14.5781315-1.3788069 35.8572055-4.3819122 41.7915945-3.0031053 5.934389-8.0321093 5.959735-13.4982491 11.343889-3.6440932 3.589436-4.3299276 6.705993-2.0575031 9.349672"/><path stroke="#0E718C" stroke-linecap="round" stroke-linejoin="round" stroke-width="2" d="M96.3570025 62.7226119c-4.2131821 6.4518123-6.3197732 11.8649331-6.3197732 16.2393623 0 6.5616438-5.9388634 39.0908008-7.7644791 44.3535548-1.8256157 5.262753-2.376704 17.53126-1.188352 22.677531 1.188352 5.146272 10.2698343 27.08842 7.3218904 31.498575-2.947944 4.410154-6.0010165 12.764827-4.4744802 18.780451 1.5265362 6.015625 12.4251941 23.856112 12.4251941 32.91612v5.728856"/><path stroke="#0E718C" stroke-linecap="round" stroke-linejoin="round" stroke-width="2" d="M104.247486 96.6750089c-3.371704-1.3483921-6.0018655-2.0225881-7.8904835-2.0225881-1.8886179 0-3.9452417.337098-6.1698714 1.011294m43.1434779 27.1564862c3.292046 3.838721 3.785926 6.99322 1.481638 9.463496m-11.274563-1.803659c.161456-1.333334 1.206596-2 3.135422-2 1.928826 0 2.88359.265073 2.864291.795221m-13.106307 2.01009c-.902171-1.355573-2.078663-1.902981-3.529476-1.642223-1.450812.260757-2.27432.90639-2.470524 1.936899m-4.537557-4.359397c-1.389817 3.363549-1.228216 5.830748.484804 7.401598m24.296637-27.227446c2.474023-4.883271 6.007236-7.1125261 10.599637-6.6877659 4.5924.4247599 8.79793 2.0658809 12.616589 4.9233609"/><path fill="#0E718C" d="M136.235431 102.130062c-.326314 1.157271-.326314 2.324042 0 3.500313.326314 1.17627.765697 1.95602 1.318149 2.33925l6.67103-.574845c.568259-.880332.997513-1.661978 1.287763-2.344937.29025-.682959.29025-1.92121 0-3.714754-2.098077-.4527068-3.949062-.6790602-5.552954-.6790602-1.603893 0-2.845222.4913442-3.723988 1.4740332z"/><path stroke="#0E718C" stroke-linecap="round" stroke-linejoin="round" stroke-width="2" d="M105.669042 111.89056c-2.284502-2.997186-4.76316-4.325535-7.435974-3.985045-2.6728138.34049-5.948407 2.379432-9.8267794 6.116826"/><path fill="#0E718C" d="M94.2238472 109.907975c.004804 1.29259.1820844 2.2179.5318414 2.775931.3497571.558031.7565413 1.004176 1.2203529 1.338435l5.5580045-.849132c.174379-.502783.373763-1.172685.598153-2.009704.336585-1.25553.039305-3.682719-2.8679457-3.19388-1.9381672.325892-3.6183025.972009-5.0404061 1.93835z"/><path stroke="#0E718C" stroke-linecap="round" stroke-linejoin="round" stroke-width="2" d="M101.534046 153.719376c1.006388-2.763189 2.893423-4.989423 5.661106-6.678701 4.151525-2.533918 4.796938-4.476255 7.174048-4.476255s2.170136.559968 4.291458.559968c2.121322 0 3.977021-1.629694 6.958834-1.629694 2.981812 0 11.645862 4.373977 13.443374 4.959979 1.797512.586002 7.157079 1.718722 7.157079 1.152362s-3.807773 4.628106-10.22925 5.370223c-6.421477.742118-4.46387 2.513605-13.042682 2.906442-8.578813.392838-9.201077-.860523-12.24638-.860523-2.030202 0-4.319352-.24593-6.867449-.73779"/><path stroke="#0E718C" stroke-linecap="round" stroke-linejoin="round" stroke-width="2" d="M106.378337 152.320503c2.350821-2.03527 5.321196-3.052905 8.911125-3.052905 5.384895 0 5.539473-.862685 10.697497-.862685 5.158025 0 7.588386-.217889 8.796061.322398m22.558672-95.7749908c13.151231 7.8627166 20.909019 15.6669927 23.273363 23.4128284 3.546517 11.6187535 7.471932 29.6554984 8.860388 32.5904554 1.388456 2.934956-1.840529 41.718316-2.910459 47.004325-1.06993 5.286008-12.959837 7.057051-15.454452 13.06255-1.663076 4.003666-6.25269 10.122827-13.76884 18.357482m28.139247-24.072513c3.019093 6.580949 10.336283 11.534768 21.95157 14.861456 17.42293 4.990033 23.306595 12.606051 27.074518 12.606051M126.537684 90.9457927c4.760553-5.5052883 10.00902-8.2579324 15.745403-8.2579324s10.404837 2.7526441 14.005363 8.2579324m1.053242 42.6157153c6.10516-9.203861 9.15774-16.42751 9.15774-21.670948m-58.755822 70.011229c4.06557 8.381112 6.756347 13.688567 8.07233 15.922365 1.315984 2.233798 2.90423 5.593394 4.764738 10.07879m2.367335 25.412999c.1638-12.248842 3.624666-20.719842 10.382596-25.412999 6.75793-4.693157 13.61146-10.081682 20.560591-16.165576m-8.161139-133.4538773c-7.803277-2.3418966-14.200736-3.1225288-19.192377-2.3418966-4.991641.7806322-11.711423 3.0409715-20.159347 6.7810178"/><path stroke="#0E718C" stroke-linecap="round" stroke-linejoin="round" stroke-width="2" d="M150.815321 62.7226119c6.708145 9.2724111 10.409893 15.6062163 11.105241 19.0014156 1.043023 5.092799 10.962399 15.5626255 10.962399 18.9320013"/><path fill="#D04D0B" d="M181.7248255 55.7965173c-.58721189-2.04785125-2.72692813-1.97351243-3.6162696-4.11050774-1.93718706-4.65485992-1.34469123-10.43167464-8.55053443-16.84961684-10.35775994-9.22522224-36.48486487-18.2330196-43.02041264-19.3535075-24.4734468-4.19585402-50.78295602 31.76756417-51.49890592 33.84683365-.71594993 2.07926957-6.69179733 2.13309769-7.88994332 12.58433268-.27211415 2.37360741.06365062 17.27790351 1.75025317 18.64507335 5.7396816 4.65261853 24.27198488-6.40522898 52.40673364-3.90737585 36.40213272 3.23184626 26.6600664.84360523 43.31676788 5.29173112 6.06042207 1.6184189 16.11223152 1.41960139 18.74420883-.2895186 2.19057578-1.42248828 1.15754099-16.09464173-1.6418976-25.85744428z"/><path stroke="#FFF" stroke-linecap="round" stroke-linejoin="round" stroke-width="2" d="M91.97799051 49.3235993c12.43092033-2.99370945 25.69630468-4.32603509 39.79615303-3.9969768 19.55354741.45633536 31.77507214 2.53458374 36.66457518 6.2347453"/><path stroke="#0E718C" stroke-linecap="round" stroke-linejoin="round" stroke-width="2" d="M74.9632008 116.248424c-5.9476697 17.369121-8.3841861 28.73331-7.3095494 34.092568 1.0746368 5.359258 2.7703833 10.844001 5.0872395 16.454231m-11.4038964 20.584738c1.1547568 6.120644.5090916 13.296041-1.9369956 21.526192m54.7621451-99.503277c.614975 3.603539.37129 6.740645-.731054 9.411317"/></g></svg>