<svg xmlns="http://www.w3.org/2000/svg" width="240" height="241"><g fill="none" fill-rule="evenodd"><path stroke="#0E718C" stroke-linecap="round" stroke-linejoin="round" stroke-width="2" d="M154.41021 92.29874c2.47636-5.43122 5.09936-7.67421 7.869-6.72896 2.76963.94524 4.8357 3.18823 6.1982 6.72896m-16.14795 15.91943c1.10094-.38588 2.05525-.2135 2.86292.51717 1.2115 1.09599 5.84688-3.84088 5.84688-4.6749 0-.834 2.7235-7.02516-.58537-7.78392m-51.19781-8.86179c-4.5183-2.70624-8.47042-4.05937-11.85639-4.05937-3.38597 0-5.88034 1.8246-7.4831 5.4738M93 89.4738C93.3426 85.8246 95.57177 84 99.6875 84"/><path fill="#0E718C" d="M97.06897 91.34194l4.38664-.96419c.52807-1.31696.82771-2.32666.89893-3.0291.07122-.70244-.01493-1.7985-.25845-3.28817-1.33467-.47008-2.45106-.70512-3.3492-.70512-.89813 0-2.42157.50397-4.57032 1.5119.24027 1.87187.53226 3.1925.87597 3.9619.34371.7694 1.01585 1.607 2.01643 2.51278zM64.46847 96l3.789-1.75208c.42126-.8136.66228-1.52823.72306-2.1439.06078-.61567-.01313-1.44434-.22173-2.486C67.61975 89.206 66.66698 89 65.90048 89c-.7665 0-2.06666.44171-3.90048 1.32514.20505 1.64064.45425 2.79813.74758 3.47249.29334.67435.86697 1.40848 1.7209 2.20237z"/><path stroke="#0E718C" stroke-linecap="round" stroke-linejoin="round" stroke-width="2" d="M60.80085 84.50639c-.59448 1.89484 1.5528 7.0717 6.44185 15.53059m-1.8339-14.61213c4.84296 1.96789 7.26443 3.94025 7.26443 5.91709 0 2.96525-11.10784 18.85565-9.98298 23.668.74991 3.20822 4.78963 5.68 12.11916 7.41531"/><path stroke="#0E718C" stroke-linecap="round" stroke-linejoin="round" stroke-width="2" d="M72.57432 119.26615c-.80542-1.72641-.06039-2.30188 2.2351-1.72641 3.44322.8632 5.51026 2.5896 8.15362 1.7264 1.76223-.57546 2.62535-1.5099 2.58936-2.80332m5.23564-39.30023c-3.27768 1.1259-8.66308 7.74553-8.66308 6.45716 0-3.75964 12.98202-9.39717 18.29744-8.98784 3.74705.28855 8.01138 1.72602 12.79299 4.3124m-49.56863 38.67463c-1.27603 4.80841-1.16714 8.43484.32668 10.87927 2.4169 3.95493 7.5396 11.31626 7.5396 14.39714 0 1.32368 1.39213 5.57646 2.07664 9.88054.9087 5.71378-1.32916 10.2792 5.31732 14.0656 4.43776 2.5281 11.57322 1.58778 21.4064-2.821"/><path stroke="#0E718C" stroke-linecap="round" stroke-linejoin="round" stroke-width="2" d="M84.0939 168.22352c12.18987 4.18577 18.28481 7.02829 18.28481 8.52756 0 2.24892 4.1425 24.4239 2.07125 27.5758-1.38083 2.10127-3.00204 4.06267-4.86363 5.8842m52.74313-87.78583c.81133 6.33482.81133 10.4144 0 12.23876-1.217 2.73653-7.90308 16.31569-7.90308 20.45744 0 4.14175-19.6457 19.9949-19.6457 22.62723 0 2.63234-7.60599 2.66331-11.5653 5.59979-2.63953 1.95764-4.7367 2.72643-6.2915 2.30637"/><path stroke="#0E718C" stroke-linecap="round" stroke-linejoin="round" stroke-width="2" d="M114.25029 164.92253c8.25476-2.44272 13.48164-4.27289 15.68063-5.4905 2.199-1.2176 6.26544-4.1173 12.19932-8.69911m-43.96256-25.86959c1.41865 0 3.82773 10.3646 6.86223 10.3646 3.0345 0 14.89372-5.1921 18.5328-8.99739 3.6391-3.80529 14.07972-9.11285 14.07972-14.00368 0-4.89083 2.05715-23.55812 1.02858-27.72047-.68572-2.7749-2.44671-7.93103-5.28298-15.4684v-6.76071l2.49435-2.5901V54.84l2.78863-3.50813c-.74814-7.58841-3.23146-11.77335-7.44995-12.55481-4.2185-.78146-7.29366-2.70391-9.2255-5.76734-5.67554-.65568-9.92203-.98352-12.73948-.98352-4.22617 0-21.69467-.21261-21.69467.98352 0 .79742-3.85177 3.7123-11.5553 8.74464-8.72426 7.80243-13.13797 14.6434-13.24113 20.52292-.10316 5.87951-.15474 11.90177-.15474 18.06676-.94446 1.16533-1.41669 2.25723-1.41669 3.27571m36.49747 50.08744c-10.45032-.44228-17.70927.23405-21.77685 2.02896-1.90193.83928-3.1741 2.09843-4.02432 3.43414"/><path stroke="#0E718C" stroke-linecap="round" stroke-linejoin="round" stroke-width="2" d="M172.83754 159.43204c-.08523-22.13202.88088-37.824 2.89832-47.07594 3.02615-13.87791 8.31173-34.18172 4.15586-52.29787-4.15586-18.11615-33.49553-41.92163-44.74093-41.92163-11.2454 0-48.50219 1.97938-51.0569 4.42139C81.5392 25 72.26053 33.66019 72.26053 38.92786c0 2.14237.20306 3.908.60918 5.2969m24.82132 195.64949c13.21479-23.83972 21.8918-35.75959 26.03104-35.75959 6.20886 0 13.16028-5.70327 15.23695-5.70327s25.96802-30.62916 32.00552-33.4304c4.025-1.8675 5.69512-4.53881 5.01037-8.01394"/><path stroke="#0E718C" stroke-linecap="round" stroke-linejoin="round" stroke-width="2" d="M173.23072 154.0957c5.46245-.62813 8.19367-.3066 8.19367.96458 0 .83704-.30606 2.68047-.9182 5.53028m.9182-1.15852c3.15669.93062 4.73503 2.23076 4.73503 3.9004v7.08059m-1.0496.78967c5.18594-.65046 8.13967-.23314 8.86122 1.25197 1.1709 2.40996-11.66983 7.55929-14.15666 16.76264-1.1123 4.11644-5.43032 9.013-6.58366 13.9058-.37714 1.59995.11394 3.9626 1.47325 7.08798-3.4529 5.04791-8.27183 6.8975-14.4568 5.54874-9.27745-2.02312-7.6886-9.31969-12.0661-12.63672-2.91833-2.21135-4.93528-3.37631-6.05083-3.49489"/><path stroke="#0E718C" stroke-linecap="round" stroke-linejoin="round" stroke-width="2" d="M192.4726 175.37745c4.41233 3.9877 10.80134 6.71606 19.16703 8.18512 8.3657 1.46906 16.67654 6.01355 24.93256 13.63346M101.8138 179c-16.51894 14.67602-24.77841 22.89244-24.77841 24.64927 0 2.63524 2.22598 8.7587 0 8.7587-1.484 0 .01727.40809 4.50379 1.22425"/><path stroke="#0E718C" stroke-linecap="round" stroke-linejoin="round" stroke-width="2" d="M87.5614 234.66305c3.00223-11.7398 3.00223-18.75007 0-21.03083-3.00222-2.28075-5.00962-3.8832-6.02221-4.80732m2.5547-15.27894c-28.75338 7.32445-44.59813 11.70204-47.53425 13.1328-2.93612 1.43076-9.31376 9.40295-19.13294 23.91655M87.5614 108.8933c2.18095 4.3518 4.386 7.3814 6.61517 9.08881 2.22917 1.7074 5.39791 3.18846 9.50622 4.44314m-31.79294 12.19138c1.41425-2.6491 5.48226-3.97366 12.20405-3.97366 6.72178 0 10.56451.66228 11.5282 1.98683m-16.7151 9.71337l11.00958-1.92074m-13.43446 9.486c-.30909.87729-.86666 2.27304-1.6727 4.18727M62.61023 90.87275c2.11022-.93262 3.65437-1.39894 4.63246-1.39894.97809 0 2.52714.46632 4.64715 1.39894m-10.6963-4.13584c3.29331-.73347 6.20359-.12295 8.73083 1.83158"/><path fill="#D04D0B" d="M188.1828 66.30261c0-5.86427-3.78695-6.11155-3.79228-8.74643-.0116-5.73939-3.6019-13.76867-8.24015-23.57636-6.66707-14.09769-23.04515-23.00583-29.81249-24.73763-53.46917-13.683-79.95963 22.83448-81.56616 24.73763-1.60652 1.90314-1.75605 0-4.66565 3.30754-1.98148 2.2525-6.13304 27.2799-3.96807 29.01525 7.30915 5.8587 29.08815-6.49672 57.45757 0 19.81444 4.5376 31.68658 8.3082 43.58463 15.27835.0238.01395 4.21857-2.41903 9.60392 0 5.38536 2.41904 5.1176 9.9576 6.05324 10.69072 4.07048 3.18945 6.59916 4.00484 7.85744 4.00484 5.49376 0 7.488-18.43078 7.488-29.97391z"/><path stroke="#FFF" stroke-linecap="round" stroke-linejoin="round" stroke-width="2" d="M146.77854 42.7859c-18.30068-6.90177-37.35436-9.90798-57.16103-9.01862"/><path stroke="#0E718C" stroke-linecap="round" stroke-linejoin="round" stroke-width="2" d="M149.84255 121c1.86783 1.06252 3.47435 1.32815 4.81958.79689 2.01783-.79689 3.9808-5.26252 7.5695-7.67824 3.58872-2.4157 11.35503-11.16476 10.54745-18.0495-.80759-6.88474-1.18231-14.67622-10.2238-15.3391-6.02766-.44192-11.28674 3.02884-15.77725 10.4123m-75.78455 31.2829c-.54435 2.87784-1.30556 4.5967-2.28365 5.15658-.97809.55987-2.04785.77112-3.20928.63375m13.40645-4.9668c1.44662.40115 3.40777.12664 5.88344-.82353 3.7135-1.42525 5.58746.82352 8.20956.82352 1.74807 0 2.86265.31463 3.34375.9439m3.24258 13.30087c1.00736 1.56722 1.04109 2.86364.10118 3.88926s-2.29505 3.18663-4.06541 6.48302m-20.8127-11.49266c-1.22668 2.31414-1.44826 3.98402-.66473 5.00964.78352 1.02562 1.71602 1.34574 2.7975.96037m7.84826.15788c.5087 1.75366 1.45367 2.63049 2.83494 2.63049M89.91658 96c1.16086 1.7976 3.0627 3.14325 5.70552 4.03698"/></g></svg>