<svg xmlns="http://www.w3.org/2000/svg" width="240" height="241"><g fill="none" fill-rule="evenodd"><path stroke="#0E718C" stroke-linecap="round" stroke-linejoin="round" stroke-width="2" d="M65.18154 89.561l-1.85228 6.94247c-2.94954 4.95498-4.4243 8.36848-4.4243 10.2405 0 1.87203.62161 4.7393 1.86484 8.60181-2.14663 5.42164-3.21995 9.57701-3.21995 12.46612v21.6306c0 4.3202 6.14466 21.13523 7.63169 25.12607.99135 2.66057 3.08654 7.13721 6.28556 13.42995 4.16344 7.13033 8.74629 10.6955 13.74853 10.6955 5.00224 0 10.3796-.56448 16.13209-1.69344m60.76815-113.3177c1.41673 5.63283 2.1251 9.20039 2.1251 10.70267 0 1.5023-.35418 2.94236-1.06255 4.3202 2.1251 9.9602 2.47928 16.6188 1.06255 19.97576-1.41673 3.35696-2.1251 5.68428-2.1251 6.98195 2.60164 9.44885 3.0975 15.27266 1.48757 17.47142-2.41488 3.29814-6.42499 9.12518-10.65888 10.18577-2.8226.70707-4.8536.21981-6.09302-1.46176"/><path stroke="#0E718C" stroke-linecap="round" stroke-linejoin="round" stroke-width="2" d="M154.1858 131.45358c-1.6779.2878-2.51684.98342-2.51684 2.08684 0 1.65514 2.51684 3.54945 1.25842 5.06677-1.25842 1.51731-4.6056 3.6703-2.46532 4.92555m3.72374 10.10186c1.78548 4.31111 2.38064 7.77355 1.78548 10.38732-.89274 3.92065-2.67821 5.44038-1.78548 8.3937m-4.4219-18.78102c-1.47398 6.53733-1.47398 11.30183 0 14.2935 1.47396 2.99168 3.24216 6.42417 5.30458 10.29747 1.33572 4.66435.52961 9.2093-2.41832 13.63483-4.42191 6.6383-21.44346 27.38079-27.0468 30.60833-5.60336 3.22753-6.80164 2.78036-10.4198 1.39018-3.61815-1.39019-15.18151-7.17976-16.80712-9.42088-1.08373-1.49409-2.27466-3.17844-3.57278-5.05306l-4.39676-10.69095m67.9157-19.54714c5.82771 4.08637 10.70913 6.60325 14.64425 7.55065 5.90268 1.42109 38.08663 5.34305 39.54389 6.6267M93.84816 208.40448c-12.54207 5.1986-21.72731 8.5432-27.55571 10.03377-5.8284 1.49058-11.03468 3.64912-15.61883 6.47564M63.25693 87.89666c-2.73213-9.15916-3.1131-15.42988-1.14292-18.81217 2.95529-5.07344 9.43009-6.6997 9.43009-10.3389m-5.33415 27.06053c2.89762-9.61465 8.12-16.16135 15.66713-19.6401 11.3207-5.2181 21.87333-7.75778 32.84485-4.78606 7.31434 1.98115 15.14228 7.54911 23.4838 16.70388 1.48094 12.4564 1.18195 19.566-.89697 21.32883-3.11837 2.64424 2.64687 8.64754 2.64687 9.6471 0 .99956 4.68019 13.96792 3.6129 18.18086-1.0673 4.21295-1.98927 12.70574-5.3628 14.49893-3.37352 1.79318-6.29658 1.1984-9.80294 1.79318-2.33758.39651-4.12182.97437-5.35272 1.73356-3.3136-6.68085-6.08965-10.43074-8.32814-11.24968-3.35774-1.22841-10.92048-3.89766-13.37421-2.56304-2.45374 1.33463-10.4417 4.51482-13.66265 4.51482-2.1473 0-5.18677-.6506-9.11838-1.95178-7.03285 5.18837-11.15176 8.3604-12.35674 9.51612-1.20498 1.1557-2.98303 2.63602-5.33415 4.44093"/><path stroke="#0E718C" stroke-linecap="round" stroke-linejoin="round" stroke-width="2" d="M133.84317 67.99615c-.57387 7.68688-.2659 12.22305.92394 13.60852 1.18983 1.38547 1.60237 2.74475 1.23762 4.07782m25.05549 36.8089c-6.57469-1.96186-10.34013-1.51227-11.29633 1.34876-1.4343 4.29154-5.29732 17.26613-4.10484 24.13352 1.1925 6.8674-6.57226 27.14208-8.0491 29.15765m-45.102 25.47438c5.14732 2.12232 7.72097 4.05524 7.72097 5.79878 0 1.74354 1.6039 3.04406 4.81171 3.90158M71.5441 154.89762c-.59035 12.79265.67138 19.18897 3.78519 19.18897 3.1138 0 5.42354-2.06094 6.9292-6.18282l15.25123-1.23564c-1.2557 4.94564.3415 7.41846 4.79158 7.41846 4.45007 0 9.52277-5.54691 15.21809-16.64074m-45.2585-10.40993c4.80347-3.11925 10.85214-4.67887 18.14601-4.67887 7.29388 0 15.72572.77981 25.29552 2.33944"/><path stroke="#0E718C" stroke-linecap="round" stroke-linejoin="round" stroke-width="2" d="M76.94897 151.62997c1.54056-1.61143 4.74223-2.41715 9.60501-2.41715 7.29418 0 7.16504-2.1769 14.79374-2.1769 3.83906 0 7.21834 2.0231 10.06474 3.2624.61625.2683 1.47609.2683 2.57952 0-3.50562 4.98904-6.4894 7.48356-8.95135 7.48356-3.69291 0-3.3242-.9897-12.53267 0s-9.93077 1.95901-11.49497 1.47436c-1.0428-.3231-2.01957-1.77598-2.9303-4.35862M66.20995 95.4427c11.0217-1.0798 16.53254.8334 16.53254 5.7396 0 4.90618-1.93117 12.25889-5.79352 22.05811m0 8.21317c-.14933-1.21993.32184-1.8299 1.41351-1.8299 1.09168 0 2.04722.80626 2.86662 2.41879m7.8204 0c-1.94786-1.01595-1.67756-2.1632.8109-3.44174 2.48848-1.27855 5.04199-1.27855 7.66055 0m2.6556-8.03903c2.80632 2.24006 3.86203 4.11977 3.16712 5.63912"/><path stroke="#0E718C" stroke-linecap="round" stroke-linejoin="round" stroke-width="2" d="M80 107.73134c-3.02385-2.12497-5.60356-2.83329-7.7391-2.12497-3.20334 1.06249-5.67889 2.84796-6.89648 6.42036"/><path fill="#0E718C" d="M75.6942 106c.54724 1.79588.08242 3.08079-1.39446 3.85471-1.47689.77393-3.24347.13148-5.29974-1.92735C71.06844 106.64246 72.46884 106 73.2012 106h2.493z"/><path stroke="#0E718C" stroke-linecap="round" stroke-linejoin="round" stroke-width="2" d="M101.86355 105.34076c2.08328-3.8127 4.48678-5.71905 7.21048-5.71905 4.08554 0 10.21101 4.49077 10.92597 5.71905"/><path fill="#0E718C" d="M114.99469 101.74085L113.99198 105c-1.5262-.22717-2.83822-.22717-3.93604 0s-2.4096-1.167-3.93534-4.18252c1.5147-1.59436 3.11843-1.99295 4.81116-1.19577 1.69274.79718 3.04704 1.50356 4.06292 2.11914z"/><path stroke="#0E718C" stroke-linecap="round" stroke-linejoin="round" stroke-width="2" d="M76.94897 96.49518c-.23532 2.1665-2.08399 3.64619-5.546 4.43904-5.19302 1.18928-5.63038-.93052-8.07877 3.1106-1.63227 2.69408-2.89798 3.66737-3.79715 2.91989m39.9379-14.28778c0 3.81825 13.09019 1.81439 17.48668 3.81825 2.931 1.3359 6.59577 4.1788 10.99432 8.5287-2.7656-8.11226-5.41425-12.56043-7.94595-13.34451-3.79754-1.17613-7.16883-3.0606-11.68497-2.11837-4.51614.94224-8.85008-.70231-8.85008 3.11593zm11.46682 100.6473c9.70696-4.53833 16.11975-8.18598 19.23838-10.94296"/><path fill="#D04D0B" d="M171.55067 72.679c.23488-2.07781-1.7258-2.77935-1.73052-5.04704-.01029-4.93955 1.36314-1.91468-2.74762-10.35559-5.90886-12.13305-25.6314-31.61812-31.62912-33.10857-47.38844-11.77617-68.655 25.74376-70.07883 27.38169-1.42383 1.63792-3.62909.47022-5.83738 5.72688-.92031 2.19073-4.46335 21.87712 0 23.92663 6.57447 3.0189 10.80553-10.19706 28.23958-10.19706 43.87573 0 65.63634 16.1355 74.99845 27.68033 3.78944 4.67293 7.66565-16.10164 8.78544-26.00727z"/><path stroke="#FFF" stroke-linecap="round" stroke-linejoin="round" stroke-width="2" d="M126.74888 47.94504c-18.83257-5.2805-32.02413-6.27434-39.57467-2.9815"/></g></svg>