<svg xmlns="http://www.w3.org/2000/svg" width="240" height="241"><g fill="none" fill-rule="evenodd"><path stroke="#0E718C" stroke-linecap="round" stroke-linejoin="round" stroke-width="2" d="M110.92864 168.67743c8.35988 2.3489 15.04756 2.72744 20.06305 1.13563 5.01548-1.59181 10.28012-4.61685 15.7939-9.07512m-37.74514-13.7952c4.18044-6.41594 7.65818-10.40052 10.43322-11.95374 4.16256-2.32983 6.86956-3.0192 9.03947-3.43267 2.16992-.41347 7.49555-1.1715 10.09524.43293 1.73313 1.06961 3.4909 1.72383 5.27329 1.96265-3.79801 2.50764-6.57471 4.36544-8.3301 5.5734-2.6331 1.81195-6.939 3.31195-10.2649 3.31195-2.21725 0-7.63266 1.3685-16.24622 4.10548z"/><path stroke="#0E718C" stroke-linecap="round" stroke-linejoin="round" stroke-width="2" d="M115.92211 142.11816c5.7007-3.22568 9.4554-4.83852 11.2641-4.83852 2.71305 0 3.61232-1.9061 7.63705-1.9061 2.68315 0 4.67299-.1992 5.9695-.59758M116.329 146.94274c-.22674 2.1843.3284 3.27644 1.66545 3.27644 2.00555 0 4.0218-2.24961 3.01368-3.27644m16.2436-5.41322c-.78275 2.46941-.05664 3.46424 2.17833 2.9845 2.23497-.47976 2.4211-1.73392.55839-3.76251m-28.1534-18.03687c.13834 1.51114.8541 2.26671 2.14729 2.26671 1.29318 0 1.93977-.75557 1.93977-2.2667m7.0634-2.92847c.84658.80921 1.63748 1.21382 2.3727 1.21382.73524 0 1.29135-.6507 1.66835-1.95212m-2.02053-17.56395c1.56533-3.3956 4.77373-5.09339 9.62522-5.09339 7.27724 0 5.70254 1.7095 8.07945 2.1281"/><path fill="#0E718C" d="M129.60757 97.77403c.1741.90159.3544 1.56825.54091 2 .18651.43176.5404 1.00172 1.06167 1.7099h5.49554c.74467-.78933 1.16756-1.63823 1.26868-2.5467.1011-.90846.2018-1.75736.30208-2.54669-1.91233-.2695-3.56813-.2695-4.9674 0-1.39926.26951-2.6331.73067-3.70148 1.38349z"/><path stroke="#0E718C" stroke-linecap="round" stroke-linejoin="round" stroke-width="2" d="M83.30976 118.584c2.37177-5.1802 5.20305-8.34778 8.49386-9.50276 4.93621-1.73247 6.64622-2.05028 7.88403-1.89137.82522.10594 1.75557.10594 2.79107 0"/><path fill="#0E718C" d="M87.8199 111.93706c.32417.76009.61498 1.29687.87245 1.61036.25747.31348.72998.7061 1.41752 1.17783l7.18149-3.32585c.08378-.81898.08378-1.44092 0-1.8658-.08378-.4249-.32346-1.01848-.71904-1.78074-2.30868.41595-3.89824.85874-4.7687 1.32838-.87045.46964-2.19836 1.42158-3.98371 2.85582z"/><path stroke="#0E718C" stroke-linecap="round" stroke-linejoin="round" stroke-width="2" d="M76.26376 109.83564C77.86744 102.75459 80.77952 98.46907 85 96.97907c4.22048-1.49 8.65214-3.05663 13.295-4.69988m20.74107-3.66255c2.75721-3.21848 5.22289-4.82773 7.39703-4.82773 3.26121 0 8.3359-2.3963 13.46257-1.02633 3.41778.9133 6.2399 2.68504 8.46638 5.3152m-42.44587 9.86112c3.12427 5.98863 4.1657 10.70198 3.12427 14.14005-1.56213 5.1571-3.87068 12.64183-1.36687 14.51315m29.2736-4.64061c3.71941 1.2437 6.289 2.79057 7.70877 4.6406 1.41977 1.85004 2.40863 2.87675 2.96658 3.08014"/><path stroke="#0E718C" stroke-linecap="round" stroke-linejoin="round" stroke-width="2" d="M162.9086 109.83564c3.07838 8.37272 4.61758 14.98492 4.61758 19.8366 0 7.2775 0 17.2705-2.84727 24.32776-1.89818 4.70484-3.39045 7.38477-4.47682 8.0398v5.92844c-7.82126 10.92472-13.79367 17.07697-17.91724 18.45673-6.18535 2.06965-19.6834 1.31767-23.50683 6.02002-3.82343 4.70236-44.92694 17.24006-50.69892 21.34063"/><path stroke="#0E718C" stroke-linecap="round" stroke-linejoin="round" stroke-width="2" d="M105.11083 197.94277c-2.28926-6.04061-4.66416-10.5633-7.1247-13.56808-3.69083-4.50717-16.96848-20.9168-16.96848-21.74043 0-.82363-2.56887 1.7055-4.05033-.82363-1.48145-2.52914-9.23412-8.315-10.422-11.59145-1.18789-3.27644-7.47793-10.05638-5.09326-14.6321 1.58978-3.0505 2.90779-4.57574 3.95404-4.57574m6.93108 7.43572c-1.40593-3.75039-1.7574-6.93227-1.05444-9.54565 1.05444-3.92006 0-35.32367 0-38.3499 0-3.02624.95923-13.36923 4.98102-15.22432 2.6812-1.23673 6.79319-5.4772 12.33596-12.72138"/><path stroke="#0E718C" stroke-linecap="round" stroke-linejoin="round" stroke-width="2" d="M90.56732 63.58071c1.08808 4.80493.43221 8.6353-1.9676 11.4911-2.39981 2.85582-5.34456 7.37076-8.83423 13.54483m15.1473 0c-1.50895-5.1491.2406-10.03105 5.24868-14.64584 5.00808-4.6148 8.09792-9.15476 9.26952-13.61988"/><path stroke="#0E718C" stroke-linecap="round" stroke-linejoin="round" stroke-width="2" d="M94.38872 71.18005c5.39333 2.70196 8.09 5.76047 8.09 9.17551 0 3.41504-.18962 5.58987-.56887 6.52448m9.01879-3.01943c-1.65734-.46151-2.74235-.96851-3.25505-1.521-6.08999-6.56261-7.94639-12.37048-7.13482-16.91636"/><path stroke="#0E718C" stroke-linecap="round" stroke-linejoin="round" stroke-width="2" d="M94.38872 74.64193c0-9.3114.98849-15.11992 2.96547-17.42557 2.96548-3.45848 7.22375-4.5056 7.75664-8.55854m6.72421 11.6931c9.86028-1.03509 17.22927.37136 22.10697 4.21935 7.31655 5.77198 17.1704 19.50593 17.86795 20.90785.69756 1.40192 4.49723 5.07036 4.49723 9.40839 0 2.892 1.50326 6.98106 4.50978 12.26716m-97.20422 23.85767c-1.37453-8.3616-1.72775-14.61021-1.05968-18.74584 1.00212-6.20344 1.5856-14.36218 3.55582-17.66838 1.97021-3.3062 1.28155-8.94795 1.97021-12.25751.68866-3.30956 3.23242-7.19558 6.83114-12.05597 3.59872-4.8604 2.89122-10.82024 2.89122-11.77997"/><path stroke="#0E718C" stroke-linecap="round" stroke-linejoin="round" stroke-width="2" d="M139.10287 63.58071c10.55238 10.38433 16.2472 16.3604 17.08448 17.9282 1.25592 2.3517 4.62962 8.29197 4.62962 10.77028 0 2.47832 3.98178 9.20474 6.7092 9.20474 1.8183 0 1.07085.85256-2.24233 2.55768l-1.23969 3.11206c.9667-.98906 2.12738-.78933 3.48203.59919 2.03196 2.08278 1.69182 11.29502 1.69182 12.27108 0 .6507-.2913 2.30318-.8739 4.95741m-101.71976 9.7946c-2.246.70665-2.99467 2.107-2.246 4.20109.74866 2.09408 2.93297 5.29539 6.55291 9.60392m6.92656 18.0723c-3.01571-.0105-4.78397-.90455-5.30477-2.68217-.5208-1.77761 1.24745-3.67815 5.30477-5.7016m-5.96234 12.50806c2.40543 2.80246 4.74381 3.73661 7.01515 2.80246 2.27133-.93415 4.30113-2.58144 6.08938-4.94187m44.00633-45.4325c1.64148-.95512 2.5683-2.01569 2.78045-3.1817.21216-1.16601.11914-2.74251-.27905-4.7295m-8.52222-6.28517l4.46345 2.4237m31.78896 20.55984c-3.14032 3.61372-4.71047 6.04232-4.71047 7.2858m14.71195 6.50584c2.3049-.61547 3.45735-1.99223 3.45735-4.1303 0-2.13806-1.72352-3.82785-5.17057-5.06936m-2.49968 17.02505c.8088.8969 1.91625 1.02696 3.32235.39016 1.40611-.6368 2.7217-1.8453 3.94677-3.62553m-11.47865 11.43616c5.47184 4.55167 8.57 6.82751 9.2945 6.82751 1.08673 0 2.39858-1.11413 5.69623-1.11413s13.06613.10077 14.99344 3.25354c1.92731 3.15277 7.189 11.7984 10.22822 11.7984 3.03922 0 9.67396 6.84895 12.10792 6.84895 1.62264 0 3.40464.55017 5.346 1.65052m-55.8172-22.43728c-.18004 13.56133-.79641 21.04042-1.84911 22.43728-1.0527 1.39686-2.84694.89021-5.38273-1.51995-5.76576 3.4298-8.64864 7.17358-8.64864 11.23131 0 6.0866-9.83843 19.27583-9.83843 24.44298v10.9933"/><path stroke="#0E718C" stroke-linecap="round" stroke-linejoin="round" stroke-width="2" d="M159.23792 176.44303c-1.50788 2.3889-3.07803 4.59256-4.71047 6.611-2.44866 3.02766-20.08478 16.58539-24.07558 17.98098-3.9908 1.39559-41.69016 13.20079-47.1421 17.81436-5.45196 4.61358-23.73034 8.30703-25.8399 14.02911m14.9943-56.43545c-8.71088 11.99824-13.70898 20.12598-14.9943 24.3832-1.928 6.38583-13.44902 22.36877-18.45976 25.80515-3.34049 2.29092-5.66382 5.48815-6.97 9.59167m36.039-58.46199c-4.81864-.6039-7.7915-.04239-8.9186 1.68453-1.69065 2.59038-5.79622 3.55675-5.79622 5.69692 0 1.42679-.37072 2.90775-1.11216 4.44289-8.60177 1.79084-13.78131 3.83694-15.5386 6.13828-2.63595 3.45202-7.47258 1.85047-8.69943 3.69277-1.22684 1.8423-4.15657 6.91659-6.92852 6.91659-1.84797 0-6.34367 7.14242-13.4871 21.42726m9.74673-21.42726c-4.58547-1.25565-7.18922-1.25565-7.81126 0-.62203 1.25565-2.45708 2.51073-5.50514 3.76523m168.26681-34.63515c5.2034 14.51485 6.93787 24.80483 5.2034 30.86992-2.6017 9.09763-1.30232-8.39028-6.33822-8.39028"/><path fill="#D04D0B" d="M60.7873 70.01343c0-5.04704 1.24058-5.25986 1.2447-7.52755.00898-4.93955 6.85829-16.9993 13.129-23.87016 12.11838-13.27823-4.29848-20.54747 0-23.61572 4.60449-3.28669 24.3322 8.8007 44.839 12.57435 12.37262 2.2768 20.24411 16.78301 20.79276 17.50624 1.24255 1.63793 2.14068.73062 4.39107 3.57723 1.53256 1.93859 10.01964 22.7476 8.34517 24.24111-5.65317 5.04225-25.94332-14.90956-47.88529-9.31822-38.59047 9.83379-38.60562 34.3582-41.54612 34.3582-4.24908 0-3.31028-17.99098-3.31028-27.92548z"/><path stroke="#FFF" stroke-linecap="round" stroke-linejoin="round" stroke-width="2" d="M83.30976 47.94489c8.55878-6.55435 20.61895-8.61337 36.1805-6.17708"/></g></svg>