<svg xmlns="http://www.w3.org/2000/svg" width="240" height="240"><g fill="none" fill-rule="evenodd"><path stroke="#0E718C" stroke-linecap="round" stroke-linejoin="round" stroke-width="2" d="M181.60966 112.08645c0 5.34586 4.32602 9.29969 4.32602 13.32689 0 2.6848-.721 9.43084-2.16301 20.23811 2.88402 4.52595 3.60502 7.43301 2.16301 8.72118-2.16301 1.93225 0 2.32997 0 7.08031s-3.60502 7.24089-1.8025 10.00048c1.8025 2.7596 1.8025 9.6921 1.8025 9.6921s4.32603 15.79191 0 15.79191c-4.32602 0-5.4926 2.16408-8.75946 2.16408h-6.62303c-3.38596 0-6.91016 6.72406-9.4241 4.98003-2.51395-1.74402-13.95538 3.3413-13.95538 0 0-3.34129-14.47859-7.14411-15.9844-7.14411-1.50582 0-18.53982-9.66125-18.53982-11.5265 0-1.86526-10.7704-11.36912-10.7704-11.36912s-6.92292-4.5536-6.92292-8.57124v-19.81912c0-1.54303 2.23745-12.93448 2.23745-15.07835 0-1.42925.89186-5.57308 2.67559-12.43149 2.67984-4.03677 3.3498-6.05516 2.00988-6.05516-1.33992 0-2.00988-2.34734-2.00988-7.04202"/><path stroke="#0E718C" stroke-linecap="round" stroke-linejoin="round" stroke-width="2" d="M107.209 115.94563c6.4316 4.67696 9.64742 8.22314 9.64742 10.63855 0 3.6231 8.886 6.82083 8.886 9.0721 0 2.25128 8.04378 6.53797 8.04378 8.9562 0 2.41824 4.65303 13.83088 6.13705 10.53323 1.48401-3.29766 1.49199-6.58259 3.06374-10.53323 1.57175-3.95064 7.12308-8.9562 8.56804-8.9562.96331 0 4.25569-.58098 9.87713-1.74295m-14.385 15.46757c-1.36544 2.98398-1.12085 12.83983 1.55899 12.83983 2.67983 0 12.826 1.19636 12.826 2.87552 0 1.67915 4.26542 5.52132 4.26542 0 0-3.68088-2.41788-7.49895-7.25365-11.4542h10.30676l-3.0531 3.52953m3.0531 10.79592c3.14562-1.93118 5.53089-1.41113 5.53089-7.11646V149.3809"/><path stroke="#0E718C" stroke-linecap="round" stroke-linejoin="round" stroke-width="2" d="M149.4101 144.54655c6.74533-2.22044 12.116-2.96059 16.112-2.22044 3.99602.74015 5.99402 1.4803 5.99402 2.22044m-16.63043 1.88333c4.03252.63401 7.35148.95102 9.95688.95102m3.9081-39.11641c5.39532 10.58163 7.81458 16.61521 7.25776 18.10075-.83522 2.22832-5.5594 5.84306-6.66602 5.84306-1.10663 0-5.02563 1.35842-7.91025 0s-6.54647-1.27787-6.54647-3.56046m5.57742.9844c2.12983-1.10172 3.96394-1.47912 5.50233-1.13219"/><path stroke="#0E718C" stroke-linecap="round" stroke-linejoin="round" stroke-width="2" d="M176.98278 126.46185c5.1931.9501 8.8183.5565 10.87558-1.18082 2.0573-1.73732 4.4121-7.4095 7.06443-17.01654-2.19755-3.81535-6.18715-5.72302-11.96878-5.72302-5.78163 0-9.59426.83432-11.43789 2.50296-.61642-.8442-1.77552-1.2663-3.4773-1.2663h-4.82454C160.91602 99.03552 157.51127 96.6642 153 96.6642c-4.51127 0-9.58105.9152-15.20936 2.7456-1.49502 6.4742-1.08584 11.38561 1.22754 14.73423 3.47006 5.02292 7.44005 9.13378 14.92701 6.39424 4.99131-1.82636 8.081-6.70175 9.26909-14.62617"/><path stroke="#0E718C" stroke-linecap="round" stroke-linejoin="round" stroke-width="2" d="M171.51612 99.30186c1.89568-.69235 3.41916-.69235 4.57045 0a82.75632 82.75632 0 0 1 3.40337 2.16135m-18.05778-4.799c-5.01083-2.04233-9.52626-2.45079-13.54627-1.2254m-10.97557 4.6841c.22161-.36265-.64163-.80942-2.58975-1.34031-1.9481-.5309-11.93414-1.23703-29.95811-2.1184m65.7419 37.54583c1.9705 1.37814 3.3629 2.74659 4.1772 4.10535m-22.6239-31.91875c-1.27916-1.41098-3.08734-2.11647-5.42456-2.11647-2.33722 0-5.1578.7055-8.46177 2.11647"/><path fill="#0E718C" d="M142.40354 105.3384l.90049 2.92609h3.5889c.26497-.36516.59595-.85285.99296-1.46305s.69038-1.45063.88011-2.52128h-4.0515c-.94032 0-1.71063.35275-2.31096 1.05824z"/><path stroke="#0E718C" stroke-linecap="round" stroke-linejoin="round" stroke-width="2" d="M177.75293 110.68116c-1.60156-1.61111-2.9286-2.41667-3.98115-2.41667-1.05254 0-1.57882.1238-1.57882.37139l.54978 2.56258c.79194.03883 1.30489-.1336 1.53883-.5173.23394-.3837.06401-.81222-.5098-1.28558m12.34036-9.27268c-1.68117-1.02935-2.52176-2.18225-2.52176-3.4587 0-1.91467-4.17107-19.64788-5.83744-23.32095-1.1109-2.44872-2.49237-5.02512-4.14439-7.7292.7749-8.25219-2.68985-14.00729-10.39426-17.2653-11.55662-4.88703-27.60743-7.9855-40.6059-6.92681-12.9985 1.0587-34.8267 4.09862-44.90033 22.19246-10.07362 18.09385-11.02134 29.64193-11.02134 38.92124 0 9.2793-1.34805 21.262 1.50805 26.4682 1.90407 3.4708 4.18713 6.57464 6.84919 9.31154-.66495 7.95042-.16703 12.74308 1.49375 14.37798m-1.95127-1.57273c-2.7315 2.86457-4.49464 5.38243-5.2894 7.55357-.79476 2.17114-2.14667 4.19104-4.05573 6.0597"/><path stroke="#0E718C" stroke-linecap="round" stroke-linejoin="round" stroke-width="2" d="M170.10436 62.79438c-.90246-2.09912-5.10661-4.60959-12.61247-7.53142-11.25879-4.38274-29.12291-2.67002-31.2514 0-2.1285 2.67002-14.54107 10.81743-13.13114 14.95253 1.40993 4.1351 5.07262 8.35136 5.07262 11.85173 0 2.33358-2.8202 5.21483-8.46061 8.64374m-16.9949 9.41194c-4.8706-3.77541-8.71604-5.24742-11.5363-4.41603-4.2304 1.24708-8.97707 9.51294-6.60373 18.99573 2.37334 9.4828 9.15449 16.50213 11.39494 16.50213h5.0816"/><path stroke="#0E718C" stroke-linecap="round" stroke-linejoin="round" stroke-width="2" d="M80.05365 102.39198c.99665-3.63503 2.35237-4.3914 4.06715-2.26908 2.57218 3.18347 9.7124 10.16373 8.60566 11.69205-.73781 1.01888-.73781 3.00108 0 5.9466-1.2614-2.50088-2.88567-3.42875-4.87283-2.78362m-6.20005 19.2321c-1.48986 2.7369-2.60068 4.10535-3.33246 4.10535m6.75258 14.37798l4.7578 5.98084m59.5786 46.57279c2.63876 4.92639 2.1307 7.38958-1.5242 7.38958-5.48236 0-36.60495-20.02289-43.52344-23.4204-6.9185-3.39752-17.6341-16.61665-26.04134-18.93266-8.40725-2.316-9.7834-4.63201-15.5046-2.316-5.72122 2.316-39.54674 16.67964-43.47797 21.85487-2.62082 3.45014-6.0463 7.43445-10.27647 11.95291m154.1522 5.96025c14.56752 10.36588 22.78221 16.56486 24.64408 18.59692 1.86187 2.03206 4.21668 5.0981 7.06443 9.1981"/><path fill="#D04D0B" d="M59.69215 71.64587c0-2.13038 2.07731-2.6487 2.34317-4.94805.57909-5.0085 1.28678-17.3275 6.44446-25.48302 7.4137-11.72283 20.50269-14.26554 26.47621-17.14406 22.36886-10.77911 64.2456 10.15078 65.50695 11.95216 1.26134 1.80138 7.02053.20596 11.053 9.92208.91584 2.20665 5.81488 15.71066 4.57045 17.48976-4.2349 6.05446-26.21086 1.44863-52.56722 11.60471-34.10116 13.14044-25.39477 8.15943-40.18015 17.02646-5.37955 3.2262-15.09677 5.80574-18.0979 4.8883-2.4978-.76358-5.54897-15.1521-5.54897-25.30834z"/><path stroke="#FFF" stroke-linecap="round" stroke-linejoin="round" stroke-width="2" d="M78.7115 57.42622c11.1242-6.30416 23.50846-11.2413 37.1528-14.81144 18.92187-4.95103 31.2428-6.322 36.96279-4.1129"/></g></svg>