<svg xmlns="http://www.w3.org/2000/svg" width="240" height="241"><g fill="none" fill-rule="evenodd"><path stroke="#0E718C" stroke-linecap="round" stroke-linejoin="round" stroke-width="2" d="M127.29833 183.15894c-18.80797-1.44157-29.78411-4.04494-32.92843-7.8101-3.14432-3.76517-6.11484-7.77897-8.91156-12.0414m56.34208 17.4632c12.18188-3.82261 20.11823-8.22721 23.80904-13.2138 3.69082-4.98659 6.11532-15.50917 7.2735-31.56773m1.78217 9.86745c1.6086.47167 3.35046-.27904 5.22556-2.25215 2.81265-2.95965 5.21253-11.6583 5.21253-14.61434 0-2.95603 2.284-12.53382 1.142-15.7882-.76134-2.1696-2.22366-2.60724-4.38698-1.31291"/><path stroke="#0E718C" stroke-linecap="round" stroke-linejoin="round" stroke-width="2" d="M177.84927 129.9228c-1.934 4.0442-2.4175 6.06631-1.4505 6.06631.967 0 2.68882-2.47028 5.16546-7.41083M152.5108 52.0919c-13.49068-12.37015-26.57752-16.21256-39.26052-11.52723-19.02449 7.028-31.88853 14.76352-36.4493 27.69273-4.56079 12.92921-12.85608 47.91742-14.25806 64.0263-1.40198 16.10889-.53081 32.54305-4.9931 38.84907-4.4623 6.30601-6.66448 22.25933-6.66448 27.45955 0 3.4668-1.92483 14.13953-5.77448 32.01815m37.16189 7.63775c-11.13087-13.70551-15.90552-23.99539-14.32395-30.86963 2.37236-10.31136 12.39116-18.41475 12.39116-25.4768"/><path stroke="#0E718C" stroke-linecap="round" stroke-linejoin="round" stroke-width="2" d="M101.53405 58.2835c-5.7938 11.75364-8.69069 22.48985-8.69069 32.2086 0 14.57813-1.3788 35.8572-4.38191 41.7916-3.0031 5.93439-8.0321 5.95973-13.49825 11.34389-3.6441 3.58943-4.32993 6.70599-2.0575 9.34967"/><path stroke="#0E718C" stroke-linecap="round" stroke-linejoin="round" stroke-width="2" d="M96.357 62.72261c-4.21318 6.45181-6.31977 11.86494-6.31977 16.23936 0 6.56165-5.93886 39.0908-7.76448 44.35356-1.82562 5.26275-2.3767 17.53126-1.18835 22.67753 1.18835 5.14627 10.26983 27.08842 7.32189 31.49857-2.94795 4.41016-6.00102 12.76483-4.47448 18.78046 1.52653 6.01562 12.4252 23.8561 12.4252 32.91612v5.72885"/><path stroke="#0E718C" stroke-linecap="round" stroke-linejoin="round" stroke-width="2" d="M104.24749 96.675c-3.3717-1.34838-6.00187-2.02258-7.89049-2.02258-1.88862 0-3.94524.3371-6.16987 1.0113m43.14348 27.15648c3.29205 3.83872 3.78592 6.99322 1.48164 9.4635m-11.27457-1.80366c.16146-1.33334 1.2066-2 3.13543-2 1.92882 0 2.88359.26507 2.86429.79522m-13.10631 2.01009c-.90217-1.35557-2.07866-1.90298-3.52948-1.64222-1.4508.26075-2.27432.90639-2.47052 1.9369m-4.53756-4.3594c-1.38981 3.36355-1.22821 5.83075.4848 7.4016m24.29664-27.22745c2.47403-4.88327 6.00724-7.11253 10.59964-6.68777 4.5924.42476 8.79793 2.06589 12.61659 4.92337"/><path fill="#0E718C" d="M136.23543 102.13006c-.32631 1.15727-.32631 2.32404 0 3.50032.32631 1.17627.7657 1.95601 1.31815 2.33924l6.67103-.57484c.56826-.88033.99751-1.66198 1.28776-2.34494.29025-.68296.29025-1.9212 0-3.71475-2.09807-.4527-3.94906-.67906-5.55295-.67906-1.6039 0-2.84522.49134-3.72399 1.47403z"/><path stroke="#0E718C" stroke-linecap="round" stroke-linejoin="round" stroke-width="2" d="M105.66904 111.89056c-2.2845-2.99719-4.76316-4.32553-7.43597-3.98504-2.67282.34049-5.9484 2.37943-9.82678 6.11682"/><path fill="#0E718C" d="M94.22385 109.90797c.0048 1.2926.18208 2.2179.53184 2.77594.34976.55803.75654 1.00417 1.22035 1.33843l5.558-.84913c.17439-.50278.37377-1.17269.59816-2.0097.33658-1.25554.0393-3.68272-2.86795-3.19389-1.93816.3259-3.6183.97201-5.0404 1.93835z"/><path stroke="#0E718C" stroke-linecap="round" stroke-linejoin="round" stroke-width="2" d="M101.53405 153.71938c1.00638-2.7632 2.89342-4.98943 5.6611-6.6787 4.15153-2.53392 4.79694-4.47626 7.17405-4.47626s2.17014.55997 4.29146.55997 3.97702-1.6297 6.95883-1.6297 11.64586 4.37398 13.44338 4.95998c1.7975.586 7.15707 1.71873 7.15707 1.15237 0-.56637-3.80777 4.6281-10.22925 5.37022-6.42147.74212-4.46386 2.5136-13.04268 2.90644-8.57881.39284-9.20107-.86052-12.24638-.86052-2.0302 0-4.31935-.24593-6.86745-.7378"/><path stroke="#0E718C" stroke-linecap="round" stroke-linejoin="round" stroke-width="2" d="M106.37834 152.3205c2.35082-2.03527 5.3212-3.0529 8.91112-3.0529 5.3849 0 5.53947-.86269 10.6975-.86269 5.15802 0 7.58839-.21789 8.79606.3224m22.55867-95.77499c13.15123 7.86272 20.90902 15.667 23.27337 23.41283 3.54651 11.61875 7.47193 29.6555 8.86038 32.59045 1.38846 2.93496-1.84053 41.71832-2.91046 47.00433-1.06993 5.286-12.95983 7.05705-15.45445 13.06255-1.66307 4.00367-6.25269 10.12283-13.76884 18.35748m28.13925-24.07251c3.0191 6.58095 10.33628 11.53477 21.95157 14.86145 17.42293 4.99004 23.3066 12.60605 27.07452 12.60605M126.53768 90.9458c4.76056-5.50529 10.00902-8.25793 15.7454-8.25793 5.73639 0 10.40484 2.75264 14.00537 8.25793m1.05324 42.61572c6.10516-9.20386 9.15774-16.42751 9.15774-21.67095m-58.75582 70.01123c4.06557 8.38111 6.75635 13.68857 8.07233 15.92236 1.31598 2.2338 2.90423 5.5934 4.76474 10.0788m2.36733 25.413c.1638-12.24885 3.62467-20.71985 10.3826-25.413 6.75793-4.69316 13.61146-10.08169 20.56059-16.16558M145.73006 58.2835c-7.80328-2.3419-14.20074-3.12253-19.19238-2.3419-4.99164.78064-11.71142 3.04098-20.15934 6.78102"/><path stroke="#0E718C" stroke-linecap="round" stroke-linejoin="round" stroke-width="2" d="M150.81532 62.72261c6.70815 9.27241 10.4099 15.60622 11.10524 19.00142 1.04303 5.0928 10.9624 15.56262 10.9624 18.932"/><path fill="#D04D0B" d="M181.72483 55.79652c-.58722-2.04785-2.72693-1.97352-3.61627-4.11051-1.9372-4.65486-1.3447-10.43168-8.55054-16.84962-10.35776-9.22522-36.48486-18.23302-43.02041-19.3535-24.47345-4.19586-50.78296 31.76756-51.4989 33.84683-.71596 2.07927-6.6918 2.1331-7.88995 12.58433-.27211 2.3736.06365 17.2779 1.75025 18.64507 5.73968 4.65262 24.27199-6.40522 52.40674-3.90737 36.40213 3.23185 26.66006.8436 43.31676 5.29173 6.06043 1.61842 16.11224 1.4196 18.74421-.28952 2.19058-1.42249 1.15754-16.09464-1.6419-25.85744z"/><path stroke="#FFF" stroke-linecap="round" stroke-linejoin="round" stroke-width="2" d="M91.978 49.3236c12.43091-2.99371 25.6963-4.32604 39.79614-3.99698 19.55355.45634 31.77508 2.53459 36.66458 6.23475"/><path stroke="#0E718C" stroke-linecap="round" stroke-linejoin="round" stroke-width="2" d="M74.9632 116.24842c-5.94767 17.36913-8.38419 28.73331-7.30955 34.09257 1.07464 5.35926 2.77038 10.844 5.08724 16.45423M61.337 187.37996c1.15476 6.12064.5091 13.29604-1.937 21.5262m54.76215-99.50328c.61498 3.60354.3713 6.74064-.73105 9.41131"/></g></svg>