<svg width="700" height="480" xmlns="http://www.w3.org/2000/svg" xmlns:xlink="http://www.w3.org/1999/xlink"><defs><symbol id="svg_3" viewBox="0 0 153.79 105.625" xmlns="http://www.w3.org/2000/svg"><defs><style>.cls-2{fill:#d9272e}</style></defs><g data-name="Layer 2" id="svg_1"><g data-name="Layer 1" id="svg_2"><path d="M15.69 37.55a19.07 19.07 0 0 0 7.07-2.71 19.26 19.26 0 0 0 6.7-7.25 19.07 19.07 0 0 0 2.15-7.33q.06-.66.07-1.33a6 6 0 0 0-.05-1.34A18.3 18.3 0 0 1 29.35 26 14.93 14.93 0 0 1 26 29.94a15.65 15.65 0 0 1-14.38 3 13.26 13.26 0 0 1-8.17-7.13A16.19 16.19 0 0 1 3 12.87a15.54 15.54 0 0 1 6-7.24l-.06-.1a15.53 15.53 0 0 0-8.7 11.54 19.07 19.07 0 0 0 3.51 14.19 17.5 17.5 0 0 0 8.76 6.56h.56a19.27 19.27 0 0 0 2.62-.27z" fill="#802528"/><path class="cls-2" d="M40.76 12C39.38 5 33.65 0 26.83 0a13.54 13.54 0 0 0-4.09.63 13.35 13.35 0 0 0-3.6 1.78 14 14 0 0 0-2.93 2.76 14.71 14.71 0 0 0-1.59 2.46l.06-.12-.31.62-.07.16.05-.12-.28.62-.07.13v-.09l-.29.76v-.08q-.23.64-.4 1.29v-.08l-.2.81v-.07c-.06.28-.12.56-.17.84v.35c0 .1.79-1.11 1.24-1.6a10 10 0 0 1 1.47-1.29 16.16 16.16 0 0 1 25.4 8.17c0-.52.06-1 .06-1.58a22.53 22.53 0 0 0-.35-4.35z"/><path d="M13.19 11.64v-.08.08zm.18-.73v-.08.08zm.43-1.42v-.13.13zm-.23.7v-.1.1z" fill="#e02926"/><path d="M41.11 18v-.88.78a16.18 16.18 0 0 0-25.42-8.14 10 10 0 0 1 11.14-.34 10.07 10.07 0 0 1 4.54 6.8 15.08 15.08 0 0 1 .2 2.74q0 .66-.07 1.32A19.09 19.09 0 0 1 13 37.76h-.6a22.3 22.3 0 0 0 2.47.59 22.87 22.87 0 0 0 3.44.35h.42a22.43 22.43 0 0 0 22.4-20.77.57.57 0 0 0-.02.07z" fill="#b3282d"/><path class="cls-2" d="M21.23 12.25a10 10 0 0 0-8.16 4.69.19.19 0 0 0 0 .1v32.61a.18.18 0 0 0 .19.18 10 10 0 0 0 8.16-4.69.19.19 0 0 0 0-.1v-32.6a.18.18 0 0 0-.19-.19zm43.49.17c0 3.56-2.16 6.81-6.74 6.81s-6.74-3.33-6.74-6.8A6.59 6.59 0 0 1 58 5.53c4.52.02 6.72 3.33 6.72 6.89zM58 17.3c3.28 0 4.65-2.31 4.65-4.84s-1.39-4.95-4.61-5c-3 0-4.69 2.13-4.69 5 .02 2.33 1.38 4.84 4.65 4.84zM73.27 5.78c2.5 0 4.48 1.15 4.48 3.76a2.74 2.74 0 0 1-1.83 2.62 3.26 3.26 0 0 1 2.24 3c0 2.88-2.3 3.76-4.89 3.76h-6V5.78h6zm-4 5.46h4c1.58 0 2.37-.62 2.37-1.66s-.81-1.9-2.39-1.9h-4l.02 3.56zm0 5.76h4c1.17 0 2.79-.38 2.79-1.83s-1.56-2.05-2.77-2.05h-4L69.27 17zM91.18 5.78v7.72a5.35 5.35 0 0 1-5.65 5.7 5.25 5.25 0 0 1-5.63-5.59H82c0 2.32 1.26 3.61 3.56 3.61s3.54-1.54 3.54-3.73V5.78h2.08zM104.08 19h-9.73V5.78H104v2.05h-7.54v3.56h7.27v2h-7.27v3.54h7.62V19zM118 17.26a6.91 6.91 0 0 1-5 2c-4.78 0-6.93-3.29-6.95-6.76A6.59 6.59 0 0 1 113 5.55a6.74 6.74 0 0 1 4.82 2l-1.41 1.35A4.84 4.84 0 0 0 113 7.55a4.62 4.62 0 0 0-4.86 4.89 4.55 4.55 0 0 0 4.86 4.8 5.11 5.11 0 0 0 3.5-1.43l1.5 1.45zm5.46-9.58h-4.33v-1.9h10.77v1.9h-4.31V19h-2.13V7.68zM53.35 34.49v4h-2.11V25.36h6.1c6.29 0 6.31 9.11 0 9.15l-3.99-.02zm0-1.94h4c3.48 0 3.46-5.27 0-5.27h-4v5.27zm19.09 3.22h-7.13l-1.24 2.77h-2.25l5.91-13.18H70l5.91 13.18H73.7l-1.26-2.77zm-3.56-8.19l-2.78 6.27h5.57l-2.79-6.27zm20.36 10.96h-2.46l-4-4.55H80v4.55h-2.13V25.35h6.14a4.3 4.3 0 0 1 4.65 4.31 3.89 3.89 0 0 1-3.58 4.1l3.92 4.4.24.38zM80 27.28v4.78h4a2.27 2.27 0 0 0 2.52-2.35A2.35 2.35 0 0 0 84 27.28h-4zm14.61-.01h-4.33v-1.9H101v1.9h-4.26v11.27h-2.13V27.27zm17.68 7.47v-9.38h2.11v13.18h-1.6l-7.47-9.3v9.3h-2.13V25.36h1.62l7.47 9.38zm15.16 3.8h-9.73V25.36h9.67v2.05h-7.57V31h7.27v2h-7.27v3.54h7.62l.01 2zm14.08 0h-2.47l-4-4.55h-2.79v4.55h-2.11V25.35h6.14a4.3 4.3 0 0 1 4.65 4.31 3.89 3.89 0 0 1-3.58 4.1l3.93 4.39.23.39zm-9.26-11.26v4.78h4a2.27 2.27 0 0 0 2.52-2.35 2.35 2.35 0 0 0-2.5-2.43h-4.02zm19.33 1a4 4 0 0 0-3.26-1.47c-1.77 0-3 .73-3 2s1.47 1.64 3.2 1.88c2.71.38 5.29 1.13 5.29 4.08s-2.71 4.07-5.46 4.07c-2.52 0-4.46-.77-5.67-3l1.58-1.05a4.56 4.56 0 0 0 4.1 2.16c1.58 0 3.33-.53 3.33-2.18 0-1.43-1.52-1.92-3.37-2.16-2.62-.36-5.1-1-5.1-3.84s2.68-3.77 5.05-3.77c1.9 0 3.8.45 4.91 2.22l-1.6 1.06z"/></g></g></symbol></defs><g class="layer"><use id="svg_4" transform="matrix(.99758 0 0 .98345 -.0126058 5.08857)" x="0" xlink:href="#svg_3" y="90.351623"/></g></svg>