<svg width="332" height="228" xmlns="http://www.w3.org/2000/svg" xmlns:xlink="http://www.w3.org/1999/xlink"><style>.st1{fill:#002b5c}</style><defs><symbol viewBox="0 0 90 87.1" id="svg_4" xmlns:xlink="http://www.w3.org/1999/xlink" xmlns="http://www.w3.org/2000/svg"><style>.st1{fill:#002b5c}</style><path d="M66.7 13.8h-11c-.1 1.1-.3 1.3-.9 2.1l-10 13.4c-.4-.6-10.1-13.7-10.2-13.9-.2-.4-.3-.8-.4-1.6H20.6V15h.1c1.4 0 1.7.8 2.2 1.9.2.6 0 1.5.1 2.1v13.9c7.2 1.8 14.5.5 22.2-.3 8-.8 15.1-.4 21.3.9h.1V17.4c0-.1 0-.2.1-.3.5-1.3 1.1-2.2 2.8-2.2h.1v-1.1h-2.9z" fill="#f58025"/><path d="M69.7 52.7c-1.7 0-2.2-.8-2.7-2.2 0 0-.4-1.5-.4-2.4V35c-6.4-1.4-13.6-1.9-21-.9-8.3 1.2-14.7 5-22.6 5v8.3c0 .9 0 2.3-.2 3.1-.5 1.3-.6 2.2-2.2 2.2h-.1v1.1h15.7l.1-11.7 8.9 11.1 8.4-10.9v11.5h16.2v-1.1h-.1zm-22.2 10c.4 0 .6-.2.8-.6l1.9-4.8c.1-.4.4-.8.4-.8h1c0 .1 0 .2.1.5l2 5.2c.2.5.3.6.7.6v.4H52v-.4c.3 0 .5-.1.5-.3 0-.1 0-.2-.1-.3V62l-.5-1.3h-2.5l-.5 1.3c-.1.2-.1.3-.1.4 0 .2.2.3.5.3v.4h-1.9v-.4h.1zm4.2-2.4l-1.1-2.9-1.1 2.9h2.2zm-31 2.4c.2 0 .4 0 .5-.1.2-.1.2-.3.2-.7v-4.1c0-.6-.3-.9-.8-.9v-.4h1.6l2.8 5.3 2.6-5.3h1.6v.4h-.1c-.5 0-.7.1-.7.6v4.9c0 .2.3.4.7.4v.4h-2.8v-.4c.7 0 .8-.1.8-.7v-3.9l-2.4 5h-.6l-2.5-4.9V62c0 .5 0 .7.2.8.1 0 .2.1.4.1v.4h-1.9v-.6h.4zm9.3 0c.6 0 .8-.1.8-.6v-4.8c0-.4-.2-.6-.7-.6v-.4h2.7v.4c-.5 0-.7.1-.7.6v4.8c0 .4.2.6.7.6v.4H30v-.4zm3.5 0c.6 0 .8-.1.8-.6v-4.8c0-.4-.2-.6-.7-.6v-.4H37c1 0 1.6.1 2.1.4 1.1.6 1.7 1.6 1.7 2.9 0 2-1.5 3.4-3.6 3.4h-3.7v-.3zm2.1-.2c.1.1.5.2.9.2 1.8 0 2.9-1.1 2.9-2.9 0-.9-.3-1.6-.8-2.1-.6-.6-1.2-.9-2.2-.9-.4 0-.6 0-.8.1-.1 0-.1 0-.2.1 0 0-.1.1-.1.2v5.1c.1 0 .2.2.3.2zm5.8.2c.6 0 .8-.1.8-.6v-4.8c0-.4-.2-.6-.7-.6v-.4h2.7v.4c-.6 0-.7.1-.7.6v4.8c0 .5.2.6 1 .6.4 0 .8 0 1.1-.1.2 0 .4-.1.7-.3.4-.2.6-.4.9-.8l.3.2c-.2.5-.4.9-.7 1.1-.1.1-.2.2-.3.2-.1 0-.2.1-.3.1h-4.6v-.4h-.2zm13.6 0c.4 0 .6 0 .6-.1.1-.1.1-.3.1-.6v-4.1c0-.7-.3-1-.7-1v-.4h1.6l4.7 5.2v-4.1c0-.6-.1-.8-.7-.8h-.1v-.4h1.9v.4c-.6 0-.8.2-.8.8v5.5h-.7l-4.8-5.4v4.2c0 .6.1.8.7.8v.4H55v-.4zm8.2 0c.6 0 .8-.1.8-.6v-4.8c0-.4-.2-.6-.7-.6v-.4h3.4c1 0 1.6.1 2.1.4 1.1.6 1.7 1.6 1.7 2.9 0 2-1.5 3.4-3.6 3.4h-3.7v-.3zm2.1-.2c.1.1.5.2.9.2 1.8 0 2.9-1.1 2.9-2.9 0-.9-.3-1.6-.8-2.1-.6-.6-1.2-.9-2.2-.9-.4 0-.6 0-.8.1-.1 0-.1 0-.2.1 0 0-.1.1-.1.2v5.1c.2 0 .2.2.3.2zm-43.7 2h.9v.1c-.2 0-.3 0-.3.2v1.3c0 .2.1.3.2.4.1.1.3.2.5.2s.3 0 .5-.1.3-.3.3-.5v-1.2c0-.1-.1-.2-.2-.2v-.1h.6v.1c-.2 0-.2.1-.2.2v1.2c0 .3-.1.5-.3.6-.2.1-.4.2-.7.2-.2 0-.4 0-.6-.1-.1 0-.2-.1-.3-.2-.1-.1-.2-.3-.2-.5v-1.2c0-.1-.1-.2-.3-.2v-.2h.1zm5.5 2.2h.2v-1.6c0-.2-.1-.4-.3-.4v-.1h.5l1.6 1.8V65c0-.2 0-.3-.2-.3v-.1h.7v.1c-.2 0-.3.1-.3.3v1.9h-.2L27.5 65v1.4c0 .2 0 .3.2.3v.1H27v-.1h.1zm5.7 0c.2 0 .3 0 .3-.2v-1.7c0-.1-.1-.2-.2-.2v-.1h.9v.1c-.2 0-.3 0-.3.2v1.7c0 .1.1.2.3.2v.1h-.9v-.1h-.1zm3.9-2.2h.9v.1h-.1c-.1 0-.1 0-.1.1v.1l.6 1.5.6-1.5v-.1c0-.1 0-.1-.2-.1v-.1h.6v.1h-.1c-.1 0-.1.1-.2.2l-.7 2h-.2l-.8-2c-.1-.1-.1-.2-.3-.2v-.1zm5.3 2.2c.2 0 .3 0 .3-.2v-1.7c0-.1-.1-.2-.3-.2v-.1h2l.1.4-.1.1-.1-.1c-.1-.1-.2-.1-.3-.2h-.7s-.1.1-.1.2v.7h.4c.3 0 .4-.1.4-.3h.1v.8h-.1c0-.1 0-.1-.1-.2 0-.1-.1-.1-.4-.1h-.4v.8c0 .2.1.2.4.2.5 0 .8-.1 1-.4l.1.1c-.1.2-.1.3-.2.4l-.1.1H42v-.3zm5.2 0c.2 0 .3 0 .3-.2v-1.7c0-.1-.1-.2-.3-.2v-.1h1.1c.3 0 .4 0 .5.1.2.1.3.3.3.5s-.1.3-.2.5c-.1.1-.3.2-.6.2.1 0 .1 0 .2.1s.4.3.6.6c.2.3.2.3.3.3v.1H49c-.1 0-.3-.2-.5-.4l-.3-.5-.1-.1-.2-.2h-.1v.8c0 .1 0 .1.1.2h.2v.1h-.9v-.1zm.7-1.1s.1.1.2.1c.4 0 .7-.2.7-.5s-.2-.5-.7-.5h-.2v.8c-.1 0-.1 0 0 .1zm4.6.5c.1.2.2.3.3.4.2.1.3.2.5.2.3 0 .5-.2.5-.5 0-.2-.1-.3-.3-.4l-.5-.1c-.3-.1-.4-.3-.4-.6 0-.4.3-.6.8-.6h.2c.1 0 .2.1.4.2v.3h-.1c-.1-.3-.3-.5-.6-.5s-.5.2-.5.4c0 .1.1.2.3.3l.5.2c.3.1.5.4.5.7 0 .4-.4.7-.9.7h-.3l-.2-.1s-.1 0-.1.1h-.1l-.2-.7h.2zm4.7.6c.2 0 .3 0 .3-.2v-1.7c0-.1-.1-.2-.3-.2v-.1h.9v.1c-.2 0-.3 0-.3.2v1.7c0 .1.1.2.3.2v.1h-.9v-.1zm4.6 0c.2 0 .3 0 .3-.2v-1.9h-.4c-.1 0-.2 0-.3.1-.1.1-.1.1-.2.3h-.1l.1-.5h2.1l.1.5h-.1c0-.1 0-.1-.1-.1-.1-.1-.3-.2-.4-.2h-.4v1.9c0 .1.1.2.3.2v.1h-1v-.2h.1zm5.3 0c.2 0 .3 0 .3-.2v-.7c0-.1 0-.1-.1-.2l-.6-.7c-.1-.2-.2-.2-.3-.2v-.1h.9v.1c-.1 0-.1 0-.1.1v.1l.5.8.5-.8v-.1s0-.1-.1-.1v-.1h.6v.1c-.1 0-.2.1-.3.2l-.6.9v.8c0 .1.1.2.3.2v.1h-.9v-.2h-.1z" class="st1"/><path fill="url(#SVGID_1_)" d="M56.5 73h17.6v.3H56.5z"/><path fill="url(#SVGID_2_)" d="M16.6 73h19v.3h-19z"/><path d="M41.1 75.1v1.3c0 .4-.1.7-.2 1-.1.3-.3.5-.6.7-.3.2-.6.3-1.1.3s-.9-.1-1.1-.3c-.3-.2-.4-.4-.6-.7-.1-.3-.2-.6-.2-1v-5.5c0-.4.1-.7.2-1 .1-.3.3-.5.6-.7.3-.2.7-.3 1.1-.3s.9.1 1.1.3c.3.2.5.4.6.7.1.3.2.6.2 1v1.3h-1.4v-1.3c0-.3-.1-.4-.2-.6-.1-.1-.2-.1-.3-.1-.3 0-.4.2-.4.3 0 .1-.1.2-.1.3v5.5c0 .3.1.4.2.6.1.1.2.1.3.1.3 0 .4-.2.5-.3 0-.1.1-.2.1-.3v-1.3h1.3zm4.7 1.3c0 .4-.1.7-.2 1-.1.3-.3.5-.6.7-.3.2-.6.3-1.1.3s-.9-.1-1.1-.3c-.3-.2-.4-.4-.6-.7-.1-.3-.2-.6-.2-1v-5.5c0-.4.1-.7.2-1 .1-.3.3-.5.6-.7.3-.2.7-.3 1.1-.3s.9.1 1.1.3c.3.2.5.4.6.7.1.3.2.6.2 1v5.5zm-1.5-5.5c0-.3-.1-.4-.2-.6-.1-.1-.2-.1-.3-.1-.3 0-.4.2-.4.3 0 .1-.1.2-.1.3v5.5c0 .3.1.4.2.6.1.1.2.1.3.1.3 0 .4-.2.4-.3 0-.1.1-.2.1-.3v-5.5zm2.5 7.4v-9.4H48c1.4 0 2.1.3 2.5 1 .4.7.4 1.9.4 3.7s-.1 3-.4 3.7c-.4.7-1.1 1-2.5 1h-1.2zm1.5-1.3c.5 0 .8-.1.9-.5.1-.2.1-.5.1-1v-3.6c0-.4-.1-.8-.1-1-.1-.4-.4-.5-.9-.5V77zm3.6-8.1h3.4v1.4h-1.9v2.5h1.4v1.5h-1.4v2.6h1.9v1.4h-3.4v-9.4z" class="st1"/></symbol></defs><use x="-71.13612" y="-54.76974" transform="matrix(1.15963 0 0 1.14394 56.32497 33.8183)" xlink:href="#svg_4" id="svg_5"/></svg>