<svg xmlns="http://www.w3.org/2000/svg" width="332" height="228"><g fill="none" fill-rule="evenodd"><path fill="#467ABE" fill-rule="nonzero" d="M79.47813 131.7176c-1.84958-.97825-3.30978-2.34782-4.28324-4.10869-.97346-1.76087-1.55754-3.81521-1.55754-6.16304v-14.67391c0-2.25.48673-4.30435 1.55754-6.06522.97346-1.76087 2.43366-3.13044 4.28324-4.01087 1.84959-.97826 3.9912-1.4674 6.42487-1.4674 2.43366 0 4.57528.48914 6.42486 1.36957 1.84959.97826 3.30978 2.25 4.28325 3.91305.97346 1.66304 1.55754 3.61956 1.55754 5.86956v.29348c0 .19565-.09735.29348-.1947.48913-.09734.09783-.29203.19565-.48672.19565l-6.23018.29348c-.38938 0-.68142-.19565-.68142-.58696v-.68478c0-1.46739-.38939-2.6413-1.2655-3.52174-.87612-.88043-2.04428-1.27174-3.40713-1.27174-1.4602 0-2.531.48913-3.40713 1.27174-.87611.88044-1.2655 2.05435-1.2655 3.52174v15.45652c0 1.4674.38939 2.6413 1.2655 3.42392.87612.88043 2.04428 1.27174 3.40713 1.27174 1.4602 0 2.531-.3913 3.40712-1.27174.87612-.88044 1.2655-2.05435 1.2655-3.42392v-.48913c0-.3913.1947-.58695.68143-.58695l6.23018.29348c.38938 0 .68142.09782.68142.3913v.3913c0 2.25-.48673 4.20653-1.55754 5.9674-.97347 1.76086-2.43366 3.0326-4.28325 4.01086-1.84958.97827-3.9912 1.36957-6.42486 1.36957-2.43366 0-4.57528-.48913-6.42487-1.4674zm24.33662-.88043c-1.94693-1.56521-3.1151-3.71739-3.50448-6.45652-.29204-1.76087-.38938-3.52174-.38938-5.2826 0-2.15218.09734-3.91305.38938-5.38044.38939-2.6413 1.6549-4.69565 3.60182-6.26087 1.94693-1.56522 4.47794-2.34783 7.59302-2.34783 3.01774 0 5.54875.78261 7.49568 2.34783s3.11509 3.61956 3.50447 6.26087c.29204 1.66304.38939 3.42391.38939 5.38043 0 1.76087-.09735 3.52174-.38939 5.18479-.38938 2.73913-1.55754 4.98913-3.50447 6.55434-1.94693 1.56522-4.47794 2.34783-7.59302 2.34783-3.11509 0-5.6461-.7826-7.59302-2.34783zm10.02668-4.98913c.68142-.58695 1.07081-1.46739 1.2655-2.54347.09735-1.17392.1947-2.54348.1947-4.20653 0-1.66304-.09735-3.0326-.1947-4.1087-.19469-1.07608-.58408-1.85869-1.2655-2.54347-.68143-.58696-1.4602-.88044-2.43366-.88044-.97347 0-1.84958.29348-2.43366.88044-.68143.58696-1.07081 1.4674-1.2655 2.54348-.1947 1.36956-.29205 2.73913-.29205 4.1087 0 1.07608.09735 2.44565.1947 4.20652.19469 1.07608.58408 1.8587 1.2655 2.54347.68143.58696 1.4602.97826 2.43366.97826 1.07081 0 1.94693-.3913 2.53101-.97826zm30.95617-18.19565c1.4602 1.66304 2.23897 3.91304 2.23897 6.84783v17.6087c0 .19565-.09735.29347-.1947.48912-.09734.09783-.29203.19566-.48673.19566h-6.23017c-.1947 0-.29204-.09783-.48673-.19566-.09735-.09782-.1947-.29347-.1947-.48913v-16.5326c0-1.27174-.29203-2.15218-.87611-2.93479-.58408-.68478-1.4602-1.07609-2.43366-1.07609-1.07081 0-1.94693.3913-2.53101 1.0761-.58408.68477-.97347 1.66304-.97347 2.93477v16.53261c0 .19566-.09734.29348-.19469.48913-.09735.09783-.29204.19566-.48673.19566h-6.23017c-.1947 0-.29204-.09783-.48674-.19566-.09734-.09782-.19469-.29347-.19469-.48913v-25.82608c0-.19566.09735-.29348.1947-.48913.09734-.09783.29203-.19566.48673-.19566h6.23017c.1947 0 .29204.09783.48673.19566.09735.09782.1947.29347.1947.48913v1.36956c0 .09783 0 .19565.09734.19565.09735 0 .1947 0 .29204-.09782 1.36285-1.66305 3.21243-2.54348 5.6461-2.54348 2.62835 0 4.67262.7826 6.13282 2.44565zm24.5313 0c1.4602 1.66304 2.23897 3.91304 2.23897 6.84783v17.6087c0 .19565-.09734.29347-.19469.48912-.09735.09783-.29204.19566-.48673.19566h-6.23017c-.1947 0-.29204-.09783-.48674-.19566-.09734-.09782-.19469-.29347-.19469-.48913v-16.5326c0-1.27174-.29204-2.15218-.87612-2.93479-.58408-.68478-1.4602-1.07609-2.43366-1.07609-1.07081 0-1.94693.3913-2.531 1.0761-.58409.68477-.97347 1.66304-.97347 2.93477v16.53261c0 .19566-.09735.29348-.1947.48913-.09734.09783-.29203.19566-.48673.19566H150.249c-.1947 0-.29204-.09783-.48673-.19566-.09735-.09782-.1947-.29347-.1947-.48913v-25.82608c0-.19566.09735-.29348.1947-.48913.09735-.09783.29204-.19566.48673-.19566h6.23017c.1947 0 .29204.09783.48674.19566.09734.09782.19469.29347.19469.48913v1.36956c0 .09783 0 .19565.09735.19565.09734 0 .19469 0 .29203-.09782 1.36285-1.66305 3.21244-2.54348 5.6461-2.54348 2.62835 0 4.67263.7826 6.13282 2.44565zm18.69052 18.48913c.68143-.48913 1.16816-1.07609 1.4602-1.76087.1947-.3913.48673-.48913.77877-.3913l5.06202 1.07608c.38938.09783.58408.3913.48673.78261-.68143 2.34783-1.94693 4.1087-3.79651 5.47826-1.84958 1.27174-4.08855 1.95653-6.81425 1.95653-2.82305 0-5.15937-.68479-7.1063-2.15218-1.84958-1.46739-3.11508-3.32608-3.69916-5.67391-.48673-1.76087-.77877-3.91304-.77877-6.55435 0-1.76087.09734-3.22826.1947-4.30435.38938-2.93478 1.46019-5.18478 3.40712-6.84782 1.94693-1.66305 4.47793-2.44565 7.69037-2.44565 3.40712 0 6.03548.88043 7.88506 2.6413 1.84958 1.76087 2.9204 4.30435 3.21243 7.5326.1947 1.8587.29204 3.7174.29204 5.47827 0 .3913-.1947.58696-.68142.58696h-14.0179c-.19469 0-.29203.09782-.29203.29347 0 .78261.09734 1.36957.1947 1.8587.19468.97826.68142 1.76087 1.36284 2.34783.77877.58695 1.6549.88043 2.82305.88043.87612-.09783 1.75223-.3913 2.33631-.7826zm-6.5222-11.54348c-.09736.3913-.09736.97826-.1947 1.8587 0 .19565.09734.29348.29204.29348h7.00894c.1947 0 .29204-.09783.29204-.29348 0-.3913-.09735-.97826-.1947-1.76087-.09734-.97826-.48672-1.76087-1.16815-2.34783-.58408-.58695-1.4602-.88043-2.43366-.88043-2.04428.09782-3.21243 1.17391-3.60182 3.13043zm21.41621 16.33696c-1.94693-1.4674-3.11509-3.52174-3.60182-6.16304-.29204-1.4674-.38939-3.32609-.38939-5.67392 0-1.76087.09735-3.61956.3894-5.57608.48672-2.54348 1.65488-4.59783 3.60181-6.06522 1.94693-1.4674 4.47794-2.25 7.39833-2.25 2.9204 0 5.35405.68478 7.30098 2.15217 1.94693 1.4674 3.21244 3.32609 3.69917 5.67392.09734.29347.09734.7826.1947 1.56521 0 .3913-.1947.58696-.68143.68479l-6.13283.58695h-.09735c-.29204 0-.48673-.19565-.58408-.58695 0-.29348 0-.3913-.09734-.48913-.09735-.29348-.09735-.48913-.1947-.78261-.19469-.68479-.58407-1.27174-1.2655-1.76087-.58408-.48913-1.36285-.68479-2.23897-.68479-.97346 0-1.75223.29348-2.33631.88044-.58408.58696-.97347 1.36956-1.16816 2.34783-.1947 1.1739-.29204 2.6413-.29204 4.40217 0 1.95652.09735 3.42391.38939 4.5.19469.97826.58408 1.66304 1.16815 2.25.58408.58696 1.36285.88043 2.33632.88043 1.07081 0 1.84958-.29347 2.531-.88043.58409-.58696.97347-1.27174 1.07082-2.15217l.09734-.58696c0-.19565.09735-.29348.1947-.48913.09734-.09783.29204-.19565.48673-.09783l6.23017.48913c.38939.09783.58408.29348.58408.68479 0 .19565 0 .58695-.09734 1.07608-.3894 2.54348-1.55755 4.59783-3.50448 6.06522-1.94693 1.4674-4.47793 2.25-7.49567 2.25-3.11509 0-5.54875-.7826-7.49568-2.25zm35.23941-19.95652c-.09734.09782-.29204.19565-.48673.19565h-4.08855c-.1947 0-.29204.09783-.29204.29348v11.73913c0 1.07609.1947 1.8587.68143 2.34783.48673.48913 1.16815.68478 2.04427.68478h1.07081c.1947 0 .29204.09782.48673.19565.09735.09783.1947.29348.1947.48913v5.08696c0 .3913-.1947.58695-.68143.58695-.58408 0-1.4602.09783-2.7257.09783-2.82305 0-4.96467-.48913-6.32752-1.36957-1.36285-.88043-2.04427-2.6413-2.04427-5.18478v-14.67391c0-.19565-.09735-.29348-.29204-.29348h-2.43366c-.1947 0-.29204-.09783-.48674-.19565-.09734-.09783-.19469-.29348-.19469-.48913V106.185c0-.19565.09735-.29348.1947-.48913.09734-.09783.29203-.19565.48673-.19565h2.43366c.1947 0 .29204-.09783.29204-.29348v-5.9674c0-.19564.09734-.29347.1947-.48912.09734-.09783.29203-.19565.48672-.19565h5.93814c.19469 0 .29204.09782.48673.19565.09734.09782.1947.29348.1947.48913v6.06522c0 .19565.09734.29347.29203.29347h4.08855c.1947 0 .29204.09783.48673.19566.09735.09782.1947.29347.1947.48913v4.30434c0 .19566 0 .29348-.1947.3913zm19.0799-4.69565c1.6549.7826 3.01775 1.8587 3.89387 3.13043.97346 1.36957 1.4602 2.93478 1.4602 4.59783v18.09782c0 .19566-.09735.29348-.1947.48913-.09735.09783-.29204.19566-.48673.19566h-6.23018c-.19469 0-.29203-.09783-.48673-.19566-.09734-.09782-.1947-.29347-.1947-.48913v-1.46739c0-.09782 0-.19565-.09734-.19565s-.09734 0-.19469.09783c-1.4602 1.76087-3.60182 2.54347-6.42487 2.54347-2.43366 0-4.38059-.58695-6.03548-1.8587-1.65489-1.27173-2.43366-3.32608-2.43366-6.16304 0-5.77173 3.60182-8.6087 10.9028-8.6087h3.99121c.1947 0 .29204-.09782.29204-.29347v-1.17391c0-1.07609-.29204-1.8587-.97347-2.54348-.58407-.58696-1.4602-.97826-2.62835-.97826-.77877 0-1.55754.19565-2.04428.58696-.58407.3913-.97346.88043-1.0708 1.56521-.09735.3913-.3894.48913-.77878.48913l-6.5222-.3913c-.1947 0-.29205-.09783-.48674-.19565-.09735-.09783-.1947-.29348-.09735-.3913.1947-2.44566 1.2655-4.40218 3.30978-5.86957 2.04428-1.4674 4.57528-2.25 7.59302-2.25 2.33632.19565 4.1859.58695 5.93814 1.27174zm-3.50446 20.25c.87611-.68479 1.2655-1.56522 1.2655-2.6413v-2.25c0-.19566-.09735-.29349-.29204-.29349H251.684c-1.2655 0-2.33631.29348-3.01774.88044-.77877.58695-1.16816 1.36956-1.16816 2.44565 0 .88044.29204 1.66304.87612 2.15217.58408.48913 1.36285.78261 2.23897.78261 1.16816-.09782 2.23897-.3913 3.11509-1.07608zm30.85882-18.88044c1.4602 1.66304 2.23897 3.91304 2.23897 6.84783v17.6087c0 .19565-.09735.29347-.1947.48912-.09734.09783-.29203.19566-.48673.19566h-6.23017c-.1947 0-.29204-.09783-.48673-.19566-.09735-.09782-.1947-.29347-.1947-.48913v-16.5326c0-1.27174-.29203-2.15218-.87611-2.93479-.58408-.68478-1.4602-1.07609-2.43366-1.07609-1.07081 0-1.94693.3913-2.53101 1.0761-.58408.68477-.97347 1.66304-.97347 2.93477v16.53261c0 .19566-.09734.29348-.19469.48913-.09735.09783-.29204.19566-.48673.19566h-6.23017c-.1947 0-.29204-.09783-.48674-.19566-.09734-.09782-.19469-.29347-.19469-.48913V96.4024c0-.19565.09735-.29348.1947-.48913.09734-.09783.29203-.19565.48673-.19565h6.23017c.1947 0 .29204.09782.48673.19565.09735.09783.1947.29348.1947.48913v11.25c0 .09783 0 .19565.09734.19565.09735 0 .1947 0 .29204-.09782 1.36285-1.66305 3.21243-2.54348 5.6461-2.54348 2.62835 0 4.67262.7826 6.13282 2.44565zm22.09764-1.36956c1.6549.7826 3.01774 1.8587 3.89386 3.13043.97347 1.36957 1.4602 2.93478 1.4602 4.59783v18.09782c0 .19566-.09735.29348-.1947.48913-.09734.09783-.29203.19566-.48673.19566h-6.23017c-.1947 0-.29204-.09783-.48673-.19566-.09735-.09782-.1947-.29347-.1947-.48913v-1.46739c0-.09782 0-.19565-.09734-.19565-.09735 0-.09735 0-.1947.09783-1.4602 1.76087-3.60181 2.54347-6.42486 2.54347-2.43366 0-4.38059-.58695-6.03548-1.8587-1.65489-1.27173-2.43366-3.32608-2.43366-6.16304 0-5.77173 3.60182-8.6087 10.9028-8.6087h3.9912c.1947 0 .29205-.09782.29205-.29347v-1.17391c0-1.07609-.29204-1.8587-.97347-2.54348-.58408-.58696-1.4602-.97826-2.62835-.97826-.77877 0-1.55755.19565-2.04428.58696-.58408.3913-.97346.88043-1.07081 1.56521-.09735.3913-.38939.48913-.77877.48913l-6.52221-.3913c-.1947 0-.29204-.09783-.48674-.19565-.09734-.09783-.19469-.29348-.09734-.3913.1947-2.44566 1.2655-4.40218 3.30978-5.86957 2.04427-1.4674 4.57528-2.25 7.59302-2.25 2.33631.19565 4.28324.58695 5.93813 1.27174zm-3.50447 20.25c.87612-.68479 1.2655-1.56522 1.2655-2.6413v-2.25c0-.19566-.09734-.29349-.29203-.29349H301.136c-1.2655 0-2.33632.29348-3.01774.88044-.77878.58695-1.16816 1.36956-1.16816 2.44565 0 .88044.29204 1.66304.87612 2.15217.58407.48913 1.36285.78261 2.23896.78261 1.2655-.09782 2.23897-.3913 3.1151-1.07608z"/><path d="M37.425 111.37l2.628 8.119h8.664l2.629-8.119-7.009-4.99z"/><path fill="#595A5C" fill-rule="nonzero" d="M61.76163 103.6413l-3.50448-2.54347 2.82305-3.81522S61.76163 96.5 59.91204 96.5c-1.2655 0-4.86732.58696-6.9116.88043L48.61987 94.25c-.38939-.29348-.87612-.19565-1.07082.19565L44.33661 98.75l-3.21243 4.40217c-.29204.3913-.1947.78261.1947 1.0761l3.01773 2.15216 7.00895 4.98914 1.16815-3.52174c.09735-.3913.58408-.68479.97347-.48913l5.2567 1.66304 3.21244-4.30435c.1947-.29348.09735-.7826-.1947-1.07609z"/><path fill="#595A5C" fill-rule="nonzero" d="M65.75283 122.91304c-.38939-1.17391-2.04427-4.40217-3.01774-6.16304l1.65489-5.08696c.09735-.3913-.09735-.88043-.48673-.97826l-5.15936-1.66304-5.25671-1.66304c-.38939-.09783-.87612.09782-.97347.48913l-1.16815 3.52174-2.62836 8.11956h3.79651c.48674 0 .77878.3913.77878.7826V125.75l5.15936 1.66304c.38938.09783.87611-.09782.97346-.48913l1.36285-4.01087 4.57528 1.4674c-.09734-.09783.97347.19565.3894-1.4674z"/><path fill="#595A5C" fill-rule="nonzero" d="M52.41637 119.48913H39.95602l1.16816 3.52174c.09735.3913-.09735.88043-.48673.97826l-5.25671 1.66304v5.28261c0 .3913.38938.78261.77877.78261h4.28324v4.69565s-.09734 1.07609 1.4602 0c1.07081-.7826 3.60182-3.32608 5.06202-4.69565h5.35405c.48673 0 .77877-.3913.77877-.7826V120.1739c.1947-.29348-.1947-.68478-.68142-.68478zm-11.0975-15.26087c-.38938-.29348-.48673-.7826-.1947-1.07609L44.33662 98.75l-3.21243-4.30435c-.29204-.3913-.77877-.3913-1.07081-.19565l-3.50447 2.54348-2.82305-3.81522s-.58408-.88043-1.16816.78261c-.38938 1.17391-.97346 4.79348-1.2655 6.75l-4.3806 3.13043c-.29203.29348-.38938.78261-.09734 1.0761l3.21243 4.30434 3.21244 4.40217c.29204.3913.77877.3913 1.0708.19566l3.01775-2.15218 7.00894-4.98913-3.01774-2.25z"/><path fill="#595A5C" fill-rule="nonzero" d="M41.22153 123.01087l-1.16816-3.52174-2.62836-8.11956-3.01774 2.15217c-.38938.29348-.87611.19565-1.0708-.19565l-3.21244-4.40218-5.2567 1.76087c-.3894.09783-.58409.58696-.48674.97826l1.36285 4.01087-4.57528 1.4674s-1.07081.29347.38938 1.36956c1.07081.7826 4.28325 2.34783 6.13283 3.22826l1.65489 5.08696c.09735.3913.58408.68478.97346.48913l5.15937-1.66305 5.2567-1.66304c.38939-.09783.68143-.58696.48674-.97826z"/><path d="M36.803 109.736l2.654 8.427h8.344l2.654-8.427-6.826-5.178z"/><path fill="#CEEAFA" fill-rule="nonzero" d="M61.64557 102.88524l-3.47664-2.6171 2.80062-3.92566s.67602-.80526-1.15888-.80526c-1.25545 0-4.82866.60395-6.8567.90592l-4.3458-3.22105c-.38628-.30197-.86915-.20131-1.0623.20132l-3.18691 4.42894-3.18692 4.5296c-.28972.40263-.19315.90592.19315 1.10724l2.99377 2.21447 6.95327 5.13355 1.15888-3.62368c.09657-.40263.57944-.7046.96573-.5033l5.21496 1.7112 3.18691-4.42895c.28972-.30198.19315-.80526-.19314-1.10724z"/><path fill="#FFF" fill-rule="nonzero" d="M64.97586 122.15633c-.4039-1.16104-2.12054-4.3539-3.13032-6.1922l1.71663-5.03117c.10098-.38701-.10098-.87078-.5049-.96753l-5.35184-1.6448-5.45283-1.64481c-.40392-.09675-.9088.09675-1.00979.48376l-1.21174 3.48312-2.72641 8.03052h3.93815c.5049 0 .80783.38701.80783.77402v5.41818l5.35185 1.6448c.40391.09676.9088-.09675 1.00978-.48376l1.4137-4.06363 4.74598 1.4513c-.10098.09675 1.00978.48376.40391-1.2578z"/><path fill="#174998" fill-rule="nonzero" d="M51.85085 118.1628H39.30806l1.17589 3.56033c.09799.3956-.098.89008-.48995.98898l-5.2915 1.68127v5.4394c0 .3956.39197.7912.78393.7912h4.31159v4.846s-.098 1.08789 1.46985 0c1.0779-.79118 3.62565-3.36253 5.0955-4.846h5.38949c.48995 0 .78392-.3956.78392-.7912v-10.97769c.098-.2967-.19598-.69229-.68593-.69229z"/><path fill="#9CC9EC" fill-rule="nonzero" d="M40.04692 103.44325c-.39445-.29246-.49306-.7799-.19722-1.07237l3.25424-4.38699-3.15563-4.2895c-.29584-.38995-.7889-.38995-1.08475-.19498l-3.55009 2.5347-2.85979-3.80205s-.59168-.8774-1.18336.77991c-.39446 1.16987-.98614 4.77694-1.28198 6.72672l-4.4376 3.11963c-.29585.29247-.39446.77991-.19723 1.07238l3.25424 4.2895 3.25425 4.38698c.29584.38996.7889.38996 1.08475.19498l3.05702-2.14475 7.10017-4.97192-3.05702-2.24224z"/><path fill="#467ABE" fill-rule="nonzero" d="M39.92967 122.07748l-1.13944-3.59495-2.56375-8.28836-3.0385 2.19691c-.37982.29958-.85458.19972-1.04449-.19972l-3.13346-4.49369-5.03253 1.69762c-.37981.09986-.56972.59916-.47477.9986l1.32935 4.1941-4.4628 1.4979s-1.0445.29959.3798 1.39804c1.0445.79888 4.17795 2.39664 5.98207 3.39524l1.51925 5.09284c.09495.39944.56972.69902.94953.4993l5.03253-1.69761 5.12749-1.69762c.47476-.09986.66467-.4993.56972-.9986z"/></g></svg>