<svg xmlns="http://www.w3.org/2000/svg" width="332" height="228"><g fill="#50C6DB"><path d="M56.7661 81.88253c-18.13695 0-32.87322 14.64458-32.87322 32.66867 0 18.0241 14.73627 32.66868 32.87322 32.66868 18.13695 0 32.87322-14.64458 32.87322-32.66868 0-18.0241-14.68474-32.66867-32.87322-32.66867zm-8.81085 4.60843c2.78238-.87048 5.71933-1.33132 8.81085-1.33132 3.19458 0 6.2861.51205 9.17153 1.43373-1.90644 1.28012-3.2461 3.0723-3.96746 5.2229-1.23661 3.73795.05152 7.16867 1.23661 10.13855l.10305.30723c.66983 1.79217.97898 4.04518-.72136 5.63253-.72135-.61446-1.49423-1.1265-2.42169-1.53615.25763-3.68674-1.90644-6.91265-6.02847-8.80723l-.30916-.15361c-2.73084-1.22892-5.10101-2.30422-6.23457-4.50602-1.28814-2.45784-.56678-4.76205.30915-6.3494l.05152-.0512zm13.49967 27.95784c0 2.56024-2.06102 4.60843-4.6373 4.60843-2.57626 0-4.63728-2.0482-4.63728-4.60843 0-2.56025 2.06102-4.60844 4.63729-4.60844s4.63729 2.0994 4.63729 4.60844zM42.90576 88.59036c-.36068 2.1506 0 4.3012 1.03051 6.24699 1.85492 3.48193 5.20407 5.01807 8.19254 6.3494l.30916.15361c1.75186.76807 3.60678 2.1506 3.6583 4.40362-.97898.0512-1.90644.30722-2.78237.66566-2.47322-2.81627-6.33763-3.63554-10.61424-2.1506l-.36068.1024c-2.78237 1.0241-5.20406 1.89458-7.67729 1.0753-2.47322-.76807-3.70983-2.71385-4.2766-4.25 2.78237-5.27409 7.1105-9.7289 12.52067-12.59638zm-14.3756 34.61446c-.8244-2.71386-1.28813-5.63253-1.28813-8.65362 0-2.91867.46373-5.78614 1.23661-8.44879 1.28814 1.58735 2.98848 2.71386 4.94644 3.32831 3.81289 1.22892 7.26509 0 10.35661-1.1265l.36068-.10241c1.85492-.66567 4.22509-.9729 5.92543.76807-.56678.66566-1.03051 1.43373-1.33966 2.25301-3.86441-.35843-7.26509 1.68976-9.17153 5.78615l-.15458.30723c-1.2366 2.61144-2.31864 4.91566-4.58576 6.04216-2.31864 1.12651-4.63729.56326-6.13152-.1024l-.15458-.05121zm14.06645 17.1024c-5.15254-2.81626-9.37763-7.11746-12.10847-12.34035.46372.0512.92745.1024 1.39118.1024 1.64882 0 3.19458-.35843 4.68882-1.0753 3.60678-1.74096 5.15254-5.06927 6.4922-7.93674l.15458-.30723c.8244-1.74096 2.31864-3.63554 4.84339-3.48193.10305.87048.30915 1.74097.6183 2.50904-2.98847 2.40662-3.8644 6.24699-2.2156 10.49699l.10306.35843c1.0305 2.71386 1.95796 5.06928 1.18508 7.4247-.87593 2.61144-3.09152 3.73795-4.84339 4.25h-.30915zM65.68 142.56025c-2.8339.87048-5.82237 1.38253-8.9139 1.38253-3.14305 0-6.23457-.51205-9.06847-1.43373 1.90644-1.28012 3.2461-3.0723 3.96745-5.2229 1.23661-3.73795-.05152-7.16867-1.2366-10.13855l-.10306-.30723c-.66983-1.79217-1.0305-4.09638.82441-5.73494.72136.61446 1.49424 1.0753 2.31864 1.43374-.36067 3.73795 1.8034 7.06626 6.02848 8.96084l.30915.15361c2.73085 1.22892 5.10102 2.30422 6.23458 4.50603 1.28813 2.45783.56678 4.76205-.30915 6.3494.05152-.0512.05152.0512-.05153.0512zm5.10102-2.1506c.30915-2.1506-.05153-4.25-1.03051-6.19578-1.85492-3.48193-5.20407-5.01808-8.19254-6.3494l-.30916-.15362c-1.80339-.81927-3.70983-2.253-3.6583-4.60843.92746-.10241 1.80339-.30723 2.6278-.61446 2.47322 2.91868 6.38915 3.84036 10.71728 2.30422l.36068-.10241c2.78237-1.0241 5.20407-1.89458 7.67729-1.0753 2.4217.76807 3.6583 2.61144 4.22508 4.14759-2.73084 5.3253-7.05898 9.78012-12.41762 12.64759zm15.56067-25.85844c0 2.91868-.4122 5.73494-1.2366 8.3976-1.28814-1.53615-2.93695-2.66266-4.89492-3.27711-3.81288-1.22892-7.26509 0-10.35661 1.1265l-.36068.10241c-1.90644.66567-4.32813.9729-6.02847-.87048.56678-.66566.97898-1.38253 1.33966-2.1506.36068.0512.66983.0512.97898.0512 3.50373 0 6.4922-2.0994 8.2956-5.83735l.15457-.30723c1.23661-2.61144 2.31864-4.91566 4.58576-6.04216 2.31865-1.12651 4.6373-.61446 6.18305.1024.87594 2.76507 1.33966 5.68374 1.33966 8.70482zm-9.27457-12.44277c-3.60678 1.74097-5.15254 5.06928-6.4922 7.93675l-.15458.30723c-.8244 1.79217-2.31865 3.68675-4.89492 3.48193-.05152-.87048-.25762-1.74097-.56678-2.50904 2.98848-2.40663 3.86441-6.24699 2.2156-10.49699l-.15458-.35843c-1.0305-2.71386-1.95797-5.06928-1.18508-7.4247.87593-2.61145 3.09152-3.73795 4.84339-4.25l.2061-.0512c5.15254 2.81626 9.37762 7.11747 12.10847 12.34036-2.00949-.25603-4.0705.1024-5.92542 1.0241z"/><path d="M56.7661 72.92169c-23.13491 0-41.89017 18.63855-41.89017 41.62951 0 22.99097 18.75526 41.62952 41.89017 41.62952 23.13492 0 41.89017-18.63855 41.89017-41.62952 0-22.99096-18.75525-41.62951-41.89017-41.62951zm0 77.98494c-20.19796 0-36.63457-16.33434-36.63457-36.40663S36.61966 78.14458 56.7661 78.14458c20.19797 0 36.63458 16.33434 36.63458 36.40662 0 20.0723-16.43661 36.35543-36.63458 36.35543zm34.8312-70.66265c-3.91593-3.94278-8.96543-6.81025-13.49966-7.73193-.25763-.0512-.56678.1024-.66983.35843-.10305.25603.05152.56325.30915.66566 4.2766 1.94579 8.45017 4.86446 12.00542 8.4488 3.60678 3.63554 6.54373 7.78313 8.45017 12.08434.10305.20482.30915.35843.51526.35843.05152 0 .10305 0 .15457-.0512.25763-.10241.46373-.35844.36068-.66567-.92746-4.65964-3.6583-9.5241-7.62576-13.46686zm-55.9051 75.27108c-4.2766-1.94578-8.45017-4.86446-12.00542-8.4488-3.60678-3.63554-6.54373-7.78313-8.45017-12.08433-.10305-.25603-.4122-.40964-.66983-.30723-.25763.1024-.46373.35843-.36068.66566.97898 4.76205 3.70983 9.5753 7.67729 13.56928 3.91593 3.94277 8.96542 6.81024 13.49966 7.73193h.10305c.25763 0 .46373-.15362.51526-.40964.10305-.30723-.05153-.61446-.30916-.71687zm96.71322-57.50301H116.9478c-.51526 0-.92746.40964-.92746.92168v31.54217c0 .51205.4122.92169.92746.92169h3.09152c.51526 0 .92746-.40964.92746-.92169v-13.41566h9.99593c.51526 0 .92746-.40964.92746-.92169v-3.07228c0-.51205-.4122-.9217-.92746-.9217h-9.99593v-9.31927h11.43864c.51526 0 .92746-.40964.92746-.92169v-3.07228c0-.46085-.4122-.81928-.92746-.81928zm23.85627 28.46988h-11.43864v-27.5994c0-.51205-.4122-.92169-.92746-.92169h-3.09152c-.51526 0-.92746.40964-.92746.92169v31.54217c0 .51205.4122.92169.92746.92169h15.45762c.51526 0 .92746-.40964.92746-.9217v-3.07228c-.05152-.46084-.46373-.87048-.92746-.87048zm21.58916-28.6235h-3.4522c-.30916 0-.61831.20482-.77289.46085l-7.00746 12.8524-7.1105-12.8524c-.15458-.30723-.46373-.46085-.77289-.46085h-3.4522c-.30915 0-.6183.15362-.77288.46085-.15458.25602-.15458.61445 0 .87048l9.63525 17.61446v13.62048c0 .51205.4122.92169.92746.92169h3.09153c.51525 0 .92745-.40964.92745-.9217v-13.31324l9.63526-17.9729c.15458-.25602.15458-.61445 0-.87048-.25763-.20482-.56678-.40964-.87593-.40964zm138.91254 28.6235h-11.43864v-27.5994c0-.51205-.4122-.92169-.92746-.92169h-3.09153c-.51525 0-.92746.40964-.92746.92169v31.54217c0 .51205.4122.92169.92746.92169h15.45763c.51525 0 .92746-.40964.92746-.9217v-3.07228c0-.46084-.4122-.87048-.92746-.87048zm-73.93898-28.46988h-3.09153c-.51525 0-.92746.40964-.92746.92168v13.26205h-11.07796V98.93373c0-.51204-.4122-.92168-.92746-.92168h-3.09153c-.51525 0-.92745.40964-.92745.92168v31.54217c0 .51205.4122.92169.92745.92169H226.8c.51525 0 .92746-.40964.92746-.92169v-13.41566h11.07796v13.41566c0 .51205.4122.92169.92746.92169h3.09153c.51525 0 .92745-.40964.92745-.92169V98.93373c-.05152-.56325-.46372-.92168-.92745-.92168zm24.88678 0h-15.66373c-.51526 0-.92746.40964-.92746.92168v31.54217c0 .51205.4122.92169.92746.92169h15.66373c.51525 0 .92745-.40964.92745-.92169v-3.07229c0-.51204-.4122-.92168-.92745-.92168h-11.64475v-9.42169h10.1505c.51526 0 .92747-.40964.92747-.92169v-3.07228c0-.51205-.4122-.9217-.92746-.9217h-10.1505v-9.31927h11.64474c.51525 0 .92745-.40964.92745-.92169v-3.07228c0-.46085-.4122-.81928-.92745-.81928zm24.68067 0h-15.6122c-.51525 0-.92746.40964-.92746.92168v31.54217c0 .51205.4122.92169.92746.92169h15.66373c.51525 0 .92746-.40964.92746-.92169v-3.07229c0-.51204-.4122-.92168-.92746-.92168h-11.64475v-9.42169h10.20204c.51525 0 .92746-.40964.92746-.92169v-3.07228c0-.51205-.4122-.9217-.92746-.9217h-10.20204v-9.31927h11.64475c.51525 0 .92746-.40964.92746-.92169v-3.07228c-.05153-.46085-.46373-.81928-.97899-.81928zm-75.84542-.0512h-3.40068c-.30915 0-.56678.20481-.6183.51204l-5.20407 22.3253-5.30712-22.3765c-.05152-.30723-.30915-.51205-.6183-.51205h-3.4522c-.30916 0-.56679.20482-.61831.51205l-5.30712 22.3253-5.20407-22.3253c-.05152-.30723-.30915-.51205-.6183-.51205h-3.40068c-.2061 0-.36068.1024-.51526.25602-.10305.15362-.15457.35844-.10305.56326l7.52271 32.10542c0 .1024.05153.20482.15458.30723.10305.15361.30915.25602.51525.25602h3.40068c.30916 0 .56678-.20482.6183-.51205l5.35865-22.4277 5.30712 22.4277c.05153.30723.30915.51205.6183.51205h3.40068c.30916 0 .56678-.20482.6183-.51205l7.52272-32.15662c.05153-.20482 0-.40964-.10305-.56326-.2061-.1024-.4122-.20482-.56678-.20482z"/></g></svg>