<svg xmlns="http://www.w3.org/2000/svg" width="332" height="228"><g fill="#50C6DB"><path d="M56.7661017 81.88253012c-18.1369492 0-32.87322034 14.64457828-32.87322034 32.66867468 0 18.0240964 14.73627114 32.6686747 32.87322034 32.6686747 18.1369491 0 32.8732203-14.6445783 32.8732203-32.6686747 0-18.0240964-14.6847457-32.66867468-32.8732203-32.66867468zm-8.8108475 4.60843378c2.7823729-.870482 5.7193221-1.3313253 8.8108475-1.3313253 3.1945763 0 6.2861017.5120481 9.1715254 1.4337349-1.9064407 1.2801205-3.2461017 3.0722892-3.9674576 5.2228916-1.2366102 3.7379518.0515254 7.1686747 1.2366102 10.1385542l.1030508.3072289c.6698305 1.7921687.9789831 4.0451807-.7213559 5.6325301-.721356-.6144578-1.4942373-1.126506-2.4216949-1.5361446.2576271-3.686747-1.9064407-6.9126506-6.0284746-8.8072289l-.3091526-.1536144c-2.7308474-1.2289157-5.1010169-2.3042169-6.2345762-4.5060241-1.2881356-2.4578314-.5667797-4.7620482.3091525-6.3493976l.0515254-.0512048zm13.4996611 27.9578313c0 2.5602409-2.061017 4.6084337-4.6372882 4.6084337-2.5762712 0-4.6372881-2.0481928-4.6372881-4.6084337 0-2.560241 2.0610169-4.6084338 4.6372881-4.6084338 2.5762712 0 4.6372882 2.0993976 4.6372882 4.6084338zM42.9057627 88.5903614c-.360678 2.1506025 0 4.3012049 1.0305085 6.246988 1.8549152 3.4819277 5.2040678 5.0180723 8.1925424 6.3493976l.3091525.1536144c1.7518644.7680723 3.6067797 2.1506025 3.6583051 4.4036145-.9789831.0512048-1.9064407.3072289-2.7823729.6656627-2.4732203-2.8162651-6.3376271-3.6355422-10.6142373-2.1506025l-.3606779.1024097c-2.7823729 1.0240964-5.2040678 1.8945783-7.6772882 1.0753012-2.4732203-.7680723-3.7098305-2.7138554-4.2766102-4.25 2.7823729-5.2740964 7.1105085-9.7289157 12.520678-12.5963856zm-14.3755932 34.6144579c-.8244068-2.7138554-1.2881356-5.6325301-1.2881356-8.6536145 0-2.9186747.4637288-5.7861446 1.2366102-8.4487952 1.2881356 1.5873494 2.9884745 2.7138555 4.9464406 3.3283133 3.8128814 1.2289157 7.2650848 0 10.3566102-1.126506l.360678-.1024097c1.8549152-.6656626 4.2250847-.9728915 5.9254237.7680723-.5667797.6656627-1.0305085 1.433735-1.339661 2.2530121-3.8644068-.3584338-7.2650848 1.689759-9.1715254 5.7861445l-.1545763.307229c-1.2366102 2.6114457-2.3186441 4.9156626-4.5857627 6.0421686-2.3186441 1.1265061-4.6372881.563253-6.1315254-.1024096l-.1545763-.0512048zm14.0664407 17.1024096c-5.1525424-2.816265-9.3776271-7.1174699-12.1084746-12.3403614.4637288.0512048.9274576.1024096 1.3911864.1024096 1.6488136 0 3.1945763-.3584337 4.6888136-1.0753012 3.6067797-1.7409639 5.1525424-5.0692771 6.4922034-7.936747l.1545763-.3072289c.8244067-1.7409639 2.318644-3.6355422 4.8433898-3.4819277.1030508.8704819.3091525 1.7409638.6183051 2.5090361-2.9884746 2.4066265-3.8644068 6.246988-2.2155933 10.496988l.1030509.3584337c1.0305085 2.7138554 1.9579661 5.0692771 1.1850847 7.4246988-.8759322 2.6114458-3.0915254 3.7379518-4.8433898 4.25h-.3091525zM65.68 142.560241c-2.8338983.8704819-5.8223729 1.3825301-8.9138983 1.3825301-3.1430509 0-6.2345763-.5120482-9.0684746-1.433735 1.9064407-1.2801204 3.2461017-3.0722891 3.9674576-5.2228915 1.2366102-3.7379518-.0515254-7.1686747-1.2366101-10.1385542l-.1030509-.307229c-.6698305-1.7921686-1.0305084-4.0963855.8244068-5.7349397.7213559.6144578 1.4942373 1.0753012 2.3186441 1.4337349-.360678 3.7379518 1.8033898 7.0662651 6.0284746 8.9608434l.3091525.1536145c2.7308475 1.2289156 5.1010169 2.3042168 6.2345763 4.5060241 1.2881356 2.4578313.5667796 4.7620481-.3091526 6.3493975.0515254-.0512048.0515254.0512049-.0515254.0512049zm5.1010169-2.1506024c.3091526-2.1506025-.0515254-4.25-1.0305084-6.1957832-1.8549153-3.4819277-5.2040678-5.0180723-8.1925424-6.3493976l-.3091525-.1536144c-1.8033899-.8192771-3.7098305-2.2530121-3.6583051-4.6084338.9274576-.1024096 1.8033898-.3072289 2.6277966-.6144578 2.4732203 2.9186747 6.3891525 3.8403615 10.7172881 2.3042169l.360678-.1024097c2.7823729-1.0240963 5.2040678-1.8945783 7.6772881-1.0753012 2.4216949.7680723 3.6583051 2.6114458 4.2250848 4.1475904-2.7308475 5.3253012-7.0589831 9.7801205-12.4176272 12.6475904zm15.560678-25.8584338c0 2.9186747-.4122034 5.7349398-1.2366102 8.3975904-1.2881355-1.5361446-2.9369491-2.6626506-4.8949152-3.2771085-3.8128814-1.2289156-7.2650848 0-10.3566102 1.1265061l-.3606779.1024096c-1.9064407.6656627-4.3281356.9728916-6.0284746-.8704819.5667796-.6656627.978983-1.3825301 1.339661-2.1506024.360678.0512048.6698305.0512048.978983.0512048 3.5037289 0 6.4922034-2.0993976 8.2955933-5.8373494l.1545762-.3072289c1.2366102-2.6114458 2.3186441-4.9156627 4.5857628-6.0421687 2.318644-1.126506 4.6372881-.6144578 6.1830508.1024096.8759322 2.7650603 1.339661 5.683735 1.339661 8.7048193zm-9.2745763-12.4427711c-3.6067796 1.7409639-5.1525423 5.0692771-6.4922033 7.936747l-.1545763.3072289c-.8244068 1.7921687-2.3186441 3.686747-4.8949153 3.4819277-.0515254-.8704819-.2576271-1.7409638-.5667796-2.5090361 2.9884745-2.4066265 3.8644067-6.2469879 2.2155932-10.4969879l-.1545763-.3584338c-1.0305085-2.7138554-1.9579661-5.0692771-1.1850847-7.4246988.8759322-2.6114458 3.0915254-3.7379518 4.8433898-4.25l.2061017-.0512048c5.1525424 2.8162651 9.3776271 7.1174699 12.1084746 12.3403614-2.0094916-.256024-4.0705085.1024097-5.9254238 1.0240964z"/><path d="M56.7661017 72.92168675c-23.1349153 0-41.8901695 18.63855425-41.8901695 41.62951805 0 22.9909639 18.7552542 41.6295181 41.8901695 41.6295181 23.1349152 0 41.8901695-18.6385542 41.8901695-41.6295181 0-22.9909638-18.7552543-41.62951805-41.8901695-41.62951805zm0 77.98493975c-20.1979661 0-36.63457628-16.3343373-36.63457628-36.4066265S36.619661 78.14457831 56.7661017 78.14457831c20.1979661 0 36.6345763 16.33433739 36.6345763 36.40662649 0 20.0722892-16.4366102 36.3554217-36.6345763 36.3554217zm34.8311864-70.6626506c-3.9159322-3.94277108-8.9654237-6.81024096-13.499661-7.7319277-.2576271-.05120483-.5667796.10240963-.6698305.35843373-.1030508.25602409.0515254.56325301.3091526.66566265 4.2766101 1.94578313 8.4501694 4.86445783 12.0054237 8.44879518 3.6067796 3.63554214 6.5437288 7.78313254 8.4501695 12.08433734.1030508.2048193.3091525.3584337.5152542.3584337.0515254 0 .1030509 0 .1545763-.0512048.2576271-.1024096.4637288-.3584337.3606779-.6656626-.9274576-4.6596386-3.658305-9.5240964-7.6257627-13.4668675zm-55.9050847 75.2710843c-4.2766102-1.9457831-8.4501695-4.8644578-12.00542374-8.4487951-3.60677966-3.6355422-6.54372881-7.7831326-8.45016949-12.0843374-.10305085-.2560241-.41220339-.4096385-.6698305-.3072289-.25762713.1024096-.46372882.3584337-.36067798.6656626.97898306 4.7620482 3.70983051 9.5753013 7.67728814 13.5692772 3.91593217 3.942771 8.96542377 6.8102409 13.49966097 7.7319277h.1030509c.2576271 0 .4637288-.1536145.5152542-.4096386.1030509-.3072289-.0515254-.6144578-.3091525-.7168675zm96.7132206-57.503012h-15.457627c-.515255 0-.927458.4096385-.927458.9216867v31.5421687c0 .5120482.412203.9216868.927458.9216868h3.091525c.515254 0 .927458-.4096386.927458-.9216868V117.060241h9.995932c.515254 0 .927457-.4096386.927457-.9216868v-3.0722891c0-.5120482-.412203-.9216868-.927457-.9216868h-9.995932v-9.3192771h11.438644c.515254 0 .927457-.4096385.927457-.9216867v-3.0722892c0-.4608434-.412203-.8192771-.927457-.8192771zm23.856271 28.4698795h-11.438644V98.8825301c0-.5120482-.412204-.9216867-.927458-.9216867h-3.091525c-.515254 0-.927458.4096385-.927458.9216867v31.5421687c0 .5120482.412204.9216867.927458.9216867h15.457627c.515254 0 .927458-.4096385.927458-.9216867v-3.0722892c-.051526-.4608433-.463729-.8704819-.927458-.8704819zm21.589152-28.623494h-3.452203c-.309152 0-.618305.2048193-.772881.4608434l-7.007458 12.8524096-7.110508-12.8524096c-.154577-.3072289-.463729-.4608434-.772882-.4608434h-3.452203c-.309153 0-.618305.1536145-.772881.4608434-.154577.2560241-.154577.6144578 0 .8704819l9.635254 17.6144579v13.6204819c0 .5120482.412203.9216867.927457.9216867h3.091526c.515254 0 .927457-.4096385.927457-.9216867v-13.313253l9.635255-17.9728916c.154576-.2560241.154576-.6144578 0-.8704819-.257627-.2048193-.56678-.4096386-.875933-.4096386zm138.912543 28.623494h-11.438644V98.8825301c0-.5120482-.412204-.9216867-.927458-.9216867h-3.091525c-.515255 0-.927458.4096385-.927458.9216867v31.5421687c0 .5120482.412203.9216867.927458.9216867h15.457627c.515254 0 .927457-.4096385.927457-.9216867v-3.0722892c0-.4608433-.412203-.8704819-.927457-.8704819zm-73.938983-28.4698795h-3.091526c-.515254 0-.927457.4096385-.927457.9216867v13.2620482h-11.077966V98.9337349c0-.5120482-.412204-.9216867-.927458-.9216867h-3.091525c-.515255 0-.927458.4096385-.927458.9216867v31.5421687c0 .5120482.412203.9216868.927458.9216868H226.8c.515254 0 .927458-.4096386.927458-.9216868V117.060241h11.077966v13.4156626c0 .5120482.412203.9216868.927457.9216868h3.091526c.515254 0 .927457-.4096386.927457-.9216868V98.9337349c-.051525-.563253-.463728-.9216867-.927457-.9216867zm24.886779 0h-15.663728c-.515255 0-.927458.4096385-.927458.9216867v31.5421687c0 .5120482.412203.9216868.927458.9216868h15.663728c.515255 0 .927458-.4096386.927458-.9216868v-3.0722891c0-.5120482-.412203-.9216868-.927458-.9216868h-11.644745v-9.4216867h10.150508c.515254 0 .927458-.4096386.927458-.9216868v-3.0722891c0-.5120482-.412204-.9216868-.927458-.9216868h-10.150508v-9.3192771h11.644745c.515255 0 .927458-.4096385.927458-.9216867v-3.0722892c0-.4608434-.412203-.8192771-.927458-.8192771zm24.680678 0h-15.612203c-.515254 0-.927458.4096385-.927458.9216867v31.5421687c0 .5120482.412204.9216868.927458.9216868h15.663729c.515254 0 .927457-.4096386.927457-.9216868v-3.0722891c0-.5120482-.412203-.9216868-.927457-.9216868h-11.644746v-9.4216867h10.202034c.515254 0 .927458-.4096386.927458-.9216868v-3.0722891c0-.5120482-.412204-.9216868-.927458-.9216868h-10.202034v-9.3192771h11.644746c.515254 0 .927457-.4096385.927457-.9216867v-3.0722892c-.051525-.4608434-.463728-.8192771-.978983-.8192771zm-75.845423-.0512048h-3.400678c-.309153 0-.56678.2048193-.618305.5120482l-5.204068 22.3253012-5.307119-22.3765061c-.051525-.3072289-.309152-.5120481-.618305-.5120481h-3.452203c-.309153 0-.56678.2048192-.618305.5120481l-5.307119 22.3253013-5.204068-22.3253013c-.051525-.3072289-.309152-.5120481-.618305-.5120481h-3.400678c-.206102 0-.360678.1024096-.515254.2560241-.103051.1536144-.154576.3584337-.103051.563253l7.522712 32.1054216c0 .1024097.051525.2048193.154576.307229.103051.1536144.309153.2560241.515254.2560241h3.400678c.309153 0 .56678-.2048193.618305-.5120482l5.358645-22.4277109 5.307118 22.4277109c.051526.3072289.309153.5120482.618305.5120482h3.400678c.309153 0 .56678-.2048193.618305-.5120482l7.522712-32.1566265c.051526-.2048193 0-.4096386-.103051-.563253-.206101-.1024097-.412203-.2048193-.566779-.2048193z"/></g></svg>