<svg xmlns="http://www.w3.org/2000/svg" width="332" height="228"><g fill="none" transform="translate(28 76)"><path fill="#0A2944" d="M90.498 51.80656c2.75927 1.42198 5.826 2.139 8.928 2.08742 7.65 0 11.958-3.68757 11.958-9.33023 0-4.74031-2.826-7.5075-8.334-9.55281-4.308-1.64828-6.228-2.83336-6.228-5.4682 0-2.40626 1.92-4.3493 5.472-4.3493 2.33677-.0113 4.6276.65059 6.6 1.90695l1.35-4.09062c-1.668-1.05875-4.44-1.87086-7.8-1.87086-6.954 0-11.064 3.99437-11.064 9.1257 0 3.82594 2.628 6.91797 8.466 9.02344 4.38 1.5821 6.09 3.0078 6.09 5.79906 0 2.79125-2.052 4.74633-6.366 4.74633-2.70977-.0739-5.35483-.84669-7.68-2.24383l-1.38 4.21094-.012.00601zm32.454 1.54602V21.65625h-5.454v31.69633h5.454zm-2.694-44.62992c-.92077-.02835-1.81264.32425-2.4663.97506-.65366.65081-1.01156 1.54253-.9897 2.46587-.03707.89961.30061 1.77416.9322 2.41424.63158.64007 1.50018.98802 2.3978.96053.92454.06475 1.8334-.2647 2.50288-.90729.66947-.64257 1.03736-1.53858 1.01312-2.46748.03694-.91608-.30691-1.80645-.94953-2.45873-.64262-.65227-1.52638-1.00796-2.44047-.9822zm12.276 7.14054v5.9675h-4.992v4.03649h4.992V43.3125c0 4.21094.636 7.02625 2.16 8.52414 1.332 1.28133 3.432 2.05734 6.162 2.05734a18.73406 18.73406 0 0 0 5.19-.66773l-.246-3.79586a10.77349 10.77349 0 0 1-3.396.40906c-3.276 0-4.404-2.31601-4.404-6.34648V25.86719h8.4V21.8307H138v-7.68797l-5.46 1.72047h-.006zm43.932 22.29993a14.05817 14.05817 0 0 0 .192-2.64086c0-5.68477-2.634-14.5157-13.2-14.5157-9.516 0-15.108 7.30296-15.108 16.63921 0 10.10625 5.796 16.24219 15.852 16.24219 5.196 0 8.754-.9986 10.746-1.80469l-1.05-3.95828c-2.058.97453-4.656 1.73852-8.91 1.73852-6 0-11.07-3.40485-11.208-11.67633l22.686-.02407zm-22.614-4.05454c.468-3.88609 3.036-9.02343 9.108-9.02343 6.684 0 8.304 5.54039 8.238 9.02343h-17.346zm28.23 32.36407h5.454V49.36422h.138c1.998 2.88148 5.856 4.52976 10.266 4.52976 7.854 0 14.55-5.20351 14.55-16.91593 0-9.82953-5.4-15.83914-13.518-15.83914-5.442 0-9.438 1.9671-11.808 5.60656h-.126l-.318-5.08922h-4.92c.132 3.0379.27 6.34648.27 10.44313v34.34921l.012.02407zm5.454-31.3775a9.22542 9.22542 0 0 1 .414-2.31c.88777-4.37923 4.70511-7.54232 9.162-7.59172 6.408 0 9.924 5.58851 9.924 12.03125 0 7.4714-3.72 12.5907-10.128 12.5907-4.25445.05278-8.0035-2.79233-9.108-6.91195a9.11821 9.11821 0 0 1-.276-2.40625v-5.41407l.012.01204zm57.132 3.06797a13.56363 13.56363 0 0 0 .192-2.64086c0-5.68477-2.634-14.5157-13.2-14.5157-9.522 0-15.114 7.30296-15.114 16.63921 0 10.10625 5.796 16.24219 15.852 16.24219 5.202 0 8.76-.9986 10.746-1.80469L242.1 48.125c-2.052.97453-4.656 1.73852-8.91 1.73852-6 0-11.07-3.40485-11.202-11.67633l22.68-.02407zm-22.614-4.05454c.474-3.88609 3.036-9.02343 9.114-9.02343 6.684 0 8.298 5.54039 8.232 9.02343h-17.346zm26.898 19.24399h5.448V33.93414a8.36972 8.36972 0 0 1 .408-2.7371c1.11171-3.51917 4.33494-5.93805 8.016-6.01563 5.634 0 7.608 4.33726 7.608 9.54078v18.63039h5.454V34.13266c0-10.74391-6.54-12.99375-11.094-12.99375-5.436 0-9.24 2.53257-10.8 5.25765h-.126l-.324-4.74031h-4.854c.198 2.6168.264 5.2336.264 8.57227v23.12406z"/><ellipse cx="38.4" cy="38.5" fill="#0A2944" rx="38.4" ry="38.5"/><path fill="#5CDBDD" d="M50.454 31.4136l-9.9 1.14296-11.478 11.49586c-2.028 2.0393-4.434 1.20313-4.164 1.6904l10.998-.9625 11.808-11.83274c.75378-.75409 1.70055-1.28491 2.736-1.53399z" opacity=".4"/><path fill="#5CDBDD" d="M45.366 11.3154l-24.48 24.5257c-1.463 1.4668-2.03437 3.60473-1.49887 5.60844.5355 2.0037 2.0965 3.56877 4.095 4.10566 1.9985.53689 4.13087-.03597 5.59387-1.50278L53.562 19.5207c2.25995-2.26915 2.25726-5.9455-.006-8.21133-2.26326-2.26583-5.93005-2.26314-8.19.00602zm2.352 21.63218l-24.474 24.5257c-2.2616 2.2675-2.2616 5.94383 0 8.21133s5.9284 2.2675 8.19 0l24.48-24.5257c2.14588-2.288 2.09029-5.87143-.12554-8.0914-2.21582-2.21996-5.78998-2.27308-8.07046-.11993z"/></g></svg>