<svg xmlns="http://www.w3.org/2000/svg" width="404" height="246" viewBox="0 0 404 246">
  <g fill="none" fill-rule="evenodd" transform="translate(2 2)">
    <path fill="#FBEA46" fill-rule="nonzero" d="M107.52 218.988L112.092 218.988 123.72 236.052 123.72 218.988 128.148 218.988 128.148 243 123.684 243 111.948 225.72 111.948 243 107.52 243 107.52 218.988zM133.188 218.988L148.74 218.988 148.74 222.984 137.724 222.984 137.724 228.636 145.824 228.636 145.824 232.668 137.724 232.668 137.724 238.932 149.568 238.932 149.568 243 133.188 243 133.188 218.988zM155.004 237.348C155.772004 238.188004 156.479997 238.745999 157.128 239.022 157.776003 239.298001 158.519996 239.436 159.36 239.436 159.792002 239.436 160.217998 239.358001 160.638 239.202 161.058002 239.045999 161.435998 238.812002 161.772 238.5 162.108002 238.187998 162.377999 237.798002 162.582 237.33 162.786001 236.861998 162.888 236.316003 162.888 235.692L162.888 218.988 167.424 218.988 167.424 235.944C167.424 237.384007 167.190002 238.595995 166.722 239.58 166.253998 240.564005 165.648004 241.355997 164.904 241.956 164.159996 242.556003 163.320005 242.987999 162.384 243.252 161.447995 243.516001 160.512005 243.648 159.576 243.648 157.703991 243.648 156.162006 243.354003 154.95 242.766 153.737994 242.177997 152.700004 241.332006 151.836 240.228L155.004 237.348zM174.048 236.232C174.336001 236.568002 174.677998 236.921998 175.074 237.294 175.470002 237.666002 175.913998 238.013998 176.406 238.338 176.898002 238.662002 177.449997 238.931999 178.062 239.148 178.674003 239.364001 179.363996 239.472 180.132 239.472 181.548007 239.472 182.597997 239.148003 183.282 238.5 183.966003 237.851997 184.308 237.072005 184.308 236.16 184.308 235.655997 184.212001 235.206002 184.02 234.81 183.827999 234.413998 183.504002 234.066001 183.048 233.766 182.591998 233.465998 181.998004 233.196001 181.266 232.956 180.533996 232.715999 179.628005 232.488001 178.548 232.272 177.443994 232.055999 176.490004 231.720002 175.686 231.264 174.881996 230.807998 174.216003 230.268003 173.688 229.644 173.159997 229.019997 172.764001 228.330004 172.5 227.574 172.235999 226.817996 172.104 226.044004 172.104 225.252 172.104 224.339995 172.271998 223.470004 172.608 222.642 172.944002 221.813996 173.459997 221.082003 174.156 220.446 174.852003 219.809997 175.721995 219.300002 176.766 218.916 177.810005 218.531998 179.039993 218.34 180.456 218.34 181.728006 218.34 182.819995 218.483999 183.732 218.772 184.644005 219.060001 185.405997 219.395998 186.018 219.78 186.630003 220.164002 187.103998 220.541998 187.44 220.914 187.776002 221.286002 188.015999 221.555999 188.16 221.724L185.172 224.532C185.051999 224.436 184.860001 224.262001 184.596 224.01 184.331999 223.757999 184.002002 223.512001 183.606 223.272 183.209998 223.031999 182.736003 222.816001 182.184 222.624 181.631997 222.431999 181.008003 222.336 180.312 222.336 179.687997 222.336 179.148002 222.419999 178.692 222.588 178.235998 222.756001 177.858002 222.971999 177.558 223.236 177.257999 223.500001 177.036001 223.793998 176.892 224.118 176.747999 224.442002 176.676 224.747999 176.676 225.036 176.676 225.468002 176.753999 225.851998 176.91 226.188 177.066001 226.524002 177.329998 226.835999 177.702 227.124 178.074002 227.412001 178.583997 227.669999 179.232 227.898 179.880003 228.126001 180.695995 228.335999 181.68 228.528 182.616005 228.720001 183.515996 229.007998 184.38 229.392 185.244004 229.776002 186.005997 230.273997 186.666 230.886 187.326003 231.498003 187.853998 232.241996 188.25 233.118 188.646002 233.994004 188.844 235.043994 188.844 236.268 188.844 237.324005 188.628002 238.295996 188.196 239.184 187.763998 240.072004 187.164004 240.851997 186.396 241.524 185.627996 242.196003 184.716005 242.717998 183.66 243.09 182.603995 243.462002 181.452006 243.648 180.204 243.648 179.003994 243.648 177.918005 243.504001 176.946 243.216 175.973995 242.927999 175.098004 242.562002 174.318 242.118 173.537996 241.673998 172.866003 241.188003 172.302 240.66 171.737997 240.131997 171.264002 239.628002 170.88 239.148L174.048 236.232zM221.28 238.608C220.919998 239.160003 220.422003 239.723997 219.786 240.3 219.149997 240.876003 218.400004 241.409998 217.536 241.902 216.671996 242.394002 215.724005 242.795998 214.692 243.108 213.659995 243.420002 212.568006 243.576 211.416 243.576 209.615991 243.576 207.972007 243.264003 206.484 242.64 204.995993 242.015997 203.712005 241.146006 202.632 240.03 201.551995 238.913994 200.712003 237.600008 200.112 236.088 199.511997 234.575992 199.212 232.920009 199.212 231.12 199.212 229.367991 199.511997 227.724008 200.112 226.188 200.712003 224.651992 201.557995 223.308006 202.65 222.156 203.742005 221.003994 205.043992 220.092003 206.556 219.42 208.068008 218.747997 209.735991 218.412 211.56 218.412 212.736006 218.412 213.815995 218.537999 214.8 218.79 215.784005 219.042001 216.677996 219.383998 217.482 219.816 218.286004 220.248002 218.999997 220.757997 219.624 221.346 220.248003 221.934003 220.799998 222.563997 221.28 223.236L218.076 226.08C217.307996 224.975994 216.414005 224.088003 215.394 223.416 214.373995 222.743997 213.096008 222.408 211.56 222.408 210.383994 222.408 209.328005 222.641998 208.392 223.11 207.455995 223.578002 206.658003 224.201996 205.998 224.982 205.337997 225.762004 204.834002 226.673995 204.486 227.718 204.137998 228.762005 203.964 229.859994 203.964 231.012 203.964 232.164006 204.137998 233.243995 204.486 234.252 204.834002 235.260005 205.331997 236.135996 205.98 236.88 206.628003 237.624004 207.401996 238.211998 208.302 238.644 209.202005 239.076002 210.215994 239.292 211.344 239.292 212.376005 239.292 213.257996 239.172001 213.99 238.932 214.722004 238.691999 215.345997 238.392002 215.862 238.032 216.378003 237.671998 216.809998 237.294002 217.158 236.898 217.506002 236.501998 217.823999 236.160001 218.112 235.872L221.28 238.608zM235.536 243.648C233.783991 243.648 232.152008 243.318003 230.64 242.658 229.127992 241.997997 227.808006 241.092006 226.68 239.94 225.551994 238.787994 224.664003 237.444008 224.016 235.908 223.367997 234.371992 223.044 232.728009 223.044 230.976 223.044 229.223991 223.367997 227.580008 224.016 226.044 224.664003 224.507992 225.545994 223.170006 226.662 222.03 227.778006 220.889994 229.097992 219.990003 230.622 219.33 232.146008 218.669997 233.783991 218.34 235.536 218.34 237.288009 218.34 238.919992 218.669997 240.432 219.33 241.944008 219.990003 243.263994 220.889994 244.392 222.03 245.520006 223.170006 246.407997 224.507992 247.056 226.044 247.704003 227.580008 248.028 229.223991 248.028 230.976 248.028 232.728009 247.704003 234.371992 247.056 235.908 246.407997 237.444008 245.520006 238.787994 244.392 239.94 243.263994 241.092006 241.944008 241.997997 240.432 242.658 238.919992 243.318003 237.288009 243.648 235.536 243.648zM235.536 239.364C236.712006 239.364 237.779995 239.136002 238.74 238.68 239.700005 238.223998 240.515997 237.606004 241.188 236.826 241.860003 236.045996 242.375998 235.140005 242.736 234.108 243.096002 233.075995 243.276 231.996006 243.276 230.868 243.276 229.715994 243.096002 228.630005 242.736 227.61 242.375998 226.589995 241.860003 225.696004 241.188 224.928 240.515997 224.159996 239.700005 223.554002 238.74 223.11 237.779995 222.665998 236.712006 222.444 235.536 222.444 234.335994 222.444 233.262005 222.665998 232.314 223.11 231.365995 223.554002 230.556003 224.159996 229.884 224.928 229.211997 225.696004 228.696002 226.589995 228.336 227.61 227.975998 228.630005 227.796 229.715994 227.796 230.868 227.796 231.996006 227.975998 233.075995 228.336 234.108 228.696002 235.140005 229.211997 236.045996 229.884 236.826 230.556003 237.606004 231.365995 238.223998 232.314 238.68 233.262005 239.136002 234.335994 239.364 235.536 239.364zM252.132 218.988L256.704 218.988 268.332 236.052 268.332 218.988 272.76 218.988 272.76 243 268.296 243 256.56 225.72 256.56 243 252.132 243 252.132 218.988zM277.8 218.988L293.316 218.988 293.316 222.984 282.336 222.984 282.336 229.212 290.544 229.212 290.544 233.244 282.336 233.244 282.336 243 277.8 243 277.8 218.988zM192.94 202.72C193.100001 202.786667 193.276666 202.836667 193.47 202.87 193.663334 202.903334 193.933332 202.92 194.28 202.92 195.040004 202.92 195.629998 202.673336 196.05 202.18 196.470002 201.686664 196.68 201.040004 196.68 200.24 196.68 199.946665 196.643334 199.660001 196.57 199.38 196.496666 199.099999 196.386667 198.850001 196.24 198.63 196.093333 198.409999 195.903334 198.230001 195.67 198.09 195.436665 197.949999 195.153335 197.88 194.82 197.88 194.179997 197.88 193.706668 198.056665 193.4 198.41 193.093332 198.763335 192.94 199.23333 192.94 199.82L192.94 202.72zM190.06 191.66L192.94 191.66 192.94 196.32C193.206668 196.039999 193.569998 195.820001 194.03 195.66 194.490002 195.499999 194.946664 195.42 195.4 195.42 196.06667 195.42 196.659997 195.546665 197.18 195.8 197.700003 196.053335 198.136665 196.396665 198.49 196.83 198.843335 197.263336 199.113332 197.763331 199.3 198.33 199.486668 198.89667 199.58 199.499997 199.58 200.14 199.58 200.900004 199.456668 201.599997 199.21 202.24 198.963332 202.880003 198.606669 203.426664 198.14 203.88 197.673331 204.333336 197.100003 204.686665 196.42 204.94 195.739997 205.193335 194.966671 205.32 194.1 205.32 193.299996 205.32 192.543337 205.246667 191.83 205.1 191.116663 204.953333 190.526669 204.800001 190.06 204.64L190.06 191.66zM201.3 206.48C201.460001 206.600001 201.636666 206.706666 201.83 206.8 202.023334 206.893334 202.233332 206.94 202.46 206.94 202.766668 206.94 203.023332 206.843334 203.23 206.65 203.436668 206.456666 203.633332 206.126669 203.82 205.66L204.1 204.9 199.82 195.62 203.1 195.62 205.44 201.54 207.56 195.62 210.62 195.62 206.78 204.94C206.566666 205.460003 206.356668 205.976664 206.15 206.49 205.943332 207.003336 205.690001 207.463331 205.39 207.87 205.089998 208.276669 204.723335 208.606665 204.29 208.86 203.856664 209.113335 203.313337 209.24 202.66 209.24 202.153331 209.24 201.693335 209.173334 201.28 209.04 200.866665 208.906666 200.486668 208.713335 200.14 208.46L201.3 206.48z"/>
    <path stroke="#FBEA46" stroke-width="3.37" d="M28.3372242,72.2334356 L47.9670534,72.2334356 L47.9670534,94.2569038 C45.3191773,96.5430884 42.2257916,98.3085044 38.6868034,99.5532049 C35.1478152,100.797905 31.1124108,101.420246 26.5804691,101.420246 C22.4049722,101.420246 18.6750874,100.772504 15.3907026,99.4769992 C12.1063179,98.1814946 9.31845176,96.3652751 7.02702056,94.0282864 C4.73558936,91.6912977 2.99158177,88.897114 1.79494547,85.6456515 C0.598309173,82.394189 0,78.8125535 0,74.9006376 C0,71.0903299 0.63649912,67.5594978 1.90951646,64.3080353 C3.18253379,61.0565727 4.99019129,58.2242865 7.33254319,55.8110917 C9.67489509,53.3978968 12.4500313,51.5054724 15.6580349,50.1337616 C18.8660386,48.7620509 22.4304337,48.0762058 26.3513271,48.0762058 C30.9851102,48.0762058 35.0459746,48.9271617 38.5340421,50.6290991 C42.0221096,52.3310366 44.9118156,54.7060927 47.2032468,57.7543388 L39.4124197,65.1462988 C37.7829575,63.2157429 35.98803,61.6408393 34.0275833,60.4215409 C32.0671366,59.2022424 29.6611699,58.5926023 26.809611,58.5926023 C24.4672592,58.5926023 22.379542,59.0244307 20.5463971,59.8881005 C18.7132521,60.7517702 17.1601943,61.920247 15.8871769,63.393566 C14.6141596,64.866885 13.6466809,66.5941985 12.9847119,68.5755585 C12.3227429,70.5569185 11.9917633,72.6652571 11.9917633,74.9006376 C11.9917633,77.3392345 12.3736628,79.5491798 13.1374732,81.5305398 C13.9012836,83.5118998 14.9706021,85.2011108 16.3454609,86.5982236 C17.7203196,87.9953365 19.3370274,89.0749074 21.1956327,89.836969 C23.054238,90.5990305 25.0783052,90.9800556 27.267895,90.9800556 C29.3047227,90.9800556 31.1633002,90.7387397 32.8436831,90.2561007 C34.5240659,89.7734617 36.0262039,88.9987108 37.3501419,87.9318247 L37.3501419,81.5305398 L28.3372242,81.5305398 L28.3372242,72.2334356 Z M83.5244963,101.496452 C79.756365,101.496452 76.2556198,100.810607 73.0221558,99.4388963 C69.7886918,98.0671855 66.9880957,96.1874619 64.6202834,93.7996691 C62.2524712,91.4118763 60.3938937,88.5795901 59.0444954,85.3027255 C57.695097,82.0258609 57.0204079,78.5077296 57.0204079,74.7482261 C57.0204079,70.9379184 57.695097,67.4070863 59.0444954,64.1556237 C60.3938937,60.9041612 62.2524712,58.0845758 64.6202834,55.696783 C66.9880957,53.3089902 69.7886918,51.4292666 73.0221558,50.0575559 C76.2556198,48.6858451 79.756365,48 83.5244963,48 C87.2926276,48 90.7933728,48.6858451 94.0268368,50.0575559 C97.2603009,51.4292666 100.060897,53.3089902 102.428709,55.696783 C104.796521,58.0845758 106.655099,60.9041612 108.004497,64.1556237 C109.353896,67.4070863 110.028585,70.9379184 110.028585,74.7482261 C110.028585,78.5077296 109.353896,82.0258609 108.004497,85.3027255 C106.655099,88.5795901 104.796521,91.4118763 102.428709,93.7996691 C100.060897,96.1874619 97.2603009,98.0671855 94.0268368,99.4388963 C90.7933728,100.810607 87.2926276,101.496452 83.5244963,101.496452 Z M83.5244963,90.6752325 C85.7650068,90.6752325 87.7763441,90.2434041 89.5585683,89.3797343 C91.3407926,88.5160646 92.8556605,87.3475878 94.1032175,85.8742688 C95.3507745,84.4009498 96.3055232,82.699038 96.9674922,80.7684821 C97.6294612,78.8379262 97.9604407,76.7803909 97.9604407,74.5958145 C97.9604407,72.4112381 97.6294612,70.3537028 96.9674922,68.423147 C96.3055232,66.4925911 95.3507745,64.80338 94.1032175,63.3554631 C92.8556605,61.9075462 91.3407926,60.764471 89.5585683,59.9262034 C87.7763441,59.0879357 85.7650068,58.6688081 83.5244963,58.6688081 C81.2839858,58.6688081 79.2599186,59.0879357 77.452234,59.9262034 C75.6445494,60.764471 74.1169515,61.9075462 72.8693945,63.3554631 C71.6218375,64.80338 70.6670888,66.4925911 70.0051198,68.423147 C69.3431508,70.3537028 69.0121713,72.4112381 69.0121713,74.5958145 C69.0121713,76.7803909 69.3431508,78.8379262 70.0051198,80.7684821 C70.6670888,82.699038 71.6218375,84.4009498 72.8693945,85.8742688 C74.1169515,87.3475878 75.6445494,88.5160646 77.452234,89.3797343 C79.2599186,90.2434041 81.2839858,90.6752325 83.5244963,90.6752325 Z M144.287556,101.496452 C140.519425,101.496452 137.01868,100.810607 133.785216,99.4388963 C130.551752,98.0671855 127.751156,96.1874619 125.383344,93.7996691 C123.015531,91.4118763 121.156954,88.5795901 119.807556,85.3027255 C118.458157,82.0258609 117.783468,78.5077296 117.783468,74.7482261 C117.783468,70.9379184 118.458157,67.4070863 119.807556,64.1556237 C121.156954,60.9041612 123.015531,58.0845758 125.383344,55.696783 C127.751156,53.3089902 130.551752,51.4292666 133.785216,50.0575559 C137.01868,48.6858451 140.519425,48 144.287556,48 C148.055688,48 151.556433,48.6858451 154.789897,50.0575559 C158.023361,51.4292666 160.823957,53.3089902 163.191769,55.696783 C165.559582,58.0845758 167.418159,60.9041612 168.767557,64.1556237 C170.116956,67.4070863 170.791645,70.9379184 170.791645,74.7482261 C170.791645,78.5077296 170.116956,82.0258609 168.767557,85.3027255 C167.418159,88.5795901 165.559582,91.4118763 163.191769,93.7996691 C160.823957,96.1874619 158.023361,98.0671855 154.789897,99.4388963 C151.556433,100.810607 148.055688,101.496452 144.287556,101.496452 Z M144.287556,90.6752325 C146.528067,90.6752325 148.539404,90.2434041 150.321628,89.3797343 C152.103853,88.5160646 153.618721,87.3475878 154.866278,85.8742688 C156.113835,84.4009498 157.068583,82.699038 157.730552,80.7684821 C158.392521,78.8379262 158.723501,76.7803909 158.723501,74.5958145 C158.723501,72.4112381 158.392521,70.3537028 157.730552,68.423147 C157.068583,66.4925911 156.113835,64.80338 154.866278,63.3554631 C153.618721,61.9075462 152.103853,60.764471 150.321628,59.9262034 C148.539404,59.0879357 146.528067,58.6688081 144.287556,58.6688081 C142.047046,58.6688081 140.022979,59.0879357 138.215294,59.9262034 C136.40761,60.764471 134.880012,61.9075462 133.632455,63.3554631 C132.384898,64.80338 131.430149,66.4925911 130.76818,68.423147 C130.106211,70.3537028 129.775231,72.4112381 129.775231,74.5958145 C129.775231,76.7803909 130.106211,78.8379262 130.76818,80.7684821 C131.430149,82.699038 132.384898,84.4009498 133.632455,85.8742688 C134.880012,87.3475878 136.40761,88.5160646 138.215294,89.3797343 C140.022979,90.2434041 142.047046,90.6752325 144.287556,90.6752325 Z M180.532425,49.3717039 L199.780351,49.3717039 C203.701245,49.3717039 207.32929,49.8797373 210.664595,50.8958193 C213.9999,51.9119014 216.876876,53.4614033 219.295609,55.5443715 C221.714342,57.6273396 223.59838,60.294515 224.947778,63.5459775 C226.297177,66.7974401 226.971866,70.6330923 226.971866,75.0530492 C226.971866,79.2697896 226.284447,82.940331 224.909588,86.0647832 C223.534729,89.1892355 221.637962,91.8056075 219.219229,93.9139778 C216.800496,96.022348 213.92352,97.5972516 210.588214,98.6387357 C207.252909,99.6802198 203.624864,100.200954 199.703971,100.200954 L180.532425,100.200954 L180.532425,49.3717039 Z M199.092925,89.9893805 C204.184995,89.9893805 208.105829,88.6557928 210.855547,85.9885775 C213.605264,83.3213621 214.980102,79.6508208 214.980102,74.9768434 C214.980102,72.6398547 214.661853,70.5188152 214.025344,68.6136614 C213.388835,66.7085076 212.421357,65.0828007 211.122879,63.736492 C209.824401,62.3901833 208.182234,61.3487148 206.196327,60.6120553 C204.210419,59.8753958 201.842643,59.5070716 199.092925,59.5070716 L192.065905,59.5070716 L192.065905,89.9893805 L199.092925,89.9893805 Z M252.334737,49.3717039 L263.868217,49.3717039 L263.868217,89.9893805 L288.233647,89.9893805 L288.233647,100.200954 L252.334737,100.200954 L252.334737,49.3717039 Z M296.828717,49.3717039 L308.362197,49.3717039 L308.362197,100.200954 L296.828717,100.200954 L296.828717,49.3717039 Z M320.088874,49.3717039 L354.307409,49.3717039 L354.307409,59.5070716 L331.622353,59.5070716 L331.622353,71.0141432 L348.884382,71.0141432 L348.884382,80.8446878 L331.622353,80.8446878 L331.622353,100.200954 L320.088874,100.200954 L320.088874,49.3717039 Z M363.055241,49.3717039 L397.884821,49.3717039 L397.884821,59.4308658 L374.58872,59.4308658 L374.58872,69.3376162 L392.690936,69.3376162 L392.690936,79.0919551 L374.58872,79.0919551 L374.58872,90.0655863 L399.565195,90.0655863 L399.565195,100.200954 L363.055241,100.200954 L363.055241,49.3717039 Z M53.641687,121.094784 L66.397257,121.094784 L85.0341376,171.924034 L72.431329,171.924034 L68.5359154,160.264551 L50.5864607,160.264551 L46.6910471,171.924034 L34.6229031,171.924034 L53.641687,121.094784 Z M65.7862117,151.348475 L59.5993784,132.144621 L53.2597837,151.348475 L65.7862117,151.348475 Z M126.472891,170.55233 C124.690667,171.416 122.7939,172.076443 120.782532,172.53368 C118.771165,172.990917 116.696178,173.219532 114.557509,173.219532 C110.789377,173.219532 107.288632,172.533687 104.055168,171.161976 C100.821704,169.790265 98.0211078,167.910542 95.6532956,165.522749 C93.2854834,163.134956 91.4269059,160.30267 90.0775075,157.025805 C88.7281092,153.748941 88.0534201,150.230809 88.0534201,146.471306 C88.0534201,142.660998 88.7281092,139.130166 90.0775075,135.878703 C91.4269059,132.627241 93.2854834,129.807656 95.6532956,127.419863 C98.0211078,125.03207 100.821704,123.152346 104.055168,121.780636 C107.288632,120.408925 110.789377,119.72308 114.557509,119.72308 C118.32564,119.72308 121.826385,120.408925 125.059849,121.780636 C128.293313,123.152346 131.093909,125.03207 133.461721,127.419863 C135.829534,129.807656 137.688111,132.627241 139.037509,135.878703 C140.386908,139.130166 141.061597,142.660998 141.061597,146.471306 C141.061597,150.332418 140.361448,153.914053 138.961129,157.21632 C137.56081,160.518586 135.613122,163.388975 133.118008,165.827572 L138.464655,172.457474 L132.201441,177.639467 L126.472891,170.55233 Z M113.717321,154.701529 L119.904155,149.519537 L125.709085,156.835291 C126.778419,155.412776 127.593138,153.79977 128.153266,151.996224 C128.713393,150.192679 128.993453,148.300254 128.993453,146.318894 C128.993453,144.134318 128.662473,142.076783 128.000504,140.146227 C127.338535,138.215671 126.383787,136.52646 125.13623,135.078543 C123.888673,133.630626 122.373805,132.487551 120.591581,131.649283 C118.809356,130.811015 116.798019,130.391888 114.557509,130.391888 C112.316998,130.391888 110.292931,130.811015 108.485246,131.649283 C106.677562,132.487551 105.149964,133.630626 103.902407,135.078543 C102.65485,136.52646 101.700101,138.215671 101.038132,140.146227 C100.376163,142.076783 100.045183,144.134318 100.045183,146.318894 C100.045183,148.503471 100.376163,150.561006 101.038132,152.491562 C101.700101,154.422118 102.65485,156.12403 103.902407,157.597349 C105.149964,159.070668 106.677562,160.239144 108.485246,161.102814 C110.292931,161.966484 112.316998,162.398312 114.557509,162.398312 C115.42316,162.398312 116.237879,162.334808 117.00169,162.207798 C117.7655,162.080788 118.503839,161.890275 119.216729,161.636255 L113.717321,154.701529 Z M150.420474,121.094784 L162.030334,121.094784 L162.030334,151.196064 C162.030334,152.872599 162.195824,154.383998 162.526808,155.730307 C162.857793,157.076616 163.405182,158.232392 164.168993,159.19767 C164.932803,160.162948 165.938472,160.912297 167.186029,161.44574 C168.433586,161.979183 169.973913,162.245901 171.807058,162.245901 C173.589283,162.245901 175.104151,161.979183 176.351708,161.44574 C177.599265,160.912297 178.604933,160.162948 179.368744,159.19767 C180.132554,158.232392 180.679943,157.076616 181.010928,155.730307 C181.341912,154.383998 181.507402,152.872599 181.507402,151.196064 L181.507402,121.094784 L193.193643,121.094784 L193.193643,152.643973 C193.193643,155.69222 192.697173,158.486403 191.70422,161.026608 C190.711266,163.566813 189.285508,165.738656 187.426903,167.542202 C185.568298,169.345747 183.315091,170.75554 180.667215,171.771622 C178.019339,172.787704 175.065983,173.295738 171.807058,173.295738 C168.548134,173.295738 165.594778,172.800405 162.946902,171.809725 C160.299026,170.819045 158.045819,169.409252 156.187214,167.580305 C154.328608,165.751357 152.90285,163.566813 151.909897,161.026608 C150.916943,158.486403 150.420474,155.69222 150.420474,152.643973 L150.420474,121.094784 Z M216.835703,121.094784 L229.591273,121.094784 L248.228154,171.924034 L235.625345,171.924034 L231.729931,160.264551 L213.780477,160.264551 L209.885063,171.924034 L197.816919,171.924034 L216.835703,121.094784 Z M228.980228,151.348475 L222.793394,132.144621 L216.4538,151.348475 L228.980228,151.348475 Z M260.413115,131.230151 L243.914893,131.230151 L243.914893,121.094784 L288.444817,121.094784 L288.444817,131.230151 L272.022975,131.230151 L272.022975,171.924034 L260.413115,171.924034 L260.413115,131.230151 Z M296.810745,121.094784 L308.344225,121.094784 L308.344225,171.924034 L296.810745,171.924034 L296.810745,121.094784 Z M366.052058,162.550724 C364.982724,164.024043 363.684266,165.408434 362.156645,166.703938 C360.629024,167.999443 358.935936,169.129817 357.077331,170.095095 C355.218726,171.060373 353.207389,171.822423 351.043259,172.381268 C348.87913,172.940114 346.625923,173.219532 344.283571,173.219532 C340.413598,173.219532 336.874663,172.559088 333.666659,171.238182 C330.458656,169.917275 327.696249,168.075654 325.379358,165.713263 C323.062466,163.350873 321.267539,160.556689 319.994521,157.330628 C318.721504,154.104568 318.085005,150.561035 318.085005,146.699923 C318.085005,142.94042 318.721504,139.422288 319.994521,136.145424 C321.267539,132.868559 323.062466,130.023572 325.379358,127.610377 C327.696249,125.197182 330.471386,123.292057 333.70485,121.894944 C336.938314,120.497831 340.515439,119.799286 344.436332,119.799286 C349.171957,119.799286 353.309201,120.662942 356.848189,122.390282 C360.387177,124.117621 363.327803,126.606985 365.670155,129.858447 L357.802947,137.402819 C356.275327,135.269047 354.467669,133.554434 352.379921,132.258929 C350.292172,130.963425 347.797096,130.315682 344.894616,130.315682 C342.603185,130.315682 340.540928,130.73481 338.707783,131.573077 C336.874638,132.411345 335.32158,133.567121 334.048563,135.04044 C332.775545,136.513759 331.795337,138.228372 331.107907,140.18433 C330.420478,142.140288 330.076768,144.210524 330.076768,146.3951 C330.076768,148.630481 330.420478,150.713418 331.107907,152.643973 C331.795337,154.574529 332.775545,156.251039 334.048563,157.673554 C335.32158,159.096069 336.849178,160.213743 338.631402,161.026608 C340.413626,161.839474 342.424964,162.245901 344.665474,162.245901 C346.498619,162.245901 348.089867,162.055388 349.439265,161.674357 C350.788664,161.293327 351.985282,160.785293 353.029156,160.150242 C354.07303,159.515191 355.002319,158.778542 355.81705,157.940275 C356.631781,157.102007 357.42104,156.251051 358.184851,155.387381 L366.052058,162.550724 Z"/>
    <path stroke="#FBEA46" stroke-width="2.246" d="M166.920943,5.66388196 L157.701348,5.66388196 L157.701348,1.77635684e-15 L182.585717,1.77635684e-15 L182.585717,5.66388196 L173.408806,5.66388196 L173.408806,28.4045809 L166.920943,28.4045809 L166.920943,5.66388196 Z M188.053674,1.77635684e-15 L194.498853,1.77635684e-15 L194.498853,10.9019081 L206.83433,10.9019081 L206.83433,1.77635684e-15 L213.279509,1.77635684e-15 L213.279509,28.4045809 L206.83433,28.4045809 L206.83433,16.7361324 L194.498853,16.7361324 L194.498853,28.4045809 L188.053674,28.4045809 L188.053674,1.77635684e-15 Z M220.625532,1.77635684e-15 L240.08912,1.77635684e-15 L240.08912,5.62129638 L227.070711,5.62129638 L227.070711,11.1574216 L237.186655,11.1574216 L237.186655,16.6083757 L227.070711,16.6083757 L227.070711,22.740699 L241.028153,22.740699 L241.028153,28.4045809 L220.625532,28.4045809 L220.625532,1.77635684e-15 Z"/>
  </g>
</svg>
