<svg xmlns="http://www.w3.org/2000/svg" width="404" height="246"><g fill="none" fill-rule="evenodd"><path fill="#FBEA46" fill-rule="nonzero" d="M109.52 220.988h4.572l11.628 17.064v-17.064h4.428V245h-4.464l-11.736-17.28V245h-4.428v-24.012zm25.668 0h15.552v3.996h-11.016v5.652h8.1v4.032h-8.1v6.264h11.844V245h-16.38v-24.012zm21.816 18.36c.768004.840004 1.475997 1.397999 2.124 1.674.648003.276001 1.391996.414 2.232.414.432002 0 .857998-.077999 1.278-.234s.797998-.389998 1.134-.702c.336002-.312002.605999-.701998.81-1.17.204001-.468002.306-1.013997.306-1.638v-16.704h4.536v16.956c0 1.440007-.233998 2.651995-.702 3.636-.468002.984005-1.073996 1.775997-1.818 2.376-.744004.600003-1.583995 1.031999-2.52 1.296-.936005.264001-1.871995.396-2.808.396-1.872009 0-3.413994-.293997-4.626-.882-1.212006-.588003-2.249996-1.433994-3.114-2.538l3.168-2.88zm19.044-1.116c.288001.336002.629998.689998 1.026 1.062.396002.372002.839998.719998 1.332 1.044.492002.324002 1.043997.593999 1.656.81.612003.216001 1.301996.324 2.07.324 1.416007 0 2.465997-.323997 3.15-.972.684003-.648003 1.026-1.427995 1.026-2.34 0-.504003-.095999-.953998-.288-1.35-.192001-.396002-.515998-.743999-.972-1.044-.456002-.300002-1.049996-.569999-1.782-.81-.732004-.240001-1.637995-.467999-2.718-.684-1.104006-.216001-2.057996-.551998-2.862-1.008-.804004-.456002-1.469997-.995997-1.998-1.62-.528003-.624003-.923999-1.313996-1.188-2.07-.264001-.756004-.396-1.529996-.396-2.322 0-.912005.167998-1.781996.504-2.61s.851997-1.559997 1.548-2.196c.696003-.636003 1.565995-1.145998 2.61-1.53 1.044005-.384002 2.273993-.576 3.69-.576 1.272006 0 2.363995.143999 3.276.432.912005.288001 1.673997.623998 2.286 1.008.612003.384002 1.085998.761998 1.422 1.134.336002.372002.575999.641999.72.81l-2.988 2.808c-.120001-.096-.311999-.269999-.576-.522-.264001-.252001-.593998-.497999-.99-.738-.396002-.240001-.869997-.455999-1.422-.648-.552003-.192001-1.175997-.288-1.872-.288-.624003 0-1.163998.083999-1.62.252s-.833998.383999-1.134.648c-.300001.264001-.521999.557998-.666.882-.144001.324002-.216.629999-.216.918 0 .432002.077999.815998.234 1.152.156001.336002.419998.647999.792.936.372002.288001.881997.545999 1.53.774s1.463995.437999 2.448.63c.936005.192001 1.835996.479998 2.7.864.864004.384002 1.625997.881997 2.286 1.494.660003.612003 1.187998 1.355996 1.584 2.232.396002.876004.594 1.925994.594 3.15 0 1.056005-.215998 2.027996-.648 2.916s-1.031996 1.667997-1.8 2.34c-.768004.672003-1.679995 1.193998-2.736 1.566-1.056005.372002-2.207994.558-3.456.558-1.200006 0-2.285995-.143999-3.258-.432-.972005-.288001-1.847996-.653998-2.628-1.098-.780004-.444002-1.451997-.929997-2.016-1.458s-1.037998-1.031998-1.422-1.512l3.168-2.916zm47.232 2.376c-.360002.552003-.857997 1.115997-1.494 1.692s-1.385996 1.109998-2.25 1.602c-.864004.492002-1.811995.893998-2.844 1.206-1.032005.312002-2.123994.468-3.276.468-1.800009 0-3.443993-.311997-4.932-.936-1.488007-.624003-2.771995-1.493994-3.852-2.61-1.080005-1.116006-1.919997-2.429992-2.52-3.942-.600003-1.512008-.9-3.167991-.9-4.968 0-1.752009.299997-3.395992.9-4.932.600003-1.536008 1.445995-2.879994 2.538-4.032s2.393992-2.063997 3.906-2.736c1.512008-.672003 3.179991-1.008 5.004-1.008 1.176006 0 2.255995.125999 3.24.378.984005.252001 1.877996.593998 2.682 1.026.804004.432002 1.517997.941997 2.142 1.53.624003.588003 1.175998 1.217997 1.656 1.89l-3.204 2.844c-.768004-1.104006-1.661995-1.991997-2.682-2.664-1.020005-.672003-2.297992-1.008-3.834-1.008-1.176006 0-2.231995.233998-3.168.702-.936005.468002-1.733997 1.091996-2.394 1.872-.660003.780004-1.163998 1.691995-1.512 2.736-.348002 1.044005-.522 2.141994-.522 3.294s.173998 2.231995.522 3.24c.348002 1.008005.845997 1.883996 1.494 2.628.648003.744004 1.421996 1.331998 2.322 1.764.900005.432002 1.913994.648 3.042.648 1.032005 0 1.913996-.119999 2.646-.36.732004-.240001 1.355997-.539998 1.872-.9.516003-.360002.947998-.737998 1.296-1.134.348002-.396002.665999-.737999.954-1.026l3.168 2.736zm14.256 5.04c-1.752009 0-3.383992-.329997-4.896-.99-1.512008-.660003-2.831994-1.565994-3.96-2.718-1.128006-1.152006-2.015997-2.495992-2.664-4.032-.648003-1.536008-.972-3.179991-.972-4.932 0-1.752009.323997-3.395992.972-4.932.648003-1.536008 1.529994-2.873994 2.646-4.014 1.116006-1.140006 2.435992-2.039997 3.96-2.7 1.524008-.660003 3.161991-.99 4.914-.99 1.752009 0 3.383992.329997 4.896.99 1.512008.660003 2.831994 1.559994 3.96 2.7s2.015997 2.477992 2.664 4.014c.648003 1.536008.972 3.179991.972 4.932 0 1.752009-.323997 3.395992-.972 4.932-.648003 1.536008-1.535994 2.879994-2.664 4.032s-2.447992 2.057997-3.96 2.718c-1.512008.660003-3.143991.99-4.896.99zm0-4.284c1.176006 0 2.243995-.227998 3.204-.684.960005-.456002 1.775997-1.073996 2.448-1.854.672003-.780004 1.187998-1.685995 1.548-2.718.360002-1.032005.54-2.111994.54-3.24 0-1.152006-.179998-2.237995-.54-3.258-.360002-1.020005-.875997-1.913996-1.548-2.682-.672003-.768004-1.487995-1.373998-2.448-1.818s-2.027994-.666-3.204-.666c-1.200006 0-2.273995.221998-3.222.666-.948005.444002-1.757997 1.049996-2.43 1.818-.672003.768004-1.187998 1.661995-1.548 2.682-.360002 1.020005-.54 2.105994-.54 3.258 0 1.128006.179998 2.207995.54 3.24.360002 1.032005.875997 1.937996 1.548 2.718.672003.780004 1.481995 1.397998 2.43 1.854.948005.456002 2.021994.684 3.222.684zm16.596-20.376h4.572l11.628 17.064v-17.064h4.428V245h-4.464l-11.736-17.28V245h-4.428v-24.012zm25.668 0h15.516v3.996h-10.98v6.228h8.208v4.032h-8.208V245H279.8v-24.012zm-84.86-16.268c.160001.066667.336666.116667.53.15.193334.033334.463332.05.81.05.760004 0 1.349998-.246664 1.77-.74s.63-1.139996.63-1.94c0-.293335-.036666-.579999-.11-.86-.073334-.280001-.183333-.529999-.33-.75-.146667-.220001-.336666-.399999-.57-.54-.233335-.140001-.516665-.21-.85-.21-.640003 0-1.113332.176665-1.42.53-.306668.353335-.46.82333-.46 1.41v2.9zm-2.88-11.06h2.88v4.66c.266668-.280001.629998-.499999 1.09-.66.460002-.160001.916664-.24 1.37-.24.66667 0 1.259997.126665 1.78.38s.956665.596665 1.31 1.03c.353335.433336.623332.933331.81 1.5.186668.56667.28 1.169997.28 1.81 0 .760004-.123332 1.459997-.37 2.1-.246668.640003-.603331 1.186664-1.07 1.64-.466669.453336-1.039997.806665-1.72 1.06-.680003.253335-1.453329.38-2.32.38-.800004 0-1.556663-.073333-2.27-.22-.713337-.146667-1.303331-.299999-1.77-.46v-12.98zm11.24 14.82c.160001.120001.336666.226666.53.32s.403332.14.63.14c.306668 0 .563332-.096666.77-.29.206668-.193334.403332-.523331.59-.99l.28-.76-4.28-9.28h3.28l2.34 5.92 2.12-5.92h3.06l-3.84 9.32c-.213334.520003-.423332 1.036664-.63 1.55-.206668.513336-.459999.973331-.76 1.38-.300002.406669-.666665.736665-1.1.99-.433336.253335-.976663.38-1.63.38-.506669 0-.966665-.066666-1.38-.2-.413335-.133334-.793332-.326665-1.14-.58l1.16-1.98z"/><path stroke="#FBEA46" stroke-width="3.37" d="M30.3372242 74.2334356h19.6298292v22.0234682c-2.6478761 2.2861846-5.7412618 4.0516006-9.28025 5.2963011-3.5389882 1.2447001-7.5743926 1.8670411-12.1063343 1.8670411-4.1754969 0-7.9053817-.647742-11.1897665-1.9432468-3.2843847-1.2955046-6.07225084-3.1117241-8.36368204-5.4487128-2.2914312-2.3369887-4.03543879-5.1311724-5.23207509-8.3826349C2.59830917 84.394189 2 80.8125535 2 76.9006376c0-3.8103077.63649912-7.3411398 1.90951646-10.5926023 1.27301733-3.2514626 3.08067483-6.0837488 5.42302673-8.4969436 2.3423519-2.4131949 5.11748811-4.3056193 8.32549171-5.6773301 3.2080037-1.3717107 6.7723988-2.0575558 10.6932922-2.0575558 4.6337831 0 8.6946475.8509559 12.182715 2.5528933 3.4880675 1.7019375 6.3777735 4.0769936 8.6692047 7.1252397l-7.7908271 7.39196c-1.6294622-1.9305559-3.4243897-3.5054595-5.3848364-4.7247579-1.9604467-1.2192985-4.3664134-1.8289386-7.2179723-1.8289386-2.3423518 0-4.430069.4318284-6.2632139 1.2954982-1.833145.8636697-3.3862028 2.0321465-4.6592202 3.5054655-1.2730173 1.473319-2.240496 3.2006325-2.902465 5.1819925-.661969 1.98136-.9929486 4.0896986-.9929486 6.3250791 0 2.4385969.3818995 4.6485422 1.1457099 6.6299022.7638104 1.98136 1.8331289 3.670571 3.2079877 5.0676838 1.3748587 1.3971129 2.9915665 2.4766838 4.8501718 3.2387454 1.8586053.7620615 3.8826725 1.1430866 6.0722623 1.1430866 2.0368277 0 3.8954052-.2413159 5.5757881-.7239549 1.6803828-.482639 3.1825208-1.2573899 4.5064588-2.324276v-6.4012849h-9.0129177v-9.2971042zm55.1872721 29.2630164c-3.7681313 0-7.2688765-.685845-10.5023405-2.0575557-3.233464-1.3717108-6.0340601-3.2514344-8.4018724-5.6392272-2.3678122-2.3877928-4.2263897-5.220079-5.575788-8.4969436-1.3493984-3.2768646-2.0240875-6.7949959-2.0240875-10.5544994 0-3.8103077.6746891-7.3411398 2.0240875-10.5926024 1.3493983-3.2514625 3.2079758-6.0710479 5.575788-8.4588407 2.3678123-2.3877928 5.1684084-4.2675164 8.4018724-5.6392271C78.2556198 50.6858451 81.756365 50 85.5244963 50c3.7681313 0 7.2688765.6858451 10.5023405 2.0575559 3.2334641 1.3717107 6.0340602 3.2514343 8.4018722 5.6392271s4.22639 5.2073782 5.575788 8.4588407c1.349399 3.2514626 2.024088 6.7822947 2.024088 10.5926024 0 3.7595035-.674689 7.2776348-2.024088 10.5544994-1.349398 3.2768646-3.207976 6.1091508-5.575788 8.4969436-2.367812 2.3877928-5.1684081 4.2675164-8.4018722 5.6392272-3.233464 1.3717107-6.7342092 2.0575557-10.5023405 2.0575557zm0-10.8212195c2.2405105 0 4.2518478-.4318284 6.034072-1.2954982 1.7822243-.8636697 3.2970922-2.0321465 4.5446492-3.5054655 1.247557-1.473319 2.2023057-3.1752308 2.8642747-5.1057867.661969-1.9305559.9929485-3.9880912.9929485-6.1726676 0-2.1845764-.3309795-4.2421117-.9929485-6.1726675-.661969-1.9305559-1.6167177-3.619767-2.8642747-5.0676839-1.247557-1.4479169-2.7624249-2.5909921-4.5446492-3.4292597-1.7822242-.8382677-3.7935615-1.2573953-6.034072-1.2573953s-4.2645777.4191276-6.0722623 1.2573953c-1.8076846.8382676-3.3352825 1.9813428-4.5828395 3.4292597-1.247557 1.4479169-2.2023057 3.137128-2.8642747 5.0676839-.661969 1.9305558-.9929485 3.9880911-.9929485 6.1726675s.3309795 4.2421117.9929485 6.1726676c.661969 1.9305559 1.6167177 3.6324677 2.8642747 5.1057867 1.247557 1.473319 2.7751549 2.6417958 4.5828395 3.5054655 1.8076846.8636698 3.8317518 1.2954982 6.0722623 1.2954982zm60.7630597 10.8212195c-3.768131 0-7.268876-.685845-10.50234-2.0575557-3.233464-1.3717108-6.03406-3.2514344-8.401872-5.6392272-2.367813-2.3877928-4.22639-5.220079-5.575788-8.4969436-1.349399-3.2768646-2.024088-6.7949959-2.024088-10.5544994 0-3.8103077.674689-7.3411398 2.024088-10.5926024 1.349398-3.2514625 3.207975-6.0710479 5.575788-8.4588407 2.367812-2.3877928 5.168408-4.2675164 8.401872-5.6392271C139.01868 50.6858451 142.519425 50 146.287556 50c3.768132 0 7.268877.6858451 10.502341 2.0575559 3.233464 1.3717107 6.03406 3.2514343 8.401872 5.6392271 2.367813 2.3877928 4.22639 5.2073782 5.575788 8.4588407 1.349399 3.2514626 2.024088 6.7822947 2.024088 10.5926024 0 3.7595035-.674689 7.2776348-2.024088 10.5544994-1.349398 3.2768646-3.207975 6.1091508-5.575788 8.4969436-2.367812 2.3877928-5.168408 4.2675164-8.401872 5.6392272-3.233464 1.3717107-6.734209 2.0575557-10.502341 2.0575557zm0-10.8212195c2.240511 0 4.251848-.4318284 6.034072-1.2954982 1.782225-.8636697 3.297093-2.0321465 4.54465-3.5054655s2.202305-3.1752308 2.864274-5.1057867c.661969-1.9305559.992949-3.9880912.992949-6.1726676 0-2.1845764-.33098-4.2421117-.992949-6.1726675-.661969-1.9305559-1.616717-3.619767-2.864274-5.0676839-1.247557-1.4479169-2.762425-2.5909921-4.54465-3.4292597-1.782224-.8382677-3.793561-1.2573953-6.034072-1.2573953-2.24051 0-4.264577.4191276-6.072262 1.2573953-1.807684.8382676-3.335282 1.9813428-4.582839 3.4292597-1.247557 1.4479169-2.202306 3.137128-2.864275 5.0676839-.661969 1.9305558-.992949 3.9880911-.992949 6.1726675s.33098 4.2421117.992949 6.1726676c.661969 1.9305559 1.616718 3.6324677 2.864275 5.1057867 1.247557 1.473319 2.775155 2.6417958 4.582839 3.5054655 1.807685.8636698 3.831752 1.2954982 6.072262 1.2954982zm36.244869-41.3035286h19.247926c3.920894 0 7.548939.5080334 10.884244 1.5241154 3.335305 1.0160821 6.212281 2.565584 8.631014 4.6485522 2.418733 2.0829681 4.302771 4.7501435 5.652169 8.001606 1.349399 3.2514626 2.024088 7.0871148 2.024088 11.5070717 0 4.2167404-.687419 7.8872818-2.062278 11.011734-1.374859 3.1244523-3.271626 5.7408243-5.690359 7.8491946-2.418733 2.1083702-5.295709 3.6832738-8.631015 4.7247579-3.335305 1.0414841-6.96335 1.5622183-10.884243 1.5622183h-19.171546V51.3717039zm18.5605 40.6176766c5.09207 0 9.012904-1.3335877 11.762622-4.000803 2.749717-2.6672154 4.124555-6.3377567 4.124555-11.0117341 0-2.3369887-.318249-4.4580282-.954758-6.363182s-1.603987-3.5308607-2.902465-4.8771694c-1.298478-1.3463087-2.940645-2.3877772-4.926552-3.1244367-1.985908-.7366595-4.353684-1.1049837-7.103402-1.1049837h-7.02702v30.4823089h7.02702zm53.241812-40.6176766h11.53348v40.6176766h24.36543v10.2115735h-35.89891V51.3717039zm44.49398 0h11.53348v50.8292501h-11.53348V51.3717039zm23.260157 0h34.218535v10.1353677h-22.685056v11.5070716h17.262029v9.8305446h-17.262029v19.3562662h-11.533479V51.3717039zm42.966367 0h34.82958v10.0591619H376.58872v9.9067504h18.102216v9.7543389H376.58872v10.9736312h24.976475v10.1353677h-36.509954V51.3717039zM55.641687 123.094784h12.75557l18.6368806 50.82925H74.431329l-3.8954136-11.659483H52.5864607l-3.8954136 11.659483h-12.068144l19.0187839-50.82925zm12.1445247 30.253691l-6.1868333-19.203854-6.3395947 19.203854h12.526428zm60.6866793 19.203855c-1.782224.86367-3.678991 1.524113-5.690359 1.98135-2.011367.457237-4.086354.685852-6.225023.685852-3.768132 0-7.268877-.685845-10.502341-2.057556-3.233464-1.371711-6.0340602-3.251434-8.4018724-5.639227-2.3678122-2.387793-4.2263897-5.220079-5.5757881-8.496944-1.3493983-3.276864-2.0240874-6.794996-2.0240874-10.554499 0-3.810308.6746891-7.34114 2.0240874-10.592603 1.3493984-3.251462 3.2079759-6.071047 5.5757881-8.45884 2.3678122-2.387793 5.1684084-4.267517 8.4018724-5.639227 3.233464-1.371711 6.734209-2.057556 10.502341-2.057556 3.768131 0 7.268876.685845 10.50234 2.057556 3.233464 1.37171 6.03406 3.251434 8.401872 5.639227 2.367813 2.387793 4.22639 5.207378 5.575788 8.45884 1.349399 3.251463 2.024088 6.782295 2.024088 10.592603 0 3.861112-.700149 7.442747-2.100468 10.745014-1.400319 3.302266-3.348007 6.172655-5.843121 8.611252l5.346647 6.629902-6.263214 5.181993-5.72855-7.087137zm-12.75557-15.850801l6.186834-5.181992 5.80493 7.315754c1.069334-1.422515 1.884053-3.035521 2.444181-4.839067.560127-1.803545.840187-3.69597.840187-5.67733 0-2.184576-.33098-4.242111-.992949-6.172667-.661969-1.930556-1.616717-3.619767-2.864274-5.067684s-2.762425-2.590992-4.544649-3.42926c-1.782225-.838268-3.793562-1.257395-6.034072-1.257395-2.240511 0-4.264578.419127-6.072263 1.257395-1.807684.838268-3.335282 1.981343-4.582839 3.42926-1.247557 1.447917-2.202306 3.137128-2.864275 5.067684-.661969 1.930556-.992949 3.988091-.992949 6.172667 0 2.184577.33098 4.242112.992949 6.172668.661969 1.930556 1.616718 3.632468 2.864275 5.105787 1.247557 1.473319 2.775155 2.641795 4.582839 3.505465 1.807685.86367 3.831752 1.295498 6.072263 1.295498.865651 0 1.68037-.063504 2.444181-.190514.76381-.12701 1.502149-.317523 2.215039-.571543l-5.499408-6.934726zm36.703153-33.606745h11.60986v30.10128c0 1.676535.16549 3.187934.496474 4.534243.330985 1.346309.878374 2.502085 1.642185 3.467363.76381.965278 1.769479 1.714627 3.017036 2.24807 1.247557.533443 2.787884.800161 4.621029.800161 1.782225 0 3.297093-.266718 4.54465-.800161s2.253225-1.282792 3.017036-2.24807c.76381-.965278 1.311199-2.121054 1.642184-3.467363.330984-1.346309.496474-2.857708.496474-4.534243v-30.10128h11.686241v31.549189c0 3.048247-.49647 5.84243-1.489423 8.382635-.992954 2.540205-2.418712 4.712048-4.277317 6.515594-1.858605 1.803545-4.111812 3.213338-6.759688 4.22942-2.647876 1.016082-5.601232 1.524116-8.860157 1.524116-3.258924 0-6.21228-.495333-8.860156-1.486013s-4.901083-2.400473-6.759688-4.22942c-1.858606-1.828948-3.284364-4.013492-4.277317-6.553697-.992954-2.540205-1.489423-5.334388-1.489423-8.382635v-31.549189zm66.415229 0h12.75557l18.636881 50.82925h-12.602809l-3.895414-11.659483h-17.949454l-3.895414 11.659483h-12.068144l19.018784-50.82925zm12.144525 30.253691l-6.186834-19.203854-6.339594 19.203854h12.526428zm31.432887-20.118324h-16.498222v-10.135367h44.529924v10.135367h-16.421842v40.693883h-11.60986v-40.693883zm36.39763-10.135367h11.53348v50.82925h-11.53348v-50.82925zm69.241313 41.45594c-1.069334 1.473319-2.367792 2.85771-3.895413 4.153214-1.527621 1.295505-3.220709 2.425879-5.079314 3.391157-1.858605.965278-3.869942 1.727328-6.034072 2.286173-2.164129.558846-4.417336.838264-6.759688.838264-3.869973 0-7.408908-.660444-10.616912-1.98135-3.208003-1.320907-5.97041-3.162528-8.287301-5.524919-2.316892-2.36239-4.111819-5.156574-5.384837-8.382635-1.273017-3.22606-1.909516-6.769593-1.909516-10.630705 0-3.759503.636499-7.277635 1.909516-10.554499 1.273018-3.276865 3.067945-6.121852 5.384837-8.535047 2.316891-2.413195 5.092028-4.31832 8.325492-5.715433 3.233464-1.397113 6.810589-2.095658 10.731482-2.095658 4.735625 0 8.872869.863656 12.411857 2.590996 3.538988 1.727339 6.479614 4.216703 8.821966 7.468165l-7.867208 7.544372c-1.52762-2.133772-3.335278-3.848385-5.423026-5.14389-2.087749-1.295504-4.582825-1.943247-7.485305-1.943247-2.291431 0-4.353688.419128-6.186833 1.257395-1.833145.838268-3.386203 1.994044-4.65922 3.467363-1.273018 1.473319-2.253226 3.187932-2.940656 5.14389-.687429 1.955958-1.031139 4.026194-1.031139 6.21077 0 2.235381.34371 4.318318 1.031139 6.248873.68743 1.930556 1.667638 3.607066 2.940656 5.029581 1.273017 1.422515 2.800615 2.540189 4.582839 3.353054 1.782224.812866 3.793562 1.219293 6.034072 1.219293 1.833145 0 3.424393-.190513 4.773791-.571544 1.349399-.38103 2.546017-.889064 3.589891-1.524115 1.043874-.635051 1.973163-1.3717 2.787894-2.209967.814731-.838268 1.60399-1.689224 2.367801-2.552894l7.867207 7.163343z"/><path stroke="#FBEA46" stroke-width="2.246" d="M168.920943 7.66388196h-9.219595V2h24.884369v5.66388196h-9.176911V30.4045809h-6.487863V7.66388196zM190.053674 2h6.445179v10.9019081h12.335477V2h6.445179v28.4045809h-6.445179V18.7361324h-12.335477v11.6684485h-6.445179V2zm32.571858 0h19.463588v5.62129638h-13.018409v5.53612522h10.115944v5.4509541h-10.115944v6.1323233h13.957442v5.6638819h-20.402621V2z"/></g></svg>